<?xml version="1.0" encoding="UTF-8" standalone="no"?>
<!-- Created with Inkscape (http://www.inkscape.org/) -->

<svg
   xmlns:dc="http://purl.org/dc/elements/1.1/"
   xmlns:cc="http://creativecommons.org/ns#"
   xmlns:rdf="http://www.w3.org/1999/02/22-rdf-syntax-ns#"
   xmlns:svg="http://www.w3.org/2000/svg"
   xmlns="http://www.w3.org/2000/svg"
   xmlns:sodipodi="http://sodipodi.sourceforge.net/DTD/sodipodi-0.dtd"
   xmlns:inkscape="http://www.inkscape.org/namespaces/inkscape"
   width="335.09015mm"
   height="142.49388mm"
   viewBox="0 0 335.09015 142.49388"
   version="1.1"
   id="svg2353"
   inkscape:version="0.92.4 (5da689c313, 2019-01-14)"
   sodipodi:docname="7MOST2.svg">
  <defs
     id="defs2347">
    <filter
       inkscape:collect="always"
       style="color-interpolation-filters:sRGB"
       id="filter1248-4"
       x="-0.057657655"
       width="1.1153153"
       y="-0.28656718"
       height="1.5731343">
      <feGaussianBlur
         inkscape:collect="always"
         stdDeviation="2.809884"
         id="feGaussianBlur1250-0" />
    </filter>
    <filter
       inkscape:collect="always"
       style="color-interpolation-filters:sRGB"
       id="filter1204-7"
       x="-0.014414414"
       width="1.0288289"
       y="-0.071641795"
       height="1.1432836">
      <feGaussianBlur
         inkscape:collect="always"
         stdDeviation="0.70247099"
         id="feGaussianBlur1206-8" />
    </filter>
    <filter
       inkscape:collect="always"
       style="color-interpolation-filters:sRGB"
       id="filter1204"
       x="-0.014414414"
       width="1.0288289"
       y="-0.071641795"
       height="1.1432836">
      <feGaussianBlur
         inkscape:collect="always"
         stdDeviation="0.70247099"
         id="feGaussianBlur1206" />
    </filter>
    <filter
       inkscape:collect="always"
       style="color-interpolation-filters:sRGB"
       id="filter1248"
       x="-0.057657655"
       width="1.1153153"
       y="-0.28656718"
       height="1.5731343">
      <feGaussianBlur
         inkscape:collect="always"
         stdDeviation="2.809884"
         id="feGaussianBlur1250" />
    </filter>
  </defs>
  <sodipodi:namedview
     id="base"
     pagecolor="#ffffff"
     bordercolor="#666666"
     borderopacity="1.0"
     inkscape:pageopacity="0.0"
     inkscape:pageshadow="2"
     inkscape:zoom="0.35"
     inkscape:cx="-5.1822483"
     inkscape:cy="-165.02283"
     inkscape:document-units="mm"
     inkscape:current-layer="layer1"
     showgrid="false"
     fit-margin-top="0"
     fit-margin-left="0"
     fit-margin-right="0"
     fit-margin-bottom="0"
     inkscape:window-width="1920"
     inkscape:window-height="986"
     inkscape:window-x="-11"
     inkscape:window-y="-11"
     inkscape:window-maximized="1" />
  <metadata
     id="metadata2350">
    <rdf:RDF>
      <cc:Work
         rdf:about="">
        <dc:format>image/svg+xml</dc:format>
        <dc:type
           rdf:resource="http://purl.org/dc/dcmitype/StillImage" />
        <dc:title></dc:title>
      </cc:Work>
    </rdf:RDF>
  </metadata>
  <g
     inkscape:label="Layer 1"
     inkscape:groupmode="layer"
     id="layer1"
     transform="translate(186.86101,37.322827)">
    <rect
       style="font-style:normal;font-variant:normal;font-weight:normal;font-stretch:normal;font-size:32.69683075px;line-height:1.25;font-family:Clip;-inkscape-font-specification:Clip;letter-spacing:0px;word-spacing:0px;opacity:1;fill:#3b4252;fill-opacity:1;stroke:none;stroke-width:7.55251694;stroke-linejoin:round;stroke-miterlimit:4;stroke-dasharray:none;stroke-dashoffset:3779.52758789;stroke-opacity:1"
       id="rect1856"
       width="130.42958"
       height="36.963707"
       x="-186.86101"
       y="67.82943"
       rx="2.8059335"
       ry="2.8059335" />
    <g
       id="g1870"
       style="font-style:normal;font-variant:normal;font-weight:normal;font-stretch:normal;font-size:32.69683075px;line-height:1.25;font-family:Clip;-inkscape-font-specification:Clip;letter-spacing:0px;word-spacing:0px;fill:#ff0418;fill-opacity:1;stroke:none;stroke-width:0.26458332;filter:url(#filter1248)"
       aria-label="PHYSOC"
       transform="translate(-235.06953,92.101506)">
      <path
         inkscape:connector-curvature="0"
         id="path1858"
         style="fill:#ff0418;fill-opacity:1;stroke-width:0.26458332"
         d="m 59.78027,-17.26063 h 1.24529 q 5.587837,0 7.471736,3.400598 0.862124,1.564595 0.862124,3.19305 v 0.9738804 q 0,4.6937833 -5.571872,6.5617175 -1.54863,0.3672007 -2.921641,0.3672007 h -1.30915 q -1.836004,-0.2873745 -1.836004,-1.5645944 v -9.9623152 q 0,-0.478958 0.702471,-0.590715 0.574749,0 0.654575,0.973881 0,1.117567 -0.06386,1.516698 0.06386,2.2511 0.06386,4.1190346 v 3.0812931 q 0,0.2235135 -0.06386,0.5907142 0,0.4949227 0.814228,0.4949227 0.191583,0 0.494923,0.047896 5.316428,0 7.248223,-3.5123549 0.494923,-1.2772199 0.494923,-2.6023357 0,-4.677818 -4.709749,-5.523976 -1.213359,-0.223514 -2.985502,-0.27141 -4.055173,0.143688 -4.055173,0.542819 l -0.06386,0.319305 V 5.0907193 q -0.09579,0.5428185 -0.542819,0.5428185 h -0.20755 Q 54.958765,5.521781 54.958765,5.0907193 V -15.472522 q 0,-1.165463 1.740212,-1.58056 1.899865,-0.207548 3.081293,-0.207548 z" />
      <path
         inkscape:connector-curvature="0"
         id="path1860"
         style="fill:#ff0418;fill-opacity:1;stroke-width:0.26458332"
         d="m 73.127218,-17.26063 h 0.207549 q 0.606679,0 0.606679,1.037741 V 3.6378816 q 0,0.63861 0.542819,0.63861 h 0.319305 q 0.590714,0 0.590714,-0.9738802 v -8.4296517 q 0,-1.532664 2.059517,-2.1712739 0.431062,-0.1117568 0.925984,-0.1117568 h 0.542819 q 0.94195,0 4.055173,0.702471 0.255444,0.063861 0.702471,0.063861 h 0.542819 q 1.341081,0 1.564594,-0.9259845 V -14.70619 q 0,-2.027587 1.468803,-2.490579 l 0.319305,-0.06386 h 0.478958 q 1.580559,0 1.899864,1.947761 V 5.0907193 q -0.111756,0.5428185 -0.542818,0.5428185 h -0.207548 q -0.60668,0 -0.60668,-1.021776 V -15.249008 q 0,-0.654576 -0.542818,-0.654576 h -0.319305 q -0.590715,0 -0.590715,0.973881 v 7.3599795 q 0,1.7721427 -2.602335,2.2670654 h -0.814228 q -0.989845,0 -4.055173,-0.7024709 l -1.021776,-0.1117568 q -1.644421,0 -1.899865,0.9898455 v 8.0624509 q 0,2.2351349 -1.468803,2.6502314 l -0.319305,0.047896 h -0.478957 q -1.58056,0 -1.899865,-1.9477605 V -16.717811 q 0.111757,-0.542819 0.542818,-0.542819 z" />
      <path
         inkscape:connector-curvature="0"
         id="path1862"
         style="fill:#ff0418;fill-opacity:1;stroke-width:0.26458332"
         d="m 95.302951,-17.196769 q 1.452837,0 2.426717,2.538475 4.677822,8.8926437 4.805542,9.0682614 6.17855,-10.7126824 6.68944,-11.4949794 0.19158,-0.111757 0.33527,-0.111757 h 0.20755 q 0.54281,0.111757 0.54281,0.542819 v 0.207548 q 0,0.175618 -5.61976,9.7707325 -1.67635,3.0014669 -1.9318,3.1291889 -0.19158,0 -0.27141,0.063861 -0.59071,0 -1.45283,-2.107413 L 95.686117,-15.68007 q -0.207549,-0.159653 -0.542819,-0.223514 -0.494923,0 -0.702471,0.750367 0.175618,0.510888 5.715563,10.5370647 0.17561,0.6865057 0.17561,1.0217759 v 8.6371999 q 0,0.3512355 -0.431058,0.5907143 h -0.33527 q -0.510888,0 -0.590714,-0.7503668 v -8.4296516 q 0,-0.7344015 -1.564595,-3.2409457 l -4.214825,-7.7591107 q -0.0479,-0.30334 -0.0479,-0.494923 v -0.367201 q 0,-1.101602 1.516699,-1.788108 z" />
      <path
         inkscape:connector-curvature="0"
         id="path1864"
         style="fill:#ff0418;fill-opacity:1;stroke-width:0.26458332"
         d="m 121.27841,-17.579935 h 0.94195 q 2.53848,0 4.77361,1.293185 l 0.0958,0.383166 v 0.0479 q 0,0.558784 -0.71843,0.654575 -2.47462,-1.085637 -4.598,-1.085637 -4.91729,0 -6.37013,3.448494 -0.33527,1.037741 -0.33527,1.8839 v 0.223513 q 0,2.9695365 3.16112,3.9753472 0.95791,0.1596525 3.87955,0.2714093 3.22498,0.6066795 4.21483,1.7242469 1.66039,1.5486292 1.66039,3.5442854 v 0.60667946 q 0,3.30480664 -3.60815,5.58783724 -2.17127,0.9738803 -4.19886,0.9738803 H 119.171 q -2.53848,0 -4.98116,-1.1814285 -0.67054,-0.702471 -0.67054,-1.2452895 V 3.1589241 q 0,-1.2772199 1.38898,-1.6763512 0.20755,-0.047896 0.49492,-0.047896 0.19158,0 2.55444,0.702471 0.84616,0.1596524 1.70828,0.1596524 h 0.28738 q 3.24094,0 3.76779,-2.65023135 0,-1.02177595 0.60668,-1.02177595 h 0.11176 q 0.55878,0 0.65458,0.70247096 0,2.93760584 -3.25691,4.03920814 -0.95792,0.2714092 -1.99566,0.2714092 h -0.22351 q -1.89987,0 -4.21483,-0.8621235 h -0.11176 q -0.44702,0 -0.44702,0.5428185 0,0.8780887 4.55009,1.341081 5.3324,0 6.92892,-3.71990315 0.22351,-0.67054048 0.33527,-1.88389943 0,-3.51235482 -4.8215,-4.19886062 -3.25692,-0.095791 -4.32659,-0.4310617 -3.83166,-1.4847682 -3.83166,-5.1567754 v -0.175618 q 0,-3.432528 2.93761,-5.428184 2.13934,-1.24529 4.66185,-1.24529 z" />
      <path
         inkscape:connector-curvature="0"
         id="path1866"
         style="fill:#ff0418;fill-opacity:1;stroke-width:0.26458332"
         d="m 141.04339,-17.26063 h 0.95791 q 5.39626,0 8.20614,5.10888 1.37301,3.0333973 1.37301,5.6836287 v 0.5268533 q -0.33527,1.9956561 -1.94776,1.9956561 h -0.20755 q -1.38897,0 -1.94776,-1.6763512 0,-4.5021999 -2.53847,-6.9608489 -1.48477,-1.197393 -3.46446,-1.197393 -3.95938,0 -5.42818,4.1988601 -0.73441,2.2511002 -0.73441,4.1669301 -0.3193,0.3672007 -0.57474,0.3672007 -0.68651,-0.095792 -0.68651,-0.574749 v -0.1117567 q 0,-4.1030691 2.36286,-7.1524322 2.02758,-2.219169 5.01308,-2.219169 5.3324,0 6.99278,6.2583776 0.25545,1.2293242 0.3672,3.1132236 0.27141,0.4789575 0.57475,0.4789575 h 0.20755 q 0.60668,0 0.75037,-0.7982625 0,-3.9274513 -2.31496,-7.1524322 -2.39479,-2.746022 -6.0668,-2.746022 h -0.3672 q -0.0479,0 -0.0479,-0.0479 l -0.0958,0.0479 h -0.38316 q -5.34836,0 -7.67929,5.747489 -0.89405,2.793919 -0.89405,4.6778184 0,3.3207719 1.78811,6.4180303 2.42672,3.4325286 6.48189,3.4325286 h 0.30334 q 0.12772,0 0.22351,0.047896 0.0798,-0.047896 0.20755,-0.047896 h 0.15965 q 4.82151,0 7.35998,-4.53413081 0.39913,-0.63860997 0.95792,-2.36285689 0.3193,-0.2075483 0.52685,-0.2075483 0.62265,0.1436873 0.62265,0.6226448 v 0.047896 q -0.95792,3.6400769 -3.41657,5.5878373 -2.69812,2.1553087 -6.00293,2.1553087 h -0.89406 q -5.22063,0 -7.99859,-4.6778181 -1.58055,-3.0812931 -1.58055,-6.1625863 V -5.893372 q 0,-3.7677988 2.36285,-7.519633 2.93761,-3.847625 7.47174,-3.847625 z" />
      <path
         inkscape:connector-curvature="0"
         id="path1868"
         style="fill:#ff0418;fill-opacity:1;stroke-width:0.26458332"
         d="m 165.94918,-17.26063 h 1.00581 q 2.17128,0 4.69379,1.005811 0.27141,0.271409 0.27141,0.478957 v 0.30334 q -0.22352,0.431062 -0.57475,0.431062 h -0.11176 q -2.55444,-0.957915 -4.85344,-0.957915 -6.41803,0 -9.29177,5.44415 -1.05371,2.2511001 -1.05371,5.3802889 0,3.7039379 2.53848,6.7533005 2.88971,2.7939187 7.16839,2.7939187 2.41076,0 4.53413,-0.7503668 0.11176,-0.1596524 0.11176,-0.2554439 -0.0639,-0.4789575 -0.47896,-0.4789575 -2.17127,0.4310617 -3.57621,0.4310617 h -0.38317 q -5.6517,0 -7.64735,-4.8055401 -0.68651,-1.7561774 -0.68651,-3.8476251 V -5.813546 q 0,-0.4789575 0.68651,-0.574749 0.51089,0 0.63861,0.7822972 v 0.2075482 q 0,5.01308835 3.59218,6.7054048 1.5167,0.6865057 3.36867,0.6865057 h 0.47895 q 1.27722,0 3.36867,-0.4150965 h 0.15965 q 1.80408,0.2235135 1.80408,1.788108 0,1.6284554 -2.79392,1.9956561 -1.4688,0.2714093 -2.58637,0.2714093 h -1.16546 q -4.03921,0 -7.32805,-2.9535712 -3.06533,-3.38463284 -3.06533,-7.5994587 v -1.1016022 q 0,-5.4281847 4.21482,-8.9245747 3.12919,-2.314961 6.96085,-2.314961 z" />
    </g>
    <g
       id="g1884"
       style="font-style:normal;font-variant:normal;font-weight:normal;font-stretch:normal;font-size:32.69683075px;line-height:1.25;font-family:Clip;-inkscape-font-specification:Clip;letter-spacing:0px;word-spacing:0px;fill:#ff0418;fill-opacity:1;stroke:none;stroke-width:0.26458332;filter:url(#filter1204)"
       aria-label="PHYSOC"
       transform="translate(-235.06953,92.101506)">
      <path
         inkscape:connector-curvature="0"
         id="path1872"
         style="fill:#ff0418;fill-opacity:1;stroke-width:0.26458332"
         d="m 59.78027,-17.26063 h 1.24529 q 5.587837,0 7.471736,3.400598 0.862124,1.564595 0.862124,3.19305 v 0.9738804 q 0,4.6937833 -5.571872,6.5617175 -1.54863,0.3672007 -2.921641,0.3672007 h -1.30915 q -1.836004,-0.2873745 -1.836004,-1.5645944 v -9.9623152 q 0,-0.478958 0.702471,-0.590715 0.574749,0 0.654575,0.973881 0,1.117567 -0.06386,1.516698 0.06386,2.2511 0.06386,4.1190346 v 3.0812931 q 0,0.2235135 -0.06386,0.5907142 0,0.4949227 0.814228,0.4949227 0.191583,0 0.494923,0.047896 5.316428,0 7.248223,-3.5123549 0.494923,-1.2772199 0.494923,-2.6023357 0,-4.677818 -4.709749,-5.523976 -1.213359,-0.223514 -2.985502,-0.27141 -4.055173,0.143688 -4.055173,0.542819 l -0.06386,0.319305 V 5.0907193 q -0.09579,0.5428185 -0.542819,0.5428185 h -0.20755 Q 54.958765,5.521781 54.958765,5.0907193 V -15.472522 q 0,-1.165463 1.740212,-1.58056 1.899865,-0.207548 3.081293,-0.207548 z" />
      <path
         inkscape:connector-curvature="0"
         id="path1874"
         style="fill:#ff0418;fill-opacity:1;stroke-width:0.26458332"
         d="m 73.127218,-17.26063 h 0.207549 q 0.606679,0 0.606679,1.037741 V 3.6378816 q 0,0.63861 0.542819,0.63861 h 0.319305 q 0.590714,0 0.590714,-0.9738802 v -8.4296517 q 0,-1.532664 2.059517,-2.1712739 0.431062,-0.1117568 0.925984,-0.1117568 h 0.542819 q 0.94195,0 4.055173,0.702471 0.255444,0.063861 0.702471,0.063861 h 0.542819 q 1.341081,0 1.564594,-0.9259845 V -14.70619 q 0,-2.027587 1.468803,-2.490579 l 0.319305,-0.06386 h 0.478958 q 1.580559,0 1.899864,1.947761 V 5.0907193 q -0.111756,0.5428185 -0.542818,0.5428185 h -0.207548 q -0.60668,0 -0.60668,-1.021776 V -15.249008 q 0,-0.654576 -0.542818,-0.654576 h -0.319305 q -0.590715,0 -0.590715,0.973881 v 7.3599795 q 0,1.7721427 -2.602335,2.2670654 h -0.814228 q -0.989845,0 -4.055173,-0.7024709 l -1.021776,-0.1117568 q -1.644421,0 -1.899865,0.9898455 v 8.0624509 q 0,2.2351349 -1.468803,2.6502314 l -0.319305,0.047896 h -0.478957 q -1.58056,0 -1.899865,-1.9477605 V -16.717811 q 0.111757,-0.542819 0.542818,-0.542819 z" />
      <path
         inkscape:connector-curvature="0"
         id="path1876"
         style="fill:#ff0418;fill-opacity:1;stroke-width:0.26458332"
         d="m 95.302951,-17.196769 q 1.452837,0 2.426717,2.538475 4.677822,8.8926437 4.805542,9.0682614 6.17855,-10.7126824 6.68944,-11.4949794 0.19158,-0.111757 0.33527,-0.111757 h 0.20755 q 0.54281,0.111757 0.54281,0.542819 v 0.207548 q 0,0.175618 -5.61976,9.7707325 -1.67635,3.0014669 -1.9318,3.1291889 -0.19158,0 -0.27141,0.063861 -0.59071,0 -1.45283,-2.107413 L 95.686117,-15.68007 q -0.207549,-0.159653 -0.542819,-0.223514 -0.494923,0 -0.702471,0.750367 0.175618,0.510888 5.715563,10.5370647 0.17561,0.6865057 0.17561,1.0217759 v 8.6371999 q 0,0.3512355 -0.431058,0.5907143 h -0.33527 q -0.510888,0 -0.590714,-0.7503668 v -8.4296516 q 0,-0.7344015 -1.564595,-3.2409457 l -4.214825,-7.7591107 q -0.0479,-0.30334 -0.0479,-0.494923 v -0.367201 q 0,-1.101602 1.516699,-1.788108 z" />
      <path
         inkscape:connector-curvature="0"
         id="path1878"
         style="fill:#ff0418;fill-opacity:1;stroke-width:0.26458332"
         d="m 121.27841,-17.579935 h 0.94195 q 2.53848,0 4.77361,1.293185 l 0.0958,0.383166 v 0.0479 q 0,0.558784 -0.71843,0.654575 -2.47462,-1.085637 -4.598,-1.085637 -4.91729,0 -6.37013,3.448494 -0.33527,1.037741 -0.33527,1.8839 v 0.223513 q 0,2.9695365 3.16112,3.9753472 0.95791,0.1596525 3.87955,0.2714093 3.22498,0.6066795 4.21483,1.7242469 1.66039,1.5486292 1.66039,3.5442854 v 0.60667946 q 0,3.30480664 -3.60815,5.58783724 -2.17127,0.9738803 -4.19886,0.9738803 H 119.171 q -2.53848,0 -4.98116,-1.1814285 -0.67054,-0.702471 -0.67054,-1.2452895 V 3.1589241 q 0,-1.2772199 1.38898,-1.6763512 0.20755,-0.047896 0.49492,-0.047896 0.19158,0 2.55444,0.702471 0.84616,0.1596524 1.70828,0.1596524 h 0.28738 q 3.24094,0 3.76779,-2.65023135 0,-1.02177595 0.60668,-1.02177595 h 0.11176 q 0.55878,0 0.65458,0.70247096 0,2.93760584 -3.25691,4.03920814 -0.95792,0.2714092 -1.99566,0.2714092 h -0.22351 q -1.89987,0 -4.21483,-0.8621235 h -0.11176 q -0.44702,0 -0.44702,0.5428185 0,0.8780887 4.55009,1.341081 5.3324,0 6.92892,-3.71990315 0.22351,-0.67054048 0.33527,-1.88389943 0,-3.51235482 -4.8215,-4.19886062 -3.25692,-0.095791 -4.32659,-0.4310617 -3.83166,-1.4847682 -3.83166,-5.1567754 v -0.175618 q 0,-3.432528 2.93761,-5.428184 2.13934,-1.24529 4.66185,-1.24529 z" />
      <path
         inkscape:connector-curvature="0"
         id="path1880"
         style="fill:#ff0418;fill-opacity:1;stroke-width:0.26458332"
         d="m 141.04339,-17.26063 h 0.95791 q 5.39626,0 8.20614,5.10888 1.37301,3.0333973 1.37301,5.6836287 v 0.5268533 q -0.33527,1.9956561 -1.94776,1.9956561 h -0.20755 q -1.38897,0 -1.94776,-1.6763512 0,-4.5021999 -2.53847,-6.9608489 -1.48477,-1.197393 -3.46446,-1.197393 -3.95938,0 -5.42818,4.1988601 -0.73441,2.2511002 -0.73441,4.1669301 -0.3193,0.3672007 -0.57474,0.3672007 -0.68651,-0.095792 -0.68651,-0.574749 v -0.1117567 q 0,-4.1030691 2.36286,-7.1524322 2.02758,-2.219169 5.01308,-2.219169 5.3324,0 6.99278,6.2583776 0.25545,1.2293242 0.3672,3.1132236 0.27141,0.4789575 0.57475,0.4789575 h 0.20755 q 0.60668,0 0.75037,-0.7982625 0,-3.9274513 -2.31496,-7.1524322 -2.39479,-2.746022 -6.0668,-2.746022 h -0.3672 q -0.0479,0 -0.0479,-0.0479 l -0.0958,0.0479 h -0.38316 q -5.34836,0 -7.67929,5.747489 -0.89405,2.793919 -0.89405,4.6778184 0,3.3207719 1.78811,6.4180303 2.42672,3.4325286 6.48189,3.4325286 h 0.30334 q 0.12772,0 0.22351,0.047896 0.0798,-0.047896 0.20755,-0.047896 h 0.15965 q 4.82151,0 7.35998,-4.53413081 0.39913,-0.63860997 0.95792,-2.36285689 0.3193,-0.2075483 0.52685,-0.2075483 0.62265,0.1436873 0.62265,0.6226448 v 0.047896 q -0.95792,3.6400769 -3.41657,5.5878373 -2.69812,2.1553087 -6.00293,2.1553087 h -0.89406 q -5.22063,0 -7.99859,-4.6778181 -1.58055,-3.0812931 -1.58055,-6.1625863 V -5.893372 q 0,-3.7677988 2.36285,-7.519633 2.93761,-3.847625 7.47174,-3.847625 z" />
      <path
         inkscape:connector-curvature="0"
         id="path1882"
         style="fill:#ff0418;fill-opacity:1;stroke-width:0.26458332"
         d="m 165.94918,-17.26063 h 1.00581 q 2.17128,0 4.69379,1.005811 0.27141,0.271409 0.27141,0.478957 v 0.30334 q -0.22352,0.431062 -0.57475,0.431062 h -0.11176 q -2.55444,-0.957915 -4.85344,-0.957915 -6.41803,0 -9.29177,5.44415 -1.05371,2.2511001 -1.05371,5.3802889 0,3.7039379 2.53848,6.7533005 2.88971,2.7939187 7.16839,2.7939187 2.41076,0 4.53413,-0.7503668 0.11176,-0.1596524 0.11176,-0.2554439 -0.0639,-0.4789575 -0.47896,-0.4789575 -2.17127,0.4310617 -3.57621,0.4310617 h -0.38317 q -5.6517,0 -7.64735,-4.8055401 -0.68651,-1.7561774 -0.68651,-3.8476251 V -5.813546 q 0,-0.4789575 0.68651,-0.574749 0.51089,0 0.63861,0.7822972 v 0.2075482 q 0,5.01308835 3.59218,6.7054048 1.5167,0.6865057 3.36867,0.6865057 h 0.47895 q 1.27722,0 3.36867,-0.4150965 h 0.15965 q 1.80408,0.2235135 1.80408,1.788108 0,1.6284554 -2.79392,1.9956561 -1.4688,0.2714093 -2.58637,0.2714093 h -1.16546 q -4.03921,0 -7.32805,-2.9535712 -3.06533,-3.38463284 -3.06533,-7.5994587 v -1.1016022 q 0,-5.4281847 4.21482,-8.9245747 3.12919,-2.314961 6.96085,-2.314961 z" />
    </g>
    <path
       d="m -175.28933,74.840946 h 1.2453 q 5.5879,0 7.4718,3.4006 0.8621,1.56461 0.8621,3.193 v 0.9739 q 0,4.6938 -5.5719,6.56171 -1.5486,0.36719 -2.9217,0.36719 h -1.3091 q -1.836,-0.2873 -1.836,-1.5646 v -9.9623 q 0,-0.4789 0.7024,-0.5907 0.5748,0 0.6546,0.9739 0,1.1175 -0.063,1.5167 0.063,2.2511 0.063,4.119 v 3.0813 q 0,0.2235 -0.063,0.59071 0,0.49489 0.8143,0.49489 0.1916,0 0.4949,0.048 5.3165,0 7.2482,-3.5124 0.495,-1.27719 0.495,-2.6022 0,-4.6779 -4.7098,-5.524 -1.2134,-0.2236 -2.9855,-0.2714 -4.0552,0.1436 -4.0552,0.54281 l -0.063,0.31929 v 20.196 q -0.096,0.54281 -0.5427,0.54281 h -0.2077 q -0.5428,-0.11171 -0.5428,-0.54281 v -20.56319 q 0,-1.16551 1.7402,-1.58061 1.8999,-0.2075 3.0813,-0.2075 z"
       style="font-style:normal;font-variant:normal;font-weight:normal;font-stretch:normal;font-size:32.69683075px;line-height:1.25;font-family:Clip;-inkscape-font-specification:Clip;letter-spacing:0px;word-spacing:0px;fill:#ffe7e9;fill-opacity:1;stroke:none;stroke-width:0.26458332"
       id="path1886"
       inkscape:connector-curvature="0" />
    <path
       d="m -161.94233,74.840946 h 0.2075 q 0.6067,0 0.6067,1.0377 v 19.8608 q 0,0.6386 0.5428,0.6386 h 0.3193 q 0.5907,0 0.5907,-0.97389 v -8.42971 q 0,-1.5326 2.0595,-2.1712 0.4311,-0.1118 0.926,-0.1118 h 0.5429 q 0.9419,0 4.0551,0.7025 0.2555,0.064 0.7025,0.064 h 0.5428 q 1.3411,0 1.5646,-0.926 v -7.1365 q 0,-2.02749 1.4688,-2.4906 l 0.3193,-0.064 h 0.479 q 1.5805,0 1.8998,1.9478 v 20.4035 q -0.1118,0.5429 -0.5428,0.5429 h -0.2076 q -0.6066,0 -0.6066,-1.02179 v -19.86081 q 0,-0.6545 -0.5428,-0.6545 h -0.3194 q -0.5907,0 -0.5907,0.9738 v 7.36 q 0,1.7722 -2.6023,2.267 h -0.8142 q -0.9899,0 -4.0552,-0.7024 l -1.0217,-0.1118 q -1.6445,0 -1.8999,0.9899 v 8.06241 q 0,2.23509 -1.4688,2.65029 l -0.3193,0.048 h -0.479 q -1.5806,0 -1.8999,-1.94781 v -20.4036 q 0.1118,-0.5428 0.5429,-0.5428 z"
       style="font-style:normal;font-variant:normal;font-weight:normal;font-stretch:normal;font-size:32.69683075px;line-height:1.25;font-family:Clip;-inkscape-font-specification:Clip;letter-spacing:0px;word-spacing:0px;fill:#ffe7e9;fill-opacity:1;stroke:none;stroke-width:0.26458332"
       id="path1888"
       inkscape:connector-curvature="0" />
    <path
       d="m -139.76663,74.904846 q 1.4528,0 2.4267,2.5384 4.6778,8.8926 4.8055,9.0683 6.1786,-10.7127 6.6895,-11.495 0.1916,-0.1117 0.3352,-0.1117 h 0.2076 q 0.5428,0.1117 0.5428,0.5428 v 0.2075 q 0,0.1756 -5.6197,9.7707 -1.6764,3.0015 -1.9319,3.1292 -0.1915,0 -0.2714,0.064 -0.5907,0 -1.4528,-2.1075 l -5.3484,-10.09 q -0.2075,-0.1596 -0.5428,-0.2235 -0.4949,0 -0.7025,0.7504 0.1757,0.5109 5.7157,10.537 0.1755,0.6865 0.1755,1.0218 v 8.6372 q 0,0.35131 -0.431,0.59071 h -0.3353 q -0.5109,0 -0.5907,-0.75041 v -8.4296 q 0,-0.7344 -1.5646,-3.241 l -4.2149,-7.759 q -0.048,-0.3034 -0.048,-0.495 v -0.3672 q 0,-1.1016 1.5167,-1.7881 z"
       style="font-style:normal;font-variant:normal;font-weight:normal;font-stretch:normal;font-size:32.69683075px;line-height:1.25;font-family:Clip;-inkscape-font-specification:Clip;letter-spacing:0px;word-spacing:0px;fill:#ffe7e9;fill-opacity:1;stroke:none;stroke-width:0.26458332"
       id="path1890"
       inkscape:connector-curvature="0" />
    <path
       d="m -113.79123,74.521646 h 0.942 q 2.5385,0 4.7736,1.2932 l 0.096,0.3831 v 0.048 q 0,0.5587 -0.7184,0.6546 -2.4746,-1.0856 -4.598,-1.0856 -4.9173,0 -6.3702,3.4484 -0.3352,1.0378 -0.3352,1.8839 v 0.2235 q 0,2.9696 3.1611,3.9754 0.9579,0.1596 3.8796,0.2714 3.2249,0.6067 4.2148,1.7242 1.6604,1.5487 1.6604,3.5444 v 0.6066 q 0,3.30481 -3.6082,5.58781 -2.1713,0.97389 -4.1988,0.97389 h -1.0059 q -2.5385,0 -4.9811,-1.1814 -0.6705,-0.70249 -0.6705,-1.2453 v -0.36719 q 0,-1.27721 1.3889,-1.67631 0.2076,-0.048 0.4949,-0.048 0.1917,0 2.5545,0.7024 0.8461,0.1597 1.7083,0.1597 h 0.2874 q 3.2409,0 3.7677,-2.6502 0,-1.0218 0.6067,-1.0218 h 0.1118 q 0.5587,0 0.6546,0.7025 0,2.9375 -3.257,4.0392 -0.9578,0.2714 -1.9956,0.2714 h -0.2235 q -1.8999,0 -4.2149,-0.8621 h -0.1117 q -0.447,0 -0.447,0.5428 0,0.878 4.55,1.3411 5.3325,0 6.929,-3.7199 0.2235,-0.6706 0.3353,-1.8839 0,-3.5124 -4.8216,-4.1989 -3.2569,-0.096 -4.3265,-0.4311 -3.8317,-1.4847 -3.8317,-5.1567 v -0.1757 q 0,-3.4325 2.9376,-5.4281 2.1394,-1.2453 4.6618,-1.2453 z"
       style="font-style:normal;font-variant:normal;font-weight:normal;font-stretch:normal;font-size:32.69683075px;line-height:1.25;font-family:Clip;-inkscape-font-specification:Clip;letter-spacing:0px;word-spacing:0px;fill:#ffe7e9;fill-opacity:1;stroke:none;stroke-width:0.26458332"
       id="path1892"
       inkscape:connector-curvature="0" />
    <path
       d="m -94.026229,74.840946 h 0.958001 q 5.396201,0 8.2061,5.10881 1.372999,3.03339 1.372999,5.6837 v 0.52679 q -0.335298,1.9957 -1.947799,1.9957 h -0.207499 q -1.389002,0 -1.947802,-1.6764 0,-4.5021 -2.5385,-6.9608 -1.484698,-1.1974 -3.464398,-1.1974 -3.9594,0 -5.4282,4.1989 -0.734401,2.25111 -0.734401,4.1668 -0.319302,0.3673 -0.574802,0.3673 -0.6864,-0.096 -0.6864,-0.5748 v -0.1118 q 0,-4.103 2.362803,-7.1523 2.0276,-2.2192 5.0131,-2.2192 5.332399,0 6.9928,6.2583 0.255399,1.2294 0.367199,3.1132 0.271399,0.479 0.574701,0.479 h 0.2075 q 0.6067,0 0.750498,-0.7983 0,-3.9274 -2.314998,-7.1523 -2.394802,-2.7461 -6.066801,-2.7461 h -0.367199 q -0.048,0 -0.048,-0.048 l -0.096,0.048 h -0.383199 q -5.3483,0 -7.679304,5.7475 -0.894,2.7939 -0.894,4.6779 0,3.3207 1.7881,6.418 2.426705,3.4325 6.481905,3.4325 h 0.303299 q 0.127799,0 0.2236,0.048 0.08,-0.048 0.207499,-0.048 h 0.159602 q 4.8216,0 7.359999,-4.5342 0.399201,-0.6386 0.957901,-2.36279 0.319299,-0.20751 0.526899,-0.20751 0.622699,0.1436 0.622699,0.6226 v 0.048 q -0.9579,3.64009 -3.416599,5.58779 -2.698199,2.15531 -6.003001,2.15531 h -0.893998 q -5.2206,0 -7.998605,-4.67781 -1.5806,-3.0813 -1.5806,-6.1626 v -0.6865 q 0,-3.7678 2.3629,-7.5197 2.937603,-3.8475 7.471704,-3.8475 z"
       style="font-style:normal;font-variant:normal;font-weight:normal;font-stretch:normal;font-size:32.69683075px;line-height:1.25;font-family:Clip;-inkscape-font-specification:Clip;letter-spacing:0px;word-spacing:0px;fill:#ffe7e9;fill-opacity:1;stroke:none;stroke-width:0.26458332"
       id="path1894"
       inkscape:connector-curvature="0" />
    <path
       d="m -69.120428,74.840946 h 1.005901 q 2.1712,0 4.6937,1.0058 0.271399,0.2714 0.271399,0.4789 v 0.3034 q -0.223499,0.4311 -0.574799,0.4311 h -0.111702 q -2.554399,-0.958 -4.853398,-0.958 -6.418101,0 -9.291801,5.4442 -1.053701,2.2511 -1.053701,5.3803 0,3.7039 2.5385,6.75331 2.8897,2.79389 7.168402,2.79389 2.4107,0 4.534101,-0.7504 0.111799,-0.1596 0.111799,-0.2554 -0.064,-0.479 -0.479001,-0.479 -2.171301,0.4311 -3.576199,0.4311 h -0.383201 q -5.651701,0 -7.6473,-4.8056 -0.686501,-1.7562 -0.686501,-3.8476 v -0.4789 q 0,-0.479 0.686501,-0.5748 0.5108,0 0.638601,0.7823 v 0.2075 q 0,5.0131 3.592198,6.7054 1.516602,0.6865 3.368601,0.6865 h 0.479001 q 1.2772,0 3.368699,-0.41499 h 0.1596 q 1.804101,0.22349 1.804101,1.78809 0,1.6284 -2.794,1.9956 -1.4687,0.2714 -2.5863,0.2714 h -1.1655 q -4.0392,0 -7.328101,-2.9535 -3.065301,-3.38469 -3.065301,-7.5995 v -1.10159 q 0,-5.42821 4.214902,-8.92461 3.129101,-2.3149 6.960799,-2.3149 z"
       style="font-style:normal;font-variant:normal;font-weight:normal;font-stretch:normal;font-size:32.69683075px;line-height:1.25;font-family:Clip;-inkscape-font-specification:Clip;letter-spacing:0px;word-spacing:0px;fill:#ffe7e9;fill-opacity:1;stroke:none;stroke-width:0.26458332"
       id="path1896"
       inkscape:connector-curvature="0" />
    <rect
       ry="2.8059335"
       rx="2.8059335"
       y="68.207344"
       x="-29.285078"
       height="36.963707"
       width="173.70786"
       id="rect1898"
       style="font-style:normal;font-variant:normal;font-weight:normal;font-stretch:normal;font-size:32.69683075px;line-height:1.25;font-family:Clip;-inkscape-font-specification:Clip;letter-spacing:0px;word-spacing:0px;opacity:1;fill:#3b4252;fill-opacity:1;stroke:none;stroke-width:7.55251694;stroke-linejoin:round;stroke-miterlimit:4;stroke-dasharray:none;stroke-dashoffset:3779.52758789;stroke-opacity:1" />
    <text
       xml:space="preserve"
       style="font-style:normal;font-variant:normal;font-weight:normal;font-stretch:normal;font-size:115.85437775px;line-height:1.25;font-family:Abandoned;-inkscape-font-specification:Abandoned;letter-spacing:0px;word-spacing:0px;fill:#cf4e1c;fill-opacity:1;stroke:none;stroke-width:2.89635968"
       x="-177.63615"
       y="45.890938"
       id="text1902-8"><tspan
         sodipodi:role="line"
         id="tspan1900-8"
         x="-177.63615"
         y="45.890938"
         style="font-style:normal;font-variant:normal;font-weight:normal;font-stretch:normal;font-family:'Century Gothic';-inkscape-font-specification:'Century Gothic';fill:#cf4e1c;fill-opacity:1;stroke-width:2.89635968">7</tspan></text>
    <text
       xml:space="preserve"
       style="font-style:normal;font-variant:normal;font-weight:normal;font-stretch:normal;font-size:54.27062988px;line-height:1.25;font-family:Abandoned;-inkscape-font-specification:Abandoned;letter-spacing:0px;word-spacing:0px;fill:#ffffff;fill-opacity:1;stroke:none;stroke-width:1.35676575"
       x="-97.246986"
       y="41.726646"
       id="text1906-3"><tspan
         sodipodi:role="line"
         id="tspan1904-6"
         x="-97.246986"
         y="41.726646"
         style="font-style:normal;font-variant:normal;font-weight:normal;font-stretch:normal;font-family:'Century Gothic';-inkscape-font-specification:'Century Gothic';fill:#ffffff;fill-opacity:1;stroke-width:1.35676575">SCIENCE</tspan></text>
    <text
       xml:space="preserve"
       style="font-style:normal;font-variant:normal;font-weight:normal;font-stretch:normal;font-size:37.42953873px;line-height:1.25;font-family:Abandoned;-inkscape-font-specification:Abandoned;letter-spacing:0px;word-spacing:0px;fill:#ffffff;fill-opacity:1;stroke:none;stroke-width:0.9357385"
       x="64.363113"
       y="-7.1659479"
       id="text1910-2"><tspan
         sodipodi:role="line"
         id="tspan1908-2"
         x="64.363113"
         y="-7.1659479"
         style="font-style:normal;font-variant:normal;font-weight:normal;font-stretch:normal;font-family:'Century Gothic';-inkscape-font-specification:'Century Gothic';fill:#ffffff;fill-opacity:1;stroke-width:0.9357385">OF</tspan></text>
    <text
       id="text1914-4"
       y="-8.1610651"
       x="-97.02507"
       style="font-style:normal;font-variant:normal;font-weight:normal;font-stretch:normal;font-size:37.42953873px;line-height:1.25;font-family:Abandoned;-inkscape-font-specification:Abandoned;letter-spacing:0px;word-spacing:0px;fill:#ffffff;fill-opacity:1;stroke:none;stroke-width:0.9357385"
       xml:space="preserve"><tspan
         style="font-style:normal;font-variant:normal;font-weight:normal;font-stretch:normal;font-family:'Century Gothic';-inkscape-font-specification:'Century Gothic';fill:#ffffff;fill-opacity:1;stroke-width:0.9357385"
         y="-8.1610651"
         x="-97.02507"
         id="tspan1912-8"
         sodipodi:role="line">MINUTES</tspan></text>
    <g
       transform="translate(385.30033,-2805.3595)"
       id="g1935">
      <g
         style="opacity:0.7;fill:#2704ff;fill-opacity:1;filter:url(#filter1248-4)"
         transform="translate(-461.86701,2883.7319)"
         id="g1921">
        <text
           id="text1918"
           y="18.949717"
           x="53.362244"
           style="font-style:normal;font-variant:normal;font-weight:normal;font-stretch:normal;font-size:32.69683075px;line-height:1.25;font-family:Clip;-inkscape-font-specification:Clip;letter-spacing:0px;word-spacing:0px;fill:#2704ff;fill-opacity:1;stroke:none;stroke-width:0.26458332"
           xml:space="preserve"><tspan
             style="fill:#2704ff;fill-opacity:1;stroke-width:0.26458332"
             y="18.949717"
             x="53.362244"
             id="tspan1916"
             sodipodi:role="line">ASTROSOC</tspan></text>
      </g>
      <g
         id="g1928"
         transform="translate(-461.86701,2872.1017)"
         style="opacity:0.9;fill:#2704ff;fill-opacity:1;filter:url(#filter1204-7)">
        <text
           xml:space="preserve"
           style="font-style:normal;font-variant:normal;font-weight:normal;font-stretch:normal;font-size:32.69683075px;line-height:1.25;font-family:Clip;-inkscape-font-specification:Clip;letter-spacing:0px;word-spacing:0px;fill:#2704ff;fill-opacity:1;stroke:none;stroke-width:0.26458332"
           x="53.36224"
           y="30.579966"
           id="text1925"><tspan
             sodipodi:role="line"
             id="tspan1923"
             x="53.36224"
             y="30.579966"
             style="fill:#2704ff;fill-opacity:1;stroke-width:0.26458332">ASTROSOC</tspan></text>
      </g>
      <text
         id="text1932"
         y="2902.6816"
         x="-408.50476"
         style="font-style:normal;font-variant:normal;font-weight:normal;font-stretch:normal;font-size:32.69683075px;line-height:1.25;font-family:Clip;-inkscape-font-specification:Clip;letter-spacing:0px;word-spacing:0px;fill:#eae7ff;fill-opacity:1;stroke:none;stroke-width:0.26458332"
         xml:space="preserve"><tspan
           style="fill:#eae7ff;fill-opacity:1;stroke-width:0.26458332"
           y="2902.6816"
           x="-408.50476"
           id="tspan1930"
           sodipodi:role="line">ASTROSOC</tspan></text>
    </g>
  </g>
</svg>
