<?xml version="1.0" encoding="UTF-8" standalone="no"?>
<!-- Created with Inkscape (http://www.inkscape.org/) -->

<svg
   xmlns:dc="http://purl.org/dc/elements/1.1/"
   xmlns:cc="http://creativecommons.org/ns#"
   xmlns:rdf="http://www.w3.org/1999/02/22-rdf-syntax-ns#"
   xmlns:svg="http://www.w3.org/2000/svg"
   xmlns="http://www.w3.org/2000/svg"
   xmlns:sodipodi="http://sodipodi.sourceforge.net/DTD/sodipodi-0.dtd"
   xmlns:inkscape="http://www.inkscape.org/namespaces/inkscape"
   width="335.09015mm"
   height="142.49388mm"
   viewBox="0 0 335.09015 142.49388"
   version="1.1"
   id="svg2353"
   inkscape:version="0.92.4 (5da689c313, 2019-01-14)"
   sodipodi:docname="7MOST2.svg">
  <defs
     id="defs2347">
    <filter
       inkscape:collect="always"
       style="color-interpolation-filters:sRGB"
       id="filter1248-4"
       x="-0.057657655"
       width="1.1153153"
       y="-0.28656718"
       height="1.5731343">
      <feGaussianBlur
         inkscape:collect="always"
         stdDeviation="2.809884"
         id="feGaussianBlur1250-0" />
    </filter>
    <filter
       inkscape:collect="always"
       style="color-interpolation-filters:sRGB"
       id="filter1204-7"
       x="-0.014414414"
       width="1.0288289"
       y="-0.071641795"
       height="1.1432836">
      <feGaussianBlur
         inkscape:collect="always"
         stdDeviation="0.70247099"
         id="feGaussianBlur1206-8" />
    </filter>
    <filter
       inkscape:collect="always"
       style="color-interpolation-filters:sRGB"
       id="filter1204"
       x="-0.014414414"
       width="1.0288289"
       y="-0.071641795"
       height="1.1432836">
      <feGaussianBlur
         inkscape:collect="always"
         stdDeviation="0.70247099"
         id="feGaussianBlur1206" />
    </filter>
    <filter
       inkscape:collect="always"
       style="color-interpolation-filters:sRGB"
       id="filter1248"
       x="-0.057657655"
       width="1.1153153"
       y="-0.28656718"
       height="1.5731343">
      <feGaussianBlur
         inkscape:collect="always"
         stdDeviation="2.809884"
         id="feGaussianBlur1250" />
    </filter>
  </defs>
  <sodipodi:namedview
     id="base"
     pagecolor="#ffffff"
     bordercolor="#666666"
     borderopacity="1.0"
     inkscape:pageopacity="0.0"
     inkscape:pageshadow="2"
     inkscape:zoom="0.35"
     inkscape:cx="750.58242"
     inkscape:cy="154.97717"
     inkscape:document-units="mm"
     inkscape:current-layer="layer1"
     showgrid="false"
     fit-margin-top="0"
     fit-margin-left="0"
     fit-margin-right="0"
     fit-margin-bottom="0"
     inkscape:window-width="1920"
     inkscape:window-height="986"
     inkscape:window-x="-11"
     inkscape:window-y="-11"
     inkscape:window-maximized="1" />
  <metadata
     id="metadata2350">
    <rdf:RDF>
      <cc:Work
         rdf:about="">
        <dc:format>image/svg+xml</dc:format>
        <dc:type
           rdf:resource="http://purl.org/dc/dcmitype/StillImage" />
        <dc:title />
      </cc:Work>
    </rdf:RDF>
  </metadata>
  <g
     inkscape:label="Layer 1"
     inkscape:groupmode="layer"
     id="layer1"
     transform="translate(186.86101,37.322827)">
    <path
       style="font-style:normal;font-variant:normal;font-weight:normal;font-stretch:normal;font-size:32.69683075px;line-height:1.25;font-family:Clip;-inkscape-font-specification:Clip;letter-spacing:0px;word-spacing:0px;opacity:1;fill:#3b4252;fill-opacity:1;stroke:none;stroke-width:7.55251694;stroke-linejoin:round;stroke-miterlimit:4;stroke-dasharray:none;stroke-dashoffset:3779.52758789;stroke-opacity:1"
       d="m -184.05507,67.82943 h 124.81771 c 1.554487,0 2.805933,1.251446 2.805933,2.805933 V 101.9872 c 0,1.55449 -1.251446,2.80594 -2.805933,2.80594 h -124.81771 c -1.55449,0 -2.80594,-1.25145 -2.80594,-2.80594 V 70.635363 c 0,-1.554487 1.25145,-2.805933 2.80594,-2.805933 z"
       id="rect1856" />
    <g
       id="g1870"
       style="font-style:normal;font-variant:normal;font-weight:normal;font-stretch:normal;font-size:32.69683075px;line-height:1.25;font-family:Clip;-inkscape-font-specification:Clip;letter-spacing:0px;word-spacing:0px;fill:#ff0418;fill-opacity:1;stroke:none;stroke-width:0.26458332;filter:url(#filter1248)"
       aria-label="PHYSOC"
       transform="translate(-235.06953,92.101506)">
      <path
         inkscape:connector-curvature="0"
         id="path1858"
         style="fill:#ff0418;fill-opacity:1;stroke-width:0.26458332"
         d="m 59.78027,-17.26063 h 1.24529 q 5.587837,0 7.471736,3.400598 0.862124,1.564595 0.862124,3.19305 v 0.9738804 q 0,4.6937833 -5.571872,6.5617175 -1.54863,0.3672007 -2.921641,0.3672007 h -1.30915 q -1.836004,-0.2873745 -1.836004,-1.5645944 v -9.9623152 q 0,-0.478958 0.702471,-0.590715 0.574749,0 0.654575,0.973881 0,1.117567 -0.06386,1.516698 0.06386,2.2511 0.06386,4.1190346 v 3.0812931 q 0,0.2235135 -0.06386,0.5907142 0,0.4949227 0.814228,0.4949227 0.191583,0 0.494923,0.047896 5.316428,0 7.248223,-3.5123549 0.494923,-1.2772199 0.494923,-2.6023357 0,-4.677818 -4.709749,-5.523976 -1.213359,-0.223514 -2.985502,-0.27141 -4.055173,0.143688 -4.055173,0.542819 l -0.06386,0.319305 V 5.0907193 q -0.09579,0.5428185 -0.542819,0.5428185 h -0.20755 Q 54.958765,5.521781 54.958765,5.0907193 V -15.472522 q 0,-1.165463 1.740212,-1.58056 1.899865,-0.207548 3.081293,-0.207548 z" />
      <path
         inkscape:connector-curvature="0"
         id="path1860"
         style="fill:#ff0418;fill-opacity:1;stroke-width:0.26458332"
         d="m 73.127218,-17.26063 h 0.207549 q 0.606679,0 0.606679,1.037741 V 3.6378816 q 0,0.63861 0.542819,0.63861 h 0.319305 q 0.590714,0 0.590714,-0.9738802 v -8.4296517 q 0,-1.532664 2.059517,-2.1712739 0.431062,-0.1117568 0.925984,-0.1117568 h 0.542819 q 0.94195,0 4.055173,0.702471 0.255444,0.063861 0.702471,0.063861 h 0.542819 q 1.341081,0 1.564594,-0.9259845 V -14.70619 q 0,-2.027587 1.468803,-2.490579 l 0.319305,-0.06386 h 0.478958 q 1.580559,0 1.899864,1.947761 V 5.0907193 q -0.111756,0.5428185 -0.542818,0.5428185 h -0.207548 q -0.60668,0 -0.60668,-1.021776 V -15.249008 q 0,-0.654576 -0.542818,-0.654576 h -0.319305 q -0.590715,0 -0.590715,0.973881 v 7.3599795 q 0,1.7721427 -2.602335,2.2670654 h -0.814228 q -0.989845,0 -4.055173,-0.7024709 l -1.021776,-0.1117568 q -1.644421,0 -1.899865,0.9898455 v 8.0624509 q 0,2.2351349 -1.468803,2.6502314 l -0.319305,0.047896 h -0.478957 q -1.58056,0 -1.899865,-1.9477605 V -16.717811 q 0.111757,-0.542819 0.542818,-0.542819 z" />
      <path
         inkscape:connector-curvature="0"
         id="path1862"
         style="fill:#ff0418;fill-opacity:1;stroke-width:0.26458332"
         d="m 95.302951,-17.196769 q 1.452837,0 2.426717,2.538475 4.677822,8.8926437 4.805542,9.0682614 6.17855,-10.7126824 6.68944,-11.4949794 0.19158,-0.111757 0.33527,-0.111757 h 0.20755 q 0.54281,0.111757 0.54281,0.542819 v 0.207548 q 0,0.175618 -5.61976,9.7707325 -1.67635,3.0014669 -1.9318,3.1291889 -0.19158,0 -0.27141,0.063861 -0.59071,0 -1.45283,-2.107413 L 95.686117,-15.68007 q -0.207549,-0.159653 -0.542819,-0.223514 -0.494923,0 -0.702471,0.750367 0.175618,0.510888 5.715563,10.5370647 0.17561,0.6865057 0.17561,1.0217759 v 8.6371999 q 0,0.3512355 -0.431058,0.5907143 h -0.33527 q -0.510888,0 -0.590714,-0.7503668 v -8.4296516 q 0,-0.7344015 -1.564595,-3.2409457 l -4.214825,-7.7591107 q -0.0479,-0.30334 -0.0479,-0.494923 v -0.367201 q 0,-1.101602 1.516699,-1.788108 z" />
      <path
         inkscape:connector-curvature="0"
         id="path1864"
         style="fill:#ff0418;fill-opacity:1;stroke-width:0.26458332"
         d="m 121.27841,-17.579935 h 0.94195 q 2.53848,0 4.77361,1.293185 l 0.0958,0.383166 v 0.0479 q 0,0.558784 -0.71843,0.654575 -2.47462,-1.085637 -4.598,-1.085637 -4.91729,0 -6.37013,3.448494 -0.33527,1.037741 -0.33527,1.8839 v 0.223513 q 0,2.9695365 3.16112,3.9753472 0.95791,0.1596525 3.87955,0.2714093 3.22498,0.6066795 4.21483,1.7242469 1.66039,1.5486292 1.66039,3.5442854 v 0.60667946 q 0,3.30480664 -3.60815,5.58783724 -2.17127,0.9738803 -4.19886,0.9738803 H 119.171 q -2.53848,0 -4.98116,-1.1814285 -0.67054,-0.702471 -0.67054,-1.2452895 V 3.1589241 q 0,-1.2772199 1.38898,-1.6763512 0.20755,-0.047896 0.49492,-0.047896 0.19158,0 2.55444,0.702471 0.84616,0.1596524 1.70828,0.1596524 h 0.28738 q 3.24094,0 3.76779,-2.65023135 0,-1.02177595 0.60668,-1.02177595 h 0.11176 q 0.55878,0 0.65458,0.70247096 0,2.93760584 -3.25691,4.03920814 -0.95792,0.2714092 -1.99566,0.2714092 h -0.22351 q -1.89987,0 -4.21483,-0.8621235 h -0.11176 q -0.44702,0 -0.44702,0.5428185 0,0.8780887 4.55009,1.341081 5.3324,0 6.92892,-3.71990315 0.22351,-0.67054048 0.33527,-1.88389943 0,-3.51235482 -4.8215,-4.19886062 -3.25692,-0.095791 -4.32659,-0.4310617 -3.83166,-1.4847682 -3.83166,-5.1567754 v -0.175618 q 0,-3.432528 2.93761,-5.428184 2.13934,-1.24529 4.66185,-1.24529 z" />
      <path
         inkscape:connector-curvature="0"
         id="path1866"
         style="fill:#ff0418;fill-opacity:1;stroke-width:0.26458332"
         d="m 141.04339,-17.26063 h 0.95791 q 5.39626,0 8.20614,5.10888 1.37301,3.0333973 1.37301,5.6836287 v 0.5268533 q -0.33527,1.9956561 -1.94776,1.9956561 h -0.20755 q -1.38897,0 -1.94776,-1.6763512 0,-4.5021999 -2.53847,-6.9608489 -1.48477,-1.197393 -3.46446,-1.197393 -3.95938,0 -5.42818,4.1988601 -0.73441,2.2511002 -0.73441,4.1669301 -0.3193,0.3672007 -0.57474,0.3672007 -0.68651,-0.095792 -0.68651,-0.574749 v -0.1117567 q 0,-4.1030691 2.36286,-7.1524322 2.02758,-2.219169 5.01308,-2.219169 5.3324,0 6.99278,6.2583776 0.25545,1.2293242 0.3672,3.1132236 0.27141,0.4789575 0.57475,0.4789575 h 0.20755 q 0.60668,0 0.75037,-0.7982625 0,-3.9274513 -2.31496,-7.1524322 -2.39479,-2.746022 -6.0668,-2.746022 h -0.3672 q -0.0479,0 -0.0479,-0.0479 l -0.0958,0.0479 h -0.38316 q -5.34836,0 -7.67929,5.747489 -0.89405,2.793919 -0.89405,4.6778184 0,3.3207719 1.78811,6.4180303 2.42672,3.4325286 6.48189,3.4325286 h 0.30334 q 0.12772,0 0.22351,0.047896 0.0798,-0.047896 0.20755,-0.047896 h 0.15965 q 4.82151,0 7.35998,-4.53413081 0.39913,-0.63860997 0.95792,-2.36285689 0.3193,-0.2075483 0.52685,-0.2075483 0.62265,0.1436873 0.62265,0.6226448 v 0.047896 q -0.95792,3.6400769 -3.41657,5.5878373 -2.69812,2.1553087 -6.00293,2.1553087 h -0.89406 q -5.22063,0 -7.99859,-4.6778181 -1.58055,-3.0812931 -1.58055,-6.1625863 V -5.893372 q 0,-3.7677988 2.36285,-7.519633 2.93761,-3.847625 7.47174,-3.847625 z" />
      <path
         inkscape:connector-curvature="0"
         id="path1868"
         style="fill:#ff0418;fill-opacity:1;stroke-width:0.26458332"
         d="m 165.94918,-17.26063 h 1.00581 q 2.17128,0 4.69379,1.005811 0.27141,0.271409 0.27141,0.478957 v 0.30334 q -0.22352,0.431062 -0.57475,0.431062 h -0.11176 q -2.55444,-0.957915 -4.85344,-0.957915 -6.41803,0 -9.29177,5.44415 -1.05371,2.2511001 -1.05371,5.3802889 0,3.7039379 2.53848,6.7533005 2.88971,2.7939187 7.16839,2.7939187 2.41076,0 4.53413,-0.7503668 0.11176,-0.1596524 0.11176,-0.2554439 -0.0639,-0.4789575 -0.47896,-0.4789575 -2.17127,0.4310617 -3.57621,0.4310617 h -0.38317 q -5.6517,0 -7.64735,-4.8055401 -0.68651,-1.7561774 -0.68651,-3.8476251 V -5.813546 q 0,-0.4789575 0.68651,-0.574749 0.51089,0 0.63861,0.7822972 v 0.2075482 q 0,5.01308835 3.59218,6.7054048 1.5167,0.6865057 3.36867,0.6865057 h 0.47895 q 1.27722,0 3.36867,-0.4150965 h 0.15965 q 1.80408,0.2235135 1.80408,1.788108 0,1.6284554 -2.79392,1.9956561 -1.4688,0.2714093 -2.58637,0.2714093 h -1.16546 q -4.03921,0 -7.32805,-2.9535712 -3.06533,-3.38463284 -3.06533,-7.5994587 v -1.1016022 q 0,-5.4281847 4.21482,-8.9245747 3.12919,-2.314961 6.96085,-2.314961 z" />
    </g>
    <g
       id="g1884"
       style="font-style:normal;font-variant:normal;font-weight:normal;font-stretch:normal;font-size:32.69683075px;line-height:1.25;font-family:Clip;-inkscape-font-specification:Clip;letter-spacing:0px;word-spacing:0px;fill:#ff0418;fill-opacity:1;stroke:none;stroke-width:0.26458332;filter:url(#filter1204)"
       aria-label="PHYSOC"
       transform="translate(-235.06953,92.101506)">
      <path
         inkscape:connector-curvature="0"
         id="path1872"
         style="fill:#ff0418;fill-opacity:1;stroke-width:0.26458332"
         d="m 59.78027,-17.26063 h 1.24529 q 5.587837,0 7.471736,3.400598 0.862124,1.564595 0.862124,3.19305 v 0.9738804 q 0,4.6937833 -5.571872,6.5617175 -1.54863,0.3672007 -2.921641,0.3672007 h -1.30915 q -1.836004,-0.2873745 -1.836004,-1.5645944 v -9.9623152 q 0,-0.478958 0.702471,-0.590715 0.574749,0 0.654575,0.973881 0,1.117567 -0.06386,1.516698 0.06386,2.2511 0.06386,4.1190346 v 3.0812931 q 0,0.2235135 -0.06386,0.5907142 0,0.4949227 0.814228,0.4949227 0.191583,0 0.494923,0.047896 5.316428,0 7.248223,-3.5123549 0.494923,-1.2772199 0.494923,-2.6023357 0,-4.677818 -4.709749,-5.523976 -1.213359,-0.223514 -2.985502,-0.27141 -4.055173,0.143688 -4.055173,0.542819 l -0.06386,0.319305 V 5.0907193 q -0.09579,0.5428185 -0.542819,0.5428185 h -0.20755 Q 54.958765,5.521781 54.958765,5.0907193 V -15.472522 q 0,-1.165463 1.740212,-1.58056 1.899865,-0.207548 3.081293,-0.207548 z" />
      <path
         inkscape:connector-curvature="0"
         id="path1874"
         style="fill:#ff0418;fill-opacity:1;stroke-width:0.26458332"
         d="m 73.127218,-17.26063 h 0.207549 q 0.606679,0 0.606679,1.037741 V 3.6378816 q 0,0.63861 0.542819,0.63861 h 0.319305 q 0.590714,0 0.590714,-0.9738802 v -8.4296517 q 0,-1.532664 2.059517,-2.1712739 0.431062,-0.1117568 0.925984,-0.1117568 h 0.542819 q 0.94195,0 4.055173,0.702471 0.255444,0.063861 0.702471,0.063861 h 0.542819 q 1.341081,0 1.564594,-0.9259845 V -14.70619 q 0,-2.027587 1.468803,-2.490579 l 0.319305,-0.06386 h 0.478958 q 1.580559,0 1.899864,1.947761 V 5.0907193 q -0.111756,0.5428185 -0.542818,0.5428185 h -0.207548 q -0.60668,0 -0.60668,-1.021776 V -15.249008 q 0,-0.654576 -0.542818,-0.654576 h -0.319305 q -0.590715,0 -0.590715,0.973881 v 7.3599795 q 0,1.7721427 -2.602335,2.2670654 h -0.814228 q -0.989845,0 -4.055173,-0.7024709 l -1.021776,-0.1117568 q -1.644421,0 -1.899865,0.9898455 v 8.0624509 q 0,2.2351349 -1.468803,2.6502314 l -0.319305,0.047896 h -0.478957 q -1.58056,0 -1.899865,-1.9477605 V -16.717811 q 0.111757,-0.542819 0.542818,-0.542819 z" />
      <path
         inkscape:connector-curvature="0"
         id="path1876"
         style="fill:#ff0418;fill-opacity:1;stroke-width:0.26458332"
         d="m 95.302951,-17.196769 q 1.452837,0 2.426717,2.538475 4.677822,8.8926437 4.805542,9.0682614 6.17855,-10.7126824 6.68944,-11.4949794 0.19158,-0.111757 0.33527,-0.111757 h 0.20755 q 0.54281,0.111757 0.54281,0.542819 v 0.207548 q 0,0.175618 -5.61976,9.7707325 -1.67635,3.0014669 -1.9318,3.1291889 -0.19158,0 -0.27141,0.063861 -0.59071,0 -1.45283,-2.107413 L 95.686117,-15.68007 q -0.207549,-0.159653 -0.542819,-0.223514 -0.494923,0 -0.702471,0.750367 0.175618,0.510888 5.715563,10.5370647 0.17561,0.6865057 0.17561,1.0217759 v 8.6371999 q 0,0.3512355 -0.431058,0.5907143 h -0.33527 q -0.510888,0 -0.590714,-0.7503668 v -8.4296516 q 0,-0.7344015 -1.564595,-3.2409457 l -4.214825,-7.7591107 q -0.0479,-0.30334 -0.0479,-0.494923 v -0.367201 q 0,-1.101602 1.516699,-1.788108 z" />
      <path
         inkscape:connector-curvature="0"
         id="path1878"
         style="fill:#ff0418;fill-opacity:1;stroke-width:0.26458332"
         d="m 121.27841,-17.579935 h 0.94195 q 2.53848,0 4.77361,1.293185 l 0.0958,0.383166 v 0.0479 q 0,0.558784 -0.71843,0.654575 -2.47462,-1.085637 -4.598,-1.085637 -4.91729,0 -6.37013,3.448494 -0.33527,1.037741 -0.33527,1.8839 v 0.223513 q 0,2.9695365 3.16112,3.9753472 0.95791,0.1596525 3.87955,0.2714093 3.22498,0.6066795 4.21483,1.7242469 1.66039,1.5486292 1.66039,3.5442854 v 0.60667946 q 0,3.30480664 -3.60815,5.58783724 -2.17127,0.9738803 -4.19886,0.9738803 H 119.171 q -2.53848,0 -4.98116,-1.1814285 -0.67054,-0.702471 -0.67054,-1.2452895 V 3.1589241 q 0,-1.2772199 1.38898,-1.6763512 0.20755,-0.047896 0.49492,-0.047896 0.19158,0 2.55444,0.702471 0.84616,0.1596524 1.70828,0.1596524 h 0.28738 q 3.24094,0 3.76779,-2.65023135 0,-1.02177595 0.60668,-1.02177595 h 0.11176 q 0.55878,0 0.65458,0.70247096 0,2.93760584 -3.25691,4.03920814 -0.95792,0.2714092 -1.99566,0.2714092 h -0.22351 q -1.89987,0 -4.21483,-0.8621235 h -0.11176 q -0.44702,0 -0.44702,0.5428185 0,0.8780887 4.55009,1.341081 5.3324,0 6.92892,-3.71990315 0.22351,-0.67054048 0.33527,-1.88389943 0,-3.51235482 -4.8215,-4.19886062 -3.25692,-0.095791 -4.32659,-0.4310617 -3.83166,-1.4847682 -3.83166,-5.1567754 v -0.175618 q 0,-3.432528 2.93761,-5.428184 2.13934,-1.24529 4.66185,-1.24529 z" />
      <path
         inkscape:connector-curvature="0"
         id="path1880"
         style="fill:#ff0418;fill-opacity:1;stroke-width:0.26458332"
         d="m 141.04339,-17.26063 h 0.95791 q 5.39626,0 8.20614,5.10888 1.37301,3.0333973 1.37301,5.6836287 v 0.5268533 q -0.33527,1.9956561 -1.94776,1.9956561 h -0.20755 q -1.38897,0 -1.94776,-1.6763512 0,-4.5021999 -2.53847,-6.9608489 -1.48477,-1.197393 -3.46446,-1.197393 -3.95938,0 -5.42818,4.1988601 -0.73441,2.2511002 -0.73441,4.1669301 -0.3193,0.3672007 -0.57474,0.3672007 -0.68651,-0.095792 -0.68651,-0.574749 v -0.1117567 q 0,-4.1030691 2.36286,-7.1524322 2.02758,-2.219169 5.01308,-2.219169 5.3324,0 6.99278,6.2583776 0.25545,1.2293242 0.3672,3.1132236 0.27141,0.4789575 0.57475,0.4789575 h 0.20755 q 0.60668,0 0.75037,-0.7982625 0,-3.9274513 -2.31496,-7.1524322 -2.39479,-2.746022 -6.0668,-2.746022 h -0.3672 q -0.0479,0 -0.0479,-0.0479 l -0.0958,0.0479 h -0.38316 q -5.34836,0 -7.67929,5.747489 -0.89405,2.793919 -0.89405,4.6778184 0,3.3207719 1.78811,6.4180303 2.42672,3.4325286 6.48189,3.4325286 h 0.30334 q 0.12772,0 0.22351,0.047896 0.0798,-0.047896 0.20755,-0.047896 h 0.15965 q 4.82151,0 7.35998,-4.53413081 0.39913,-0.63860997 0.95792,-2.36285689 0.3193,-0.2075483 0.52685,-0.2075483 0.62265,0.1436873 0.62265,0.6226448 v 0.047896 q -0.95792,3.6400769 -3.41657,5.5878373 -2.69812,2.1553087 -6.00293,2.1553087 h -0.89406 q -5.22063,0 -7.99859,-4.6778181 -1.58055,-3.0812931 -1.58055,-6.1625863 V -5.893372 q 0,-3.7677988 2.36285,-7.519633 2.93761,-3.847625 7.47174,-3.847625 z" />
      <path
         inkscape:connector-curvature="0"
         id="path1882"
         style="fill:#ff0418;fill-opacity:1;stroke-width:0.26458332"
         d="m 165.94918,-17.26063 h 1.00581 q 2.17128,0 4.69379,1.005811 0.27141,0.271409 0.27141,0.478957 v 0.30334 q -0.22352,0.431062 -0.57475,0.431062 h -0.11176 q -2.55444,-0.957915 -4.85344,-0.957915 -6.41803,0 -9.29177,5.44415 -1.05371,2.2511001 -1.05371,5.3802889 0,3.7039379 2.53848,6.7533005 2.88971,2.7939187 7.16839,2.7939187 2.41076,0 4.53413,-0.7503668 0.11176,-0.1596524 0.11176,-0.2554439 -0.0639,-0.4789575 -0.47896,-0.4789575 -2.17127,0.4310617 -3.57621,0.4310617 h -0.38317 q -5.6517,0 -7.64735,-4.8055401 -0.68651,-1.7561774 -0.68651,-3.8476251 V -5.813546 q 0,-0.4789575 0.68651,-0.574749 0.51089,0 0.63861,0.7822972 v 0.2075482 q 0,5.01308835 3.59218,6.7054048 1.5167,0.6865057 3.36867,0.6865057 h 0.47895 q 1.27722,0 3.36867,-0.4150965 h 0.15965 q 1.80408,0.2235135 1.80408,1.788108 0,1.6284554 -2.79392,1.9956561 -1.4688,0.2714093 -2.58637,0.2714093 h -1.16546 q -4.03921,0 -7.32805,-2.9535712 -3.06533,-3.38463284 -3.06533,-7.5994587 v -1.1016022 q 0,-5.4281847 4.21482,-8.9245747 3.12919,-2.314961 6.96085,-2.314961 z" />
    </g>
    <path
       d="m -175.28933,74.840946 h 1.2453 q 5.5879,0 7.4718,3.4006 0.8621,1.56461 0.8621,3.193 v 0.9739 q 0,4.6938 -5.5719,6.56171 -1.5486,0.36719 -2.9217,0.36719 h -1.3091 q -1.836,-0.2873 -1.836,-1.5646 v -9.9623 q 0,-0.4789 0.7024,-0.5907 0.5748,0 0.6546,0.9739 0,1.1175 -0.063,1.5167 0.063,2.2511 0.063,4.119 v 3.0813 q 0,0.2235 -0.063,0.59071 0,0.49489 0.8143,0.49489 0.1916,0 0.4949,0.048 5.3165,0 7.2482,-3.5124 0.495,-1.27719 0.495,-2.6022 0,-4.6779 -4.7098,-5.524 -1.2134,-0.2236 -2.9855,-0.2714 -4.0552,0.1436 -4.0552,0.54281 l -0.063,0.31929 v 20.196 q -0.096,0.54281 -0.5427,0.54281 h -0.2077 q -0.5428,-0.11171 -0.5428,-0.54281 v -20.56319 q 0,-1.16551 1.7402,-1.58061 1.8999,-0.2075 3.0813,-0.2075 z"
       style="font-style:normal;font-variant:normal;font-weight:normal;font-stretch:normal;font-size:32.69683075px;line-height:1.25;font-family:Clip;-inkscape-font-specification:Clip;letter-spacing:0px;word-spacing:0px;fill:#ffe7e9;fill-opacity:1;stroke:none;stroke-width:0.26458332"
       id="path1886"
       inkscape:connector-curvature="0" />
    <path
       d="m -161.94233,74.840946 h 0.2075 q 0.6067,0 0.6067,1.0377 v 19.8608 q 0,0.6386 0.5428,0.6386 h 0.3193 q 0.5907,0 0.5907,-0.97389 v -8.42971 q 0,-1.5326 2.0595,-2.1712 0.4311,-0.1118 0.926,-0.1118 h 0.5429 q 0.9419,0 4.0551,0.7025 0.2555,0.064 0.7025,0.064 h 0.5428 q 1.3411,0 1.5646,-0.926 v -7.1365 q 0,-2.02749 1.4688,-2.4906 l 0.3193,-0.064 h 0.479 q 1.5805,0 1.8998,1.9478 v 20.4035 q -0.1118,0.5429 -0.5428,0.5429 h -0.2076 q -0.6066,0 -0.6066,-1.02179 v -19.86081 q 0,-0.6545 -0.5428,-0.6545 h -0.3194 q -0.5907,0 -0.5907,0.9738 v 7.36 q 0,1.7722 -2.6023,2.267 h -0.8142 q -0.9899,0 -4.0552,-0.7024 l -1.0217,-0.1118 q -1.6445,0 -1.8999,0.9899 v 8.06241 q 0,2.23509 -1.4688,2.65029 l -0.3193,0.048 h -0.479 q -1.5806,0 -1.8999,-1.94781 v -20.4036 q 0.1118,-0.5428 0.5429,-0.5428 z"
       style="font-style:normal;font-variant:normal;font-weight:normal;font-stretch:normal;font-size:32.69683075px;line-height:1.25;font-family:Clip;-inkscape-font-specification:Clip;letter-spacing:0px;word-spacing:0px;fill:#ffe7e9;fill-opacity:1;stroke:none;stroke-width:0.26458332"
       id="path1888"
       inkscape:connector-curvature="0" />
    <path
       d="m -139.76663,74.904846 q 1.4528,0 2.4267,2.5384 4.6778,8.8926 4.8055,9.0683 6.1786,-10.7127 6.6895,-11.495 0.1916,-0.1117 0.3352,-0.1117 h 0.2076 q 0.5428,0.1117 0.5428,0.5428 v 0.2075 q 0,0.1756 -5.6197,9.7707 -1.6764,3.0015 -1.9319,3.1292 -0.1915,0 -0.2714,0.064 -0.5907,0 -1.4528,-2.1075 l -5.3484,-10.09 q -0.2075,-0.1596 -0.5428,-0.2235 -0.4949,0 -0.7025,0.7504 0.1757,0.5109 5.7157,10.537 0.1755,0.6865 0.1755,1.0218 v 8.6372 q 0,0.35131 -0.431,0.59071 h -0.3353 q -0.5109,0 -0.5907,-0.75041 v -8.4296 q 0,-0.7344 -1.5646,-3.241 l -4.2149,-7.759 q -0.048,-0.3034 -0.048,-0.495 v -0.3672 q 0,-1.1016 1.5167,-1.7881 z"
       style="font-style:normal;font-variant:normal;font-weight:normal;font-stretch:normal;font-size:32.69683075px;line-height:1.25;font-family:Clip;-inkscape-font-specification:Clip;letter-spacing:0px;word-spacing:0px;fill:#ffe7e9;fill-opacity:1;stroke:none;stroke-width:0.26458332"
       id="path1890"
       inkscape:connector-curvature="0" />
    <path
       d="m -113.79123,74.521646 h 0.942 q 2.5385,0 4.7736,1.2932 l 0.096,0.3831 v 0.048 q 0,0.5587 -0.7184,0.6546 -2.4746,-1.0856 -4.598,-1.0856 -4.9173,0 -6.3702,3.4484 -0.3352,1.0378 -0.3352,1.8839 v 0.2235 q 0,2.9696 3.1611,3.9754 0.9579,0.1596 3.8796,0.2714 3.2249,0.6067 4.2148,1.7242 1.6604,1.5487 1.6604,3.5444 v 0.6066 q 0,3.30481 -3.6082,5.58781 -2.1713,0.97389 -4.1988,0.97389 h -1.0059 q -2.5385,0 -4.9811,-1.1814 -0.6705,-0.70249 -0.6705,-1.2453 v -0.36719 q 0,-1.27721 1.3889,-1.67631 0.2076,-0.048 0.4949,-0.048 0.1917,0 2.5545,0.7024 0.8461,0.1597 1.7083,0.1597 h 0.2874 q 3.2409,0 3.7677,-2.6502 0,-1.0218 0.6067,-1.0218 h 0.1118 q 0.5587,0 0.6546,0.7025 0,2.9375 -3.257,4.0392 -0.9578,0.2714 -1.9956,0.2714 h -0.2235 q -1.8999,0 -4.2149,-0.8621 h -0.1117 q -0.447,0 -0.447,0.5428 0,0.878 4.55,1.3411 5.3325,0 6.929,-3.7199 0.2235,-0.6706 0.3353,-1.8839 0,-3.5124 -4.8216,-4.1989 -3.2569,-0.096 -4.3265,-0.4311 -3.8317,-1.4847 -3.8317,-5.1567 v -0.1757 q 0,-3.4325 2.9376,-5.4281 2.1394,-1.2453 4.6618,-1.2453 z"
       style="font-style:normal;font-variant:normal;font-weight:normal;font-stretch:normal;font-size:32.69683075px;line-height:1.25;font-family:Clip;-inkscape-font-specification:Clip;letter-spacing:0px;word-spacing:0px;fill:#ffe7e9;fill-opacity:1;stroke:none;stroke-width:0.26458332"
       id="path1892"
       inkscape:connector-curvature="0" />
    <path
       d="m -94.026229,74.840946 h 0.958001 q 5.396201,0 8.2061,5.10881 1.372999,3.03339 1.372999,5.6837 v 0.52679 q -0.335298,1.9957 -1.947799,1.9957 h -0.207499 q -1.389002,0 -1.947802,-1.6764 0,-4.5021 -2.5385,-6.9608 -1.484698,-1.1974 -3.464398,-1.1974 -3.9594,0 -5.4282,4.1989 -0.734401,2.25111 -0.734401,4.1668 -0.319302,0.3673 -0.574802,0.3673 -0.6864,-0.096 -0.6864,-0.5748 v -0.1118 q 0,-4.103 2.362803,-7.1523 2.0276,-2.2192 5.0131,-2.2192 5.332399,0 6.9928,6.2583 0.255399,1.2294 0.367199,3.1132 0.271399,0.479 0.574701,0.479 h 0.2075 q 0.6067,0 0.750498,-0.7983 0,-3.9274 -2.314998,-7.1523 -2.394802,-2.7461 -6.066801,-2.7461 h -0.367199 q -0.048,0 -0.048,-0.048 l -0.096,0.048 h -0.383199 q -5.3483,0 -7.679304,5.7475 -0.894,2.7939 -0.894,4.6779 0,3.3207 1.7881,6.418 2.426705,3.4325 6.481905,3.4325 h 0.303299 q 0.127799,0 0.2236,0.048 0.08,-0.048 0.207499,-0.048 h 0.159602 q 4.8216,0 7.359999,-4.5342 0.399201,-0.6386 0.957901,-2.36279 0.319299,-0.20751 0.526899,-0.20751 0.622699,0.1436 0.622699,0.6226 v 0.048 q -0.9579,3.64009 -3.416599,5.58779 -2.698199,2.15531 -6.003001,2.15531 h -0.893998 q -5.2206,0 -7.998605,-4.67781 -1.5806,-3.0813 -1.5806,-6.1626 v -0.6865 q 0,-3.7678 2.3629,-7.5197 2.937603,-3.8475 7.471704,-3.8475 z"
       style="font-style:normal;font-variant:normal;font-weight:normal;font-stretch:normal;font-size:32.69683075px;line-height:1.25;font-family:Clip;-inkscape-font-specification:Clip;letter-spacing:0px;word-spacing:0px;fill:#ffe7e9;fill-opacity:1;stroke:none;stroke-width:0.26458332"
       id="path1894"
       inkscape:connector-curvature="0" />
    <path
       d="m -69.120428,74.840946 h 1.005901 q 2.1712,0 4.6937,1.0058 0.271399,0.2714 0.271399,0.4789 v 0.3034 q -0.223499,0.4311 -0.574799,0.4311 h -0.111702 q -2.554399,-0.958 -4.853398,-0.958 -6.418101,0 -9.291801,5.4442 -1.053701,2.2511 -1.053701,5.3803 0,3.7039 2.5385,6.75331 2.8897,2.79389 7.168402,2.79389 2.4107,0 4.534101,-0.7504 0.111799,-0.1596 0.111799,-0.2554 -0.064,-0.479 -0.479001,-0.479 -2.171301,0.4311 -3.576199,0.4311 h -0.383201 q -5.651701,0 -7.6473,-4.8056 -0.686501,-1.7562 -0.686501,-3.8476 v -0.4789 q 0,-0.479 0.686501,-0.5748 0.5108,0 0.638601,0.7823 v 0.2075 q 0,5.0131 3.592198,6.7054 1.516602,0.6865 3.368601,0.6865 h 0.479001 q 1.2772,0 3.368699,-0.41499 h 0.1596 q 1.804101,0.22349 1.804101,1.78809 0,1.6284 -2.794,1.9956 -1.4687,0.2714 -2.5863,0.2714 h -1.1655 q -4.0392,0 -7.328101,-2.9535 -3.065301,-3.38469 -3.065301,-7.5995 v -1.10159 q 0,-5.42821 4.214902,-8.92461 3.129101,-2.3149 6.960799,-2.3149 z"
       style="font-style:normal;font-variant:normal;font-weight:normal;font-stretch:normal;font-size:32.69683075px;line-height:1.25;font-family:Clip;-inkscape-font-specification:Clip;letter-spacing:0px;word-spacing:0px;fill:#ffe7e9;fill-opacity:1;stroke:none;stroke-width:0.26458332"
       id="path1896"
       inkscape:connector-curvature="0" />
    <path
       style="font-style:normal;font-variant:normal;font-weight:normal;font-stretch:normal;font-size:32.69683075px;line-height:1.25;font-family:Clip;-inkscape-font-specification:Clip;letter-spacing:0px;word-spacing:0px;opacity:1;fill:#3b4252;fill-opacity:1;stroke:none;stroke-width:7.55251694;stroke-linejoin:round;stroke-miterlimit:4;stroke-dasharray:none;stroke-dashoffset:3779.52758789;stroke-opacity:1"
       d="M -26.479145,68.207344 H 141.61684 c 1.55449,0 2.80594,1.251446 2.80594,2.805934 v 31.351842 c 0,1.55448 -1.25145,2.80593 -2.80594,2.80593 H -26.479145 c -1.554487,0 -2.805933,-1.25145 -2.805933,-2.80593 V 71.013278 c 0,-1.554488 1.251446,-2.805934 2.805933,-2.805934 z"
       id="rect1898" />
    <g
       aria-label="7"
       style="font-style:normal;font-variant:normal;font-weight:normal;font-stretch:normal;font-size:115.85437775px;line-height:1.25;font-family:Abandoned;-inkscape-font-specification:Abandoned;letter-spacing:0px;word-spacing:0px;fill:#cf4e1c;fill-opacity:1;stroke:none;stroke-width:2.89635968"
       id="text1902-8">
      <path
         d="m -169.32043,-37.322827 h 52.77936 l -44.52021,85.306837 -6.84492,-3.50731 38.46728,-73.936363 h -39.88151 z"
         style="font-style:normal;font-variant:normal;font-weight:normal;font-stretch:normal;font-family:'Century Gothic';-inkscape-font-specification:'Century Gothic';fill:#cf4e1c;fill-opacity:1;stroke-width:2.89635968"
         id="path948" />
    </g>
    <g
       aria-label="SCIENCE"
       style="font-style:normal;font-variant:normal;font-weight:normal;font-stretch:normal;font-size:54.27062988px;line-height:1.25;font-family:Abandoned;-inkscape-font-specification:Abandoned;letter-spacing:0px;word-spacing:0px;fill:#ffffff;fill-opacity:1;stroke:none;stroke-width:1.35676575"
       id="text1906-3">
      <path
         d="m -96.531504,34.46583 3.312416,-1.98745 q 3.497912,6.439337 8.082296,6.439337 1.96095,0 3.683407,-0.900977 1.722456,-0.927477 2.623434,-2.464438 0.900977,-1.536961 0.900977,-3.259417 0,-1.960951 -1.324967,-3.842403 -1.828453,-2.596935 -6.677831,-6.253843 -4.875877,-3.683407 -6.068347,-5.326365 -2.066948,-2.75593 -2.066948,-5.96235 0,-2.5439353 1.21897,-4.6373825 1.218969,-2.0934471 3.418413,-3.285917 2.225944,-1.2189692 4.822878,-1.2189692 2.755931,0 5.140871,1.3779652 2.411439,1.3514659 5.087871,5.0083735 l -3.179919,2.411439 q -2.199445,-2.9149262 -3.762905,-3.8424028 -1.536962,-0.9274766 -3.365415,-0.9274766 -2.358441,0 -3.868903,1.4309639 -1.483962,1.4309638 -1.483962,3.5244105 0,1.271968 0.529986,2.464438 0.529987,1.19247 1.934451,2.596935 0.768481,0.741981 5.034873,3.895401 5.061373,3.736406 6.942825,6.651332 1.881453,2.914927 1.881453,5.856353 0,4.239893 -3.232919,7.366814 -3.206419,3.126921 -7.817302,3.126921 -3.550911,0 -6.439338,-1.881453 -2.888427,-1.907952 -5.326365,-6.359839 z"
         style="font-style:normal;font-variant:normal;font-weight:normal;font-stretch:normal;font-family:'Century Gothic';-inkscape-font-specification:'Century Gothic';fill:#ffffff;fill-opacity:1;stroke-width:1.35676575"
         id="path933" />
      <path
         d="m -29.170205,9.9804479 -3.073922,2.3584401 q -2.543936,-3.312416 -6.121346,-5.0083732 -3.55091,-1.7224565 -7.817302,-1.7224565 -4.663883,0 -8.638782,2.2524431 -3.9749,2.2259436 -6.174344,6.0153486 -2.172945,3.762905 -2.172945,8.479785 0,7.128321 4.875876,11.8982 4.902377,4.76988 12.348689,4.76988 8.188293,0 13.700154,-6.412838 l 3.073922,2.331941 q -2.914926,3.709906 -7.287316,5.750355 -4.34589,2.013949 -9.725254,2.013949 -10.228742,0 -16.138093,-6.810328 -4.955375,-5.750355 -4.955375,-13.88565 0,-8.559284 5.988849,-14.3891366 6.015348,-5.8563521 15.05162,-5.8563521 5.458862,0 9.857751,2.1729451 4.398889,2.1464458 7.207818,6.0418475 z"
         style="font-style:normal;font-variant:normal;font-weight:normal;font-stretch:normal;font-family:'Century Gothic';-inkscape-font-specification:'Century Gothic';fill:#ffffff;fill-opacity:1;stroke-width:1.35676575"
         id="path935" />
      <path
         d="m -21.935886,2.7461305 h 3.895402 V 41.726646 h -3.895402 z"
         style="font-style:normal;font-variant:normal;font-weight:normal;font-stretch:normal;font-family:'Century Gothic';-inkscape-font-specification:'Century Gothic';fill:#ffffff;fill-opacity:1;stroke-width:1.35676575"
         id="path937" />
      <path
         d="M -9.0572155,2.7461305 H 13.281721 v 3.842403 H -5.1618138 V 18.778226 H 13.122725 v 3.815903 H -5.1618138 V 37.884243 H 13.122725 v 3.842403 H -9.0572155 Z"
         style="font-style:normal;font-variant:normal;font-weight:normal;font-stretch:normal;font-family:'Century Gothic';-inkscape-font-specification:'Century Gothic';fill:#ffffff;fill-opacity:1;stroke-width:1.35676575"
         id="path939" />
      <path
         d="M 20.092054,41.726646 V 2.7461305 h 0.847978 L 46.856378,32.584377 V 2.7461305 h 3.842403 V 41.726646 H 49.824303 L 24.119952,12.25939 v 29.467256 z"
         style="font-style:normal;font-variant:normal;font-weight:normal;font-stretch:normal;font-family:'Century Gothic';-inkscape-font-specification:'Century Gothic';fill:#ffffff;fill-opacity:1;stroke-width:1.35676575"
         id="path941" />
      <path
         d="M 96.542619,9.9804479 93.468697,12.338888 Q 90.924761,9.026472 87.347351,7.3305148 83.796441,5.6080583 79.530049,5.6080583 q -4.663883,0 -8.638782,2.2524431 -3.9749,2.2259436 -6.174344,6.0153486 -2.172946,3.762905 -2.172946,8.479785 0,7.128321 4.875877,11.8982 4.902377,4.76988 12.348689,4.76988 8.188293,0 13.700154,-6.412838 l 3.073922,2.331941 q -2.914926,3.709906 -7.287316,5.750355 -4.34589,2.013949 -9.725254,2.013949 -10.228742,0 -16.138093,-6.810328 -4.955375,-5.750355 -4.955375,-13.88565 0,-8.559284 5.988849,-14.3891366 6.015348,-5.8563521 15.05162,-5.8563521 5.458862,0 9.857751,2.1729451 4.398889,2.1464458 7.207818,6.0418475 z"
         style="font-style:normal;font-variant:normal;font-weight:normal;font-stretch:normal;font-family:'Century Gothic';-inkscape-font-specification:'Century Gothic';fill:#ffffff;fill-opacity:1;stroke-width:1.35676575"
         id="path943" />
      <path
         d="m 104.35993,2.7461305 h 22.33894 v 3.842403 H 108.25533 V 18.778226 h 18.28454 v 3.815903 h -18.28454 v 15.290114 h 18.28454 v 3.842403 h -22.17994 z"
         style="font-style:normal;font-variant:normal;font-weight:normal;font-stretch:normal;font-family:'Century Gothic';-inkscape-font-specification:'Century Gothic';fill:#ffffff;fill-opacity:1;stroke-width:1.35676575"
         id="path945" />
    </g>
    <g
       aria-label="OF"
       style="font-style:normal;font-variant:normal;font-weight:normal;font-stretch:normal;font-size:37.42953873px;line-height:1.25;font-family:Abandoned;-inkscape-font-specification:Abandoned;letter-spacing:0px;word-spacing:0px;fill:#ffffff;fill-opacity:1;stroke:none;stroke-width:0.9357385"
       id="text1910-2">
      <path
         d="m 80.446118,-34.72637 q 6.104232,0 10.216364,4.07558 4.112132,4.075579 4.112132,10.033602 0,5.903193 -4.112132,10.015325 -4.093856,4.1121323 -9.99705,4.1121323 -5.976298,0 -10.08843,-4.0938553 -4.112132,-4.093856 -4.112132,-9.905669 0,-3.874542 1.864166,-7.182524 1.882443,-3.307982 5.11732,-5.172148 3.234877,-1.882443 6.999762,-1.882443 z m 0.127933,2.631764 q -2.979011,0 -5.647328,1.553473 -2.668316,1.553472 -4.16696,4.185236 -1.498644,2.631764 -1.498644,5.866642 0,4.788349 3.307982,8.09633 3.326258,3.289706 8.00495,3.289706 3.125221,0 5.775261,-1.51692 2.668317,-1.51692 4.148684,-4.148684 1.498644,-2.631764 1.498644,-5.848365 0,-3.198325 -1.498644,-5.775261 -1.480367,-2.595212 -4.185236,-4.148684 -2.704869,-1.553473 -5.738709,-1.553473 z"
         style="font-style:normal;font-variant:normal;font-weight:normal;font-stretch:normal;font-family:'Century Gothic';-inkscape-font-specification:'Century Gothic';fill:#ffffff;fill-opacity:1;stroke-width:0.9357385"
         id="path928" />
      <path
         d="m 100.16608,-34.050153 h 13.46951 v 2.650041 h -10.8012 v 8.407025 h 10.8012 v 2.650041 h -10.8012 v 13.1770981 h -2.66831 z"
         style="font-style:normal;font-variant:normal;font-weight:normal;font-stretch:normal;font-family:'Century Gothic';-inkscape-font-specification:'Century Gothic';fill:#ffffff;fill-opacity:1;stroke-width:0.9357385"
         id="path930" />
    </g>
    <g
       aria-label="MINUTES"
       style="font-style:normal;font-variant:normal;font-weight:normal;font-stretch:normal;font-size:37.42953873px;line-height:1.25;font-family:Abandoned;-inkscape-font-specification:Abandoned;letter-spacing:0px;word-spacing:0px;fill:#ffffff;fill-opacity:1;stroke:none;stroke-width:0.9357385"
       id="text1914-4">
      <path
         d="m -94.978142,-8.1610651 3.819713,-26.8842049 h 0.438628 l 10.929133,22.059303 10.819476,-22.059303 h 0.438627 l 3.856266,26.8842049 h -2.650041 l -2.631764,-19.2265009 -9.503594,19.2265009 h -0.676217 l -9.631527,-19.3727109 -2.613488,19.3727109 z"
         style="font-style:normal;font-variant:normal;font-weight:normal;font-stretch:normal;font-family:'Century Gothic';-inkscape-font-specification:'Century Gothic';fill:#ffffff;fill-opacity:1;stroke-width:0.9357385"
         id="path913" />
      <path
         d="m -59.705189,-35.04527 h 2.686593 v 26.8842049 h -2.686593 z"
         style="font-style:normal;font-variant:normal;font-weight:normal;font-stretch:normal;font-family:'Century Gothic';-inkscape-font-specification:'Century Gothic';fill:#ffffff;fill-opacity:1;stroke-width:0.9357385"
         id="path915" />
      <path
         d="M -50.822984,-8.1610651 V -35.04527 h 0.584836 l 17.874067,20.578936 V -35.04527 h 2.650041 v 26.8842049 h -0.603113 L -48.045011,-28.484135 v 20.3230699 z"
         style="font-style:normal;font-variant:normal;font-weight:normal;font-stretch:normal;font-family:'Century Gothic';-inkscape-font-specification:'Century Gothic';fill:#ffffff;fill-opacity:1;stroke-width:0.9357385"
         id="path917" />
      <path
         d="m -23.043249,-35.04527 h 2.686593 v 16.229214 q 0,2.887631 0.109657,3.6004 0.201037,1.590024 0.932083,2.668317 0.731045,1.060016 2.247965,1.791062 1.51692,0.712769 3.052116,0.712769 1.334158,0 2.55866,-0.56656 1.224501,-0.566561 2.0469278,-1.571748 0.8224263,-1.005188 1.2062253,-2.430727 0.2741422,-1.023464 0.2741422,-4.203513 V -35.04527 h 2.6865928 v 16.229214 q 0,3.6004 -0.7127695,5.830089 -0.6944934,2.211414 -2.8145259,3.8562664 -2.1017567,1.6448528 -5.0990437,1.6448528 -3.253153,0 -5.574223,-1.5534721 -2.32107,-1.5534721 -3.106944,-4.1121321 -0.493456,-1.571748 -0.493456,-5.665604 z"
         style="font-style:normal;font-variant:normal;font-weight:normal;font-stretch:normal;font-family:'Century Gothic';-inkscape-font-specification:'Century Gothic';fill:#ffffff;fill-opacity:1;stroke-width:0.9357385"
         id="path919" />
      <path
         d="M -1.3129182,-32.431782 V -35.04527 H 13.435928 v 2.613488 H 7.4413538 V -8.1610651 H 4.6999325 V -32.431782 Z"
         style="font-style:normal;font-variant:normal;font-weight:normal;font-stretch:normal;font-family:'Century Gothic';-inkscape-font-specification:'Century Gothic';fill:#ffffff;fill-opacity:1;stroke-width:0.9357385"
         id="path921" />
      <path
         d="M 17.310473,-35.04527 H 32.71726 v 2.650041 H 19.997066 v 8.407025 h 12.610538 v 2.631764 H 19.997066 v 10.545334 h 12.610538 v 2.6500409 H 17.310473 Z"
         style="font-style:normal;font-variant:normal;font-weight:normal;font-stretch:normal;font-family:'Century Gothic';-inkscape-font-specification:'Century Gothic';fill:#ffffff;fill-opacity:1;stroke-width:0.9357385"
         id="path923" />
      <path
         d="m 34.617983,-13.168728 2.284518,-1.370711 q 2.41245,4.441103 5.574223,4.441103 1.352434,0 2.540384,-0.621389 1.187949,-0.639665 1.809338,-1.699681 0.621388,-1.060016 0.621388,-2.247966 0,-1.352434 -0.913807,-2.65004 -1.261053,-1.791062 -4.605587,-4.31317 -3.362811,-2.540383 -4.185237,-3.673504 -1.425539,-1.900719 -1.425539,-4.112132 0,-1.75451 0.840703,-3.198325 0.840702,-1.443815 2.357622,-2.266242 1.535196,-0.840702 3.326258,-0.840702 1.900718,0 3.545571,0.950359 1.663129,0.932083 3.509019,3.454191 l -2.193137,1.663129 q -1.516919,-2.010376 -2.595212,-2.650041 -1.060016,-0.639665 -2.32107,-0.639665 -1.626576,0 -2.668316,0.986912 -1.023464,0.986912 -1.023464,2.430727 0,0.877255 0.365522,1.699681 0.365523,0.822427 1.334159,1.791062 0.530008,0.511732 3.472467,2.686593 3.490743,2.576936 4.788349,4.587312 1.297606,2.010375 1.297606,4.039027 0,2.924183 -2.229689,5.0807674 -2.211413,2.1565848 -5.391462,2.1565848 -2.449003,0 -4.441103,-1.2976061 -1.992099,-1.3158821 -3.673504,-4.3862741 z"
         style="font-style:normal;font-variant:normal;font-weight:normal;font-stretch:normal;font-family:'Century Gothic';-inkscape-font-specification:'Century Gothic';fill:#ffffff;fill-opacity:1;stroke-width:0.9357385"
         id="path925" />
    </g>
    <g
       transform="translate(385.30033,-2805.3595)"
       id="g1935">
      <g
         style="opacity:0.7;fill:#2704ff;fill-opacity:1;filter:url(#filter1248-4)"
         transform="translate(-461.86701,2883.7319)"
         id="g1921">
        <g
           aria-label="ASTROSOC"
           style="font-style:normal;font-variant:normal;font-weight:normal;font-stretch:normal;font-size:32.69683075px;line-height:1.25;font-family:Clip;-inkscape-font-specification:Clip;letter-spacing:0px;word-spacing:0px;fill:#2704ff;fill-opacity:1;stroke:none;stroke-width:0.26458332"
           id="text1918">
          <path
             d="m 64.33037,-3.8167291 h 0.526853 q 2.2511,0 3.177085,3.92745139 4.901331,14.17714171 5.651698,16.68368571 v 0.590714 q 0,1.293185 -1.820038,1.564595 h -0.383166 q -1.708282,0 -2.362857,-3.017433 -1.053707,-3.177084 -1.452838,-3.177084 -1.149498,-1.117568 -3.288841,-1.117568 -1.181429,0 -3.767799,0.590715 -0.447027,0 -0.590714,-0.654576 v -0.0479 q 0,-0.734402 2.091447,-0.973881 0.782298,-0.207548 1.8839,-0.207548 h 0.814227 q 2.953572,0 4.518166,2.362857 0.239479,0.447027 1.61249,4.518166 0.271409,0.383166 0.542819,0.383166 h 0.431061 q 0.431062,0 0.478958,-0.494923 -5.859247,-17.56177444 -6.513822,-18.9986469 -0.431062,-0.5907142 -1.181428,-0.5907142 h -0.319305 q -1.229324,0 -1.836004,2.53847464 L 56.140197,18.742168 q -0.223513,0.207549 -0.431062,0.207549 H 55.501587 Q 54.958769,18.83796 54.958769,18.406898 v -0.159652 q 0.319305,-1.101603 6.625578,-19.5893614 0.94195,-2.4746137 2.746023,-2.4746137 z"
             style="fill:#2704ff;fill-opacity:1;stroke-width:0.26458332"
             id="path862" />
          <path
             d="m 84.622201,-4.263756 h 0.94195 q 2.538475,0 4.77361,1.2931852 l 0.09579,0.3831659 v 0.047896 q 0,0.5587837 -0.718436,0.6545752 -2.474614,-1.0856369 -4.597992,-1.0856369 -4.917297,0 -6.370134,3.44849382 -0.335271,1.03774118 -0.335271,1.88389948 v 0.2235134 q 0,2.9695364 3.16112,3.9753471 0.957915,0.1596525 3.879555,0.2714093 3.224981,0.6066795 4.214826,1.7242469 1.660386,1.5486288 1.660386,3.5442858 v 0.606679 q 0,3.304807 -3.608146,5.587837 -2.171274,0.973881 -4.198861,0.973881 h -1.00581 q -2.538475,0 -4.981158,-1.181429 -0.670541,-0.702471 -0.670541,-1.245289 v -0.367201 q 0,-1.27722 1.388977,-1.676351 0.207548,-0.0479 0.494923,-0.0479 0.191583,0 2.55444,0.702471 0.846158,0.159652 1.708281,0.159652 h 0.287375 q 3.240945,0 3.767799,-2.650231 0,-1.021776 0.606679,-1.021776 h 0.111757 q 0.558784,0 0.654575,0.702471 0,2.937606 -3.256911,4.039208 -0.957915,0.271409 -1.995656,0.271409 h -0.223513 q -1.899865,0 -4.214826,-0.862123 h -0.111757 q -0.447027,0 -0.447027,0.542818 0,0.878089 4.550096,1.341081 5.332393,0 6.928918,-3.719903 0.223514,-0.67054 0.335271,-1.883899 0,-3.512355 -4.821506,-4.1988608 -3.256911,-0.095792 -4.326582,-0.4310617 -3.83166,-1.4847682 -3.83166,-5.1567756 V 2.4097182 q 0,-3.4325286 2.937606,-5.4281848 2.139343,-1.2452894 4.661852,-1.2452894 z"
             style="fill:#2704ff;fill-opacity:1;stroke-width:0.26458332"
             id="path864" />
          <path
             d="m 96.181043,-3.9444511 h 14.001527 q 1.62845,0.3672008 1.62845,1.5805597 v 0.5428185 q 0,0.98984547 -1.35704,1.5166987 -0.22352,0.0478957 -0.44703,0.0478957 h -4.77361 V 18.359002 q -0.11176,0.590715 -0.59072,0.590715 h -0.15965 q -0.49492,0 -0.60668,-0.702471 V -0.84719267 q 0,-0.76633193 0.76633,-0.76633193 h 5.36433 q 0.4151,0 0.49492,-0.4789575 -0.0319,-0.4949228 -0.43106,-0.4949228 H 96.292799 q -0.399131,0 -0.431061,0.4949228 0.06386,0.4789575 0.478957,0.4789575 h 5.428185 q 0.55878,0 0.65458,0.70247093 v 0.063861 q 0,0.44702698 -0.60668,0.59071422 h -5.476085 q -1.293185,0 -1.788108,-1.40494195 v -0.702471 q 0,-1.2133589 1.628456,-1.5805597 z"
             style="fill:#2704ff;fill-opacity:1;stroke-width:0.26458332"
             id="path866" />
          <path
             d="m 120.11295,-4.2477908 h 1.29319 q 4.75764,0 7.08857,2.8418144 1.13353,1.56459444 1.13353,3.4804244 v 0.6545752 q 0,4.5181656 -5.6038,6.210482 h -0.11176 v 0.047896 q 1.34108,0.8461583 1.96373,3.1611191 0.76633,2.88971 1.58056,4.182896 0.83019,1.30915 2.55444,1.30915 0.38316,0.271409 0.38316,0.542819 v 0.223513 q -0.11175,0.542819 -0.54282,0.542819 h -0.2714 q -3.62412,0 -5.06099,-6.753301 -0.7344,-2.6183008 -3.49639,-2.6183008 -0.54282,0 -0.63861,-0.702471 0,-0.6865057 1.94776,-0.8621235 5.93907,-1.3251157 5.93907,-5.2366018 V 2.074448 q 0,-3.3686677 -3.81569,-4.5181656 -1.74021,-0.4949227 -3.64008,-0.4949227 -2.79392,0.1117567 -4.51816,0.4470269 V 16.554929 q 0,1.085637 0.76633,1.085637 0.70247,0 0.70247,-0.814228 V -1.1345672 q 0.14369,-0.6545752 0.65458,-0.6545752 0.70247,0.191583 0.70247,0.702471 V 16.602825 q 0,1.708282 -1.30915,2.235135 -0.20755,0.111757 -0.59072,0.111757 h -0.49492 q -1.22932,0 -1.74021,-1.692317 V -3.1461886 q 0,-0.6705405 2.07548,-0.830193 1.4688,-0.2714092 3.04936,-0.2714092 z"
             style="fill:#2704ff;fill-opacity:1;stroke-width:0.26458332"
             id="path868" />
          <path
             d="m 143.40625,-3.9444511 h 0.95791 q 5.39626,0 8.20614,5.1088798 1.37301,3.0333974 1.37301,5.6836288 v 0.5268533 q -0.33527,1.9956561 -1.94776,1.9956561 H 151.788 q -1.38897,0 -1.94776,-1.6763512 0,-4.5022003 -2.53847,-6.96084869 -1.48477,-1.1973937 -3.46446,-1.1973937 -3.95938,0 -5.42819,4.19886059 -0.7344,2.2511002 -0.7344,4.1669301 -0.3193,0.3672007 -0.57475,0.3672007 -0.6865,-0.095791 -0.6865,-0.574749 V 7.582459 q 0,-4.1030691 2.36285,-7.15243172 2.02759,-2.21916968 5.01309,-2.21916968 5.3324,0 6.99278,6.2583778 0.25545,1.2293242 0.3672,3.1132236 0.27141,0.4789575 0.57475,0.4789575 h 0.20755 q 0.60668,0 0.75037,-0.7982625 0,-3.9274513 -2.31496,-7.15243171 -2.39479,-2.74602289 -6.0668,-2.74602289 h -0.3672 q -0.0479,0 -0.0479,-0.047896 l -0.0958,0.047896 h -0.38316 q -5.34836,0 -7.67929,5.7474898 -0.89405,2.7939186 -0.89405,4.677818 0,3.3207718 1.78811,6.4180298 2.42671,3.432529 6.48189,3.432529 h 0.30334 q 0.12772,0 0.22351,0.0479 0.0798,-0.0479 0.20755,-0.0479 h 0.15965 q 4.82151,0 7.35998,-4.534131 0.39913,-0.63861 0.95792,-2.362857 0.3193,-0.207548 0.52685,-0.207548 0.62264,0.143687 0.62264,0.622645 v 0.0479 q -0.95791,3.640076 -3.41656,5.587837 -2.69813,2.155309 -6.00293,2.155309 h -0.89406 q -5.22063,0 -7.99859,-4.677819 -1.58056,-3.081293 -1.58056,-6.1625858 V 7.4228065 q 0,-3.7677988 2.36286,-7.51963245 2.93761,-3.84762515 7.47174,-3.84762515 z"
             style="fill:#2704ff;fill-opacity:1;stroke-width:0.26458332"
             id="path870" />
          <path
             d="m 164.89548,-4.263756 h 0.94195 q 2.53847,0 4.77361,1.2931852 l 0.0958,0.3831659 v 0.047896 q 0,0.5587837 -0.71844,0.6545752 -2.47461,-1.0856369 -4.59799,-1.0856369 -4.9173,0 -6.37013,3.44849382 -0.33528,1.03774118 -0.33528,1.88389948 v 0.2235134 q 0,2.9695364 3.16112,3.9753471 0.95792,0.1596525 3.87956,0.2714093 3.22498,0.6066795 4.21483,1.7242469 1.66038,1.5486288 1.66038,3.5442858 v 0.606679 q 0,3.304807 -3.60814,5.587837 -2.17128,0.973881 -4.19887,0.973881 h -1.00581 q -2.53847,0 -4.98115,-1.181429 -0.67054,-0.702471 -0.67054,-1.245289 v -0.367201 q 0,-1.27722 1.38897,-1.676351 0.20755,-0.0479 0.49493,-0.0479 0.19158,0 2.55443,0.702471 0.84616,0.159652 1.70829,0.159652 h 0.28737 q 3.24095,0 3.7678,-2.650231 0,-1.021776 0.60668,-1.021776 h 0.11176 q 0.55878,0 0.65457,0.702471 0,2.937606 -3.25691,4.039208 -0.95791,0.271409 -1.99566,0.271409 h -0.22351 q -1.89986,0 -4.21482,-0.862123 h -0.11176 q -0.44703,0 -0.44703,0.542818 0,0.878089 4.5501,1.341081 5.33239,0 6.92892,-3.719903 0.22351,-0.67054 0.33527,-1.883899 0,-3.512355 -4.82151,-4.1988608 -3.25691,-0.095792 -4.32658,-0.4310617 -3.83166,-1.4847682 -3.83166,-5.1567756 V 2.4097182 q 0,-3.4325286 2.9376,-5.4281848 2.13935,-1.2452894 4.66186,-1.2452894 z"
             style="fill:#2704ff;fill-opacity:1;stroke-width:0.26458332"
             id="path872" />
          <path
             d="m 184.66046,-3.9444511 h 0.95791 q 5.39626,0 8.20614,5.1088798 1.37301,3.0333974 1.37301,5.6836288 v 0.5268533 q -0.33527,1.9956561 -1.94776,1.9956561 h -0.20755 q -1.38897,0 -1.94776,-1.6763512 0,-4.5022003 -2.53847,-6.96084869 -1.48477,-1.1973937 -3.46446,-1.1973937 -3.95938,0 -5.42818,4.19886059 -0.73441,2.2511002 -0.73441,4.1669301 -0.3193,0.3672007 -0.57475,0.3672007 -0.6865,-0.095791 -0.6865,-0.574749 V 7.582459 q 0,-4.1030691 2.36286,-7.15243172 2.02758,-2.21916968 5.01308,-2.21916968 5.3324,0 6.99278,6.2583778 0.25545,1.2293242 0.3672,3.1132236 0.27141,0.4789575 0.57475,0.4789575 h 0.20755 q 0.60668,0 0.75037,-0.7982625 0,-3.9274513 -2.31496,-7.15243171 -2.39479,-2.74602289 -6.0668,-2.74602289 h -0.3672 q -0.0479,0 -0.0479,-0.047896 l -0.0958,0.047896 h -0.38316 q -5.34836,0 -7.67929,5.7474898 -0.89405,2.7939186 -0.89405,4.677818 0,3.3207718 1.78811,6.4180298 2.42672,3.432529 6.48189,3.432529 h 0.30334 q 0.12772,0 0.22351,0.0479 0.0798,-0.0479 0.20755,-0.0479 h 0.15965 q 4.82151,0 7.35998,-4.534131 0.39913,-0.63861 0.95792,-2.362857 0.3193,-0.207548 0.52685,-0.207548 0.62265,0.143687 0.62265,0.622645 v 0.0479 q -0.95792,3.640076 -3.41657,5.587837 -2.69813,2.155309 -6.00293,2.155309 h -0.89406 q -5.22063,0 -7.99859,-4.677819 -1.58056,-3.081293 -1.58056,-6.1625858 V 7.4228065 q 0,-3.7677988 2.36286,-7.51963245 2.93761,-3.84762515 7.47174,-3.84762515 z"
             style="fill:#2704ff;fill-opacity:1;stroke-width:0.26458332"
             id="path874" />
          <path
             d="m 209.56625,-3.9444511 h 1.00581 q 2.17128,0 4.69379,1.0058108 0.2714,0.2714092 0.2714,0.4789574 v 0.3033398 q -0.22351,0.4310617 -0.57474,0.4310617 h -0.11176 q -2.55444,-0.957915 -4.85344,-0.957915 -6.41803,0 -9.29177,5.4441501 -1.05371,2.2511002 -1.05371,5.380289 0,3.7039383 2.53848,6.7533003 2.88971,2.793919 7.16839,2.793919 2.41076,0 4.53413,-0.750367 0.11176,-0.159652 0.11176,-0.255444 -0.0639,-0.478957 -0.47896,-0.478957 -2.17127,0.431061 -3.57621,0.431061 h -0.38317 q -5.6517,0 -7.64735,-4.80554 -0.68651,-1.756177 -0.68651,-3.8476248 V 7.5026328 q 0,-0.4789575 0.68651,-0.574749 0.51089,0 0.63861,0.7822972 v 0.2075482 q 0,5.0130888 3.59218,6.7054048 1.5167,0.686506 3.36867,0.686506 h 0.47895 q 1.27722,0 3.36867,-0.415097 h 0.15965 q 1.80408,0.223514 1.80408,1.788108 0,1.628456 -2.79392,1.995656 -1.4688,0.27141 -2.58637,0.27141 h -1.16547 q -4.0392,0 -7.32805,-2.953572 -3.06532,-3.384632 -3.06532,-7.5994583 V 7.2950845 q 0,-5.4281848 4.21482,-8.9245744 3.12919,-2.3149612 6.96085,-2.3149612 z"
             style="fill:#2704ff;fill-opacity:1;stroke-width:0.26458332"
             id="path876" />
        </g>
      </g>
      <g
         id="g1928"
         transform="translate(-461.86701,2872.1017)"
         style="opacity:0.9;fill:#2704ff;fill-opacity:1;filter:url(#filter1204-7)">
        <g
           aria-label="ASTROSOC"
           style="font-style:normal;font-variant:normal;font-weight:normal;font-stretch:normal;font-size:32.69683075px;line-height:1.25;font-family:Clip;-inkscape-font-specification:Clip;letter-spacing:0px;word-spacing:0px;fill:#2704ff;fill-opacity:1;stroke:none;stroke-width:0.26458332"
           id="text1925">
          <path
             d="m 64.330366,7.81352 h 0.526853 q 2.251101,0 3.177085,3.927451 4.901332,14.177142 5.651698,16.683686 v 0.590714 q 0,1.293185 -1.820038,1.564595 h -0.383166 q -1.708282,0 -2.362857,-3.017433 -1.053706,-3.177084 -1.452838,-3.177084 -1.149498,-1.117568 -3.288841,-1.117568 -1.181429,0 -3.767799,0.590715 -0.447027,0 -0.590714,-0.654576 v -0.0479 q 0,-0.734402 2.091448,-0.973881 0.782297,-0.207548 1.883899,-0.207548 h 0.814228 q 2.953571,0 4.518165,2.362857 0.239479,0.447027 1.61249,4.518166 0.27141,0.383166 0.542819,0.383166 h 0.431062 q 0.431061,0 0.478957,-0.494923 Q 66.533571,11.182188 65.878995,9.7453151 65.447934,9.1546009 64.697567,9.1546009 h -0.319305 q -1.229324,0 -1.836004,2.5384751 l -6.402065,18.679341 q -0.223513,0.207549 -0.431062,0.207549 H 55.501583 Q 54.958765,30.468209 54.958765,30.037147 V 29.877495 Q 55.27807,28.775892 61.584343,10.288134 62.526293,7.81352 64.330366,7.81352 Z"
             style="fill:#2704ff;fill-opacity:1;stroke-width:0.26458332"
             id="path879" />
          <path
             d="m 84.622198,7.366493 h 0.941949 q 2.538475,0 4.77361,1.2931852 l 0.09579,0.383166 v 0.047896 q 0,0.5587837 -0.718436,0.6545752 -2.474613,-1.0856369 -4.597992,-1.0856369 -4.917296,0 -6.370134,3.4484938 -0.33527,1.037741 -0.33527,1.883899 v 0.223514 q 0,2.969536 3.161119,3.975347 0.957915,0.159653 3.879556,0.271409 3.22498,0.60668 4.214825,1.724247 1.660386,1.548629 1.660386,3.544286 v 0.606679 q 0,3.304807 -3.608146,5.587837 -2.171274,0.973881 -4.198861,0.973881 h -1.00581 q -2.538475,0 -4.981158,-1.181429 -0.670541,-0.702471 -0.670541,-1.245289 v -0.367201 q 0,-1.27722 1.388977,-1.676351 0.207548,-0.0479 0.494923,-0.0479 0.191583,0 2.55444,0.702471 0.846158,0.159652 1.708281,0.159652 h 0.287375 q 3.240946,0 3.767799,-2.650231 0,-1.021776 0.606679,-1.021776 h 0.111757 q 0.558784,0 0.654575,0.702471 0,2.937606 -3.256911,4.039208 -0.957915,0.271409 -1.995656,0.271409 h -0.223513 q -1.899865,0 -4.214826,-0.862123 h -0.111757 q -0.447027,0 -0.447027,0.542818 0,0.878089 4.550096,1.341081 5.332394,0 6.928918,-3.719903 0.223514,-0.67054 0.335271,-1.883899 0,-3.512355 -4.821506,-4.198861 -3.25691,-0.09579 -4.326582,-0.431061 -3.83166,-1.484769 -3.83166,-5.156776 v -0.175618 q 0,-3.432528 2.937606,-5.4281846 2.139343,-1.2452894 4.661853,-1.2452894 z"
             style="fill:#2704ff;fill-opacity:1;stroke-width:0.26458332"
             id="path881" />
          <path
             d="m 96.181039,7.685798 h 14.001521 q 1.62846,0.3672007 1.62846,1.5805597 v 0.5428184 q 0,0.9898459 -1.35705,1.5166989 -0.22351,0.0479 -0.44703,0.0479 h -4.7736 v 18.61548 q -0.11176,0.590715 -0.59072,0.590715 h -0.15965 q -0.49492,0 -0.60668,-0.702471 V 10.783056 q 0,-0.766332 0.76633,-0.766332 h 5.36432 q 0.4151,0 0.49493,-0.4789571 -0.0319,-0.4949227 -0.43106,-0.4949227 H 96.292796 q -0.399132,0 -0.431062,0.4949227 0.06386,0.4789571 0.478957,0.4789571 h 5.428189 q 0.55878,0 0.65457,0.702471 v 0.06386 q 0,0.447027 -0.60668,0.590715 h -5.476079 q -1.293185,0 -1.788108,-1.4049424 V 9.2663577 q 0,-1.213359 1.628456,-1.5805597 z"
             style="fill:#2704ff;fill-opacity:1;stroke-width:0.26458332"
             id="path883" />
          <path
             d="m 120.11295,7.3824582 h 1.29318 q 4.75765,0 7.08857,2.8418148 1.13354,1.564594 1.13354,3.480424 v 0.654575 q 0,4.518166 -5.60381,6.210482 h -0.11175 v 0.0479 q 1.34108,0.846158 1.96372,3.161119 0.76634,2.88971 1.58056,4.182896 0.8302,1.30915 2.55444,1.30915 0.38317,0.271409 0.38317,0.542819 v 0.223513 q -0.11176,0.542819 -0.54282,0.542819 h -0.27141 q -3.62411,0 -5.06098,-6.753301 -0.7344,-2.618301 -3.49639,-2.618301 -0.54282,0 -0.63861,-0.702471 0,-0.686505 1.94776,-0.862123 5.93907,-1.325116 5.93907,-5.236602 v -0.702471 q 0,-3.368668 -3.81569,-4.5181656 -1.74022,-0.4949227 -3.64008,-0.4949227 -2.79392,0.1117567 -4.51817,0.447027 V 28.185178 q 0,1.085637 0.76634,1.085637 0.70247,0 0.70247,-0.814228 V 10.495682 q 0.14368,-0.6545754 0.65457,-0.6545754 0.70247,0.1915834 0.70247,0.7024714 v 17.689496 q 0,1.708282 -1.30915,2.235135 -0.20755,0.111757 -0.59071,0.111757 h -0.49492 q -1.22933,0 -1.74022,-1.692317 V 8.4840604 q 0,-0.6705404 2.07549,-0.8301929 1.4688,-0.2714093 3.04936,-0.2714093 z"
             style="fill:#2704ff;fill-opacity:1;stroke-width:0.26458332"
             id="path885" />
          <path
             d="m 143.40624,7.685798 h 0.95792 q 5.39625,0 8.20614,5.10888 1.37301,3.033397 1.37301,5.683629 v 0.526853 q -0.33527,1.995656 -1.94776,1.995656 H 151.788 q -1.38898,0 -1.94776,-1.676351 0,-4.502201 -2.53848,-6.960849 -1.48476,-1.197394 -3.46446,-1.197394 -3.95938,0 -5.42818,4.198861 -0.7344,2.2511 -0.7344,4.16693 -0.31931,0.367201 -0.57475,0.367201 -0.68651,-0.09579 -0.68651,-0.574749 v -0.111757 q 0,-4.103069 2.36286,-7.152432 2.02759,-2.2191694 5.01309,-2.2191694 5.33239,0 6.99278,6.2583774 0.25544,1.229325 0.3672,3.113224 0.27141,0.478958 0.57475,0.478958 h 0.20755 q 0.60668,0 0.75036,-0.798263 0,-3.927451 -2.31496,-7.152432 -2.39479,-2.7460226 -6.06679,-2.7460226 h -0.3672 q -0.0479,0 -0.0479,-0.047896 l -0.0958,0.047896 h -0.38317 q -5.34836,0 -7.67928,5.7474896 -0.89406,2.793919 -0.89406,4.677818 0,3.320772 1.78811,6.418031 2.42672,3.432528 6.48189,3.432528 h 0.30334 q 0.12772,0 0.22352,0.0479 0.0798,-0.0479 0.20754,-0.0479 h 0.15966 q 4.8215,0 7.35998,-4.534131 0.39913,-0.63861 0.95791,-2.362857 0.31931,-0.207548 0.52686,-0.207548 0.62264,0.143687 0.62264,0.622645 v 0.0479 q -0.95791,3.640076 -3.41656,5.587837 -2.69813,2.155309 -6.00294,2.155309 h -0.89405 q -5.22064,0 -7.99859,-4.677818 -1.58056,-3.081294 -1.58056,-6.162587 v -0.686505 q 0,-3.767799 2.36286,-7.519633 2.9376,-3.847625 7.47173,-3.847625 z"
             style="fill:#2704ff;fill-opacity:1;stroke-width:0.26458332"
             id="path887" />
          <path
             d="m 164.89547,7.366493 h 0.94195 q 2.53848,0 4.77361,1.2931852 l 0.0958,0.383166 v 0.047896 q 0,0.5587837 -0.71843,0.6545752 -2.47462,-1.0856369 -4.59799,-1.0856369 -4.9173,0 -6.37014,3.4484938 -0.33527,1.037741 -0.33527,1.883899 v 0.223514 q 0,2.969536 3.16112,3.975347 0.95792,0.159653 3.87956,0.271409 3.22498,0.60668 4.21482,1.724247 1.66039,1.548629 1.66039,3.544286 v 0.606679 q 0,3.304807 -3.60815,5.587837 -2.17127,0.973881 -4.19886,0.973881 h -1.00581 q -2.53847,0 -4.98116,-1.181429 -0.67054,-0.702471 -0.67054,-1.245289 v -0.367201 q 0,-1.27722 1.38898,-1.676351 0.20755,-0.0479 0.49492,-0.0479 0.19158,0 2.55444,0.702471 0.84616,0.159652 1.70828,0.159652 h 0.28738 q 3.24094,0 3.7678,-2.650231 0,-1.021776 0.60668,-1.021776 h 0.11175 q 0.55879,0 0.65458,0.702471 0,2.937606 -3.25691,4.039208 -0.95792,0.271409 -1.99566,0.271409 h -0.22351 q -1.89987,0 -4.21483,-0.862123 h -0.11176 q -0.44702,0 -0.44702,0.542818 0,0.878089 4.55009,1.341081 5.3324,0 6.92892,-3.719903 0.22352,-0.67054 0.33527,-1.883899 0,-3.512355 -4.8215,-4.198861 -3.25691,-0.09579 -4.32659,-0.431061 -3.83166,-1.484769 -3.83166,-5.156776 v -0.175618 q 0,-3.432528 2.93761,-5.4281846 2.13934,-1.2452894 4.66185,-1.2452894 z"
             style="fill:#2704ff;fill-opacity:1;stroke-width:0.26458332"
             id="path889" />
          <path
             d="m 184.66045,7.685798 h 0.95792 q 5.39625,0 8.20614,5.10888 1.37301,3.033397 1.37301,5.683629 v 0.526853 q -0.33527,1.995656 -1.94776,1.995656 h -0.20755 q -1.38898,0 -1.94776,-1.676351 0,-4.502201 -2.53847,-6.960849 -1.48477,-1.197394 -3.46446,-1.197394 -3.95939,0 -5.42819,4.198861 -0.7344,2.2511 -0.7344,4.16693 -0.31931,0.367201 -0.57475,0.367201 -0.6865,-0.09579 -0.6865,-0.574749 v -0.111757 q 0,-4.103069 2.36285,-7.152432 2.02759,-2.2191694 5.01309,-2.2191694 5.33239,0 6.99278,6.2583774 0.25544,1.229325 0.3672,3.113224 0.27141,0.478958 0.57475,0.478958 h 0.20755 q 0.60668,0 0.75036,-0.798263 0,-3.927451 -2.31496,-7.152432 -2.39478,-2.7460226 -6.06679,-2.7460226 h -0.3672 q -0.0479,0 -0.0479,-0.047896 l -0.0958,0.047896 h -0.38317 q -5.34835,0 -7.67928,5.7474896 -0.89405,2.793919 -0.89405,4.677818 0,3.320772 1.7881,6.418031 2.42672,3.432528 6.48189,3.432528 h 0.30334 q 0.12773,0 0.22352,0.0479 0.0798,-0.0479 0.20755,-0.0479 h 0.15965 q 4.8215,0 7.35998,-4.534131 0.39913,-0.63861 0.95791,-2.362857 0.31931,-0.207548 0.52686,-0.207548 0.62264,0.143687 0.62264,0.622645 v 0.0479 q -0.95791,3.640076 -3.41656,5.587837 -2.69813,2.155309 -6.00294,2.155309 h -0.89405 q -5.22064,0 -7.99859,-4.677818 -1.58056,-3.081294 -1.58056,-6.162587 v -0.686505 q 0,-3.767799 2.36286,-7.519633 2.9376,-3.847625 7.47173,-3.847625 z"
             style="fill:#2704ff;fill-opacity:1;stroke-width:0.26458332"
             id="path891" />
          <path
             d="m 209.56625,7.685798 h 1.00581 q 2.17127,0 4.69378,1.0058107 0.27141,0.2714092 0.27141,0.4789575 v 0.3033397 q -0.22351,0.4310617 -0.57475,0.4310617 h -0.11175 q -2.55444,-0.9579149 -4.85344,-0.9579149 -6.41803,0 -9.29178,5.4441503 -1.0537,2.2511 -1.0537,5.380289 0,3.703938 2.53847,6.7533 2.88971,2.793919 7.1684,2.793919 2.41075,0 4.53413,-0.750367 0.11176,-0.159652 0.11176,-0.255444 -0.0639,-0.478957 -0.47896,-0.478957 -2.17127,0.431061 -3.57622,0.431061 h -0.38316 q -5.6517,0 -7.64736,-4.80554 -0.6865,-1.756177 -0.6865,-3.847625 v -0.478957 q 0,-0.478958 0.6865,-0.574749 0.51089,0 0.63861,0.782297 v 0.207548 q 0,5.013089 3.59218,6.705405 1.5167,0.686506 3.36867,0.686506 h 0.47896 q 1.27722,0 3.36867,-0.415097 h 0.15965 q 1.80407,0.223514 1.80407,1.788108 0,1.628456 -2.79392,1.995656 -1.4688,0.27141 -2.58637,0.27141 h -1.16546 q -4.03921,0 -7.32805,-2.953572 -3.06533,-3.384632 -3.06533,-7.599458 v -1.101602 q 0,-5.428185 4.21483,-8.924575 3.12919,-2.314961 6.96085,-2.314961 z"
             style="fill:#2704ff;fill-opacity:1;stroke-width:0.26458332"
             id="path893" />
        </g>
      </g>
      <g
         aria-label="ASTROSOC"
         style="font-style:normal;font-variant:normal;font-weight:normal;font-stretch:normal;font-size:32.69683075px;line-height:1.25;font-family:Clip;-inkscape-font-specification:Clip;letter-spacing:0px;word-spacing:0px;fill:#eae7ff;fill-opacity:1;stroke:none;stroke-width:0.26458332"
         id="text1932">
        <path
           d="m -397.53663,2879.9152 h 0.52685 q 2.2511,0 3.17708,3.9274 4.90134,14.1772 5.6517,16.6837 v 0.5907 q 0,1.2932 -1.82004,1.5646 h -0.38316 q -1.70828,0 -2.36286,-3.0174 -1.05371,-3.1771 -1.45284,-3.1771 -1.1495,-1.1175 -3.28884,-1.1175 -1.18143,0 -3.7678,0.5907 -0.44702,0 -0.59071,-0.6546 v -0.048 q 0,-0.7344 2.09145,-0.9739 0.78229,-0.2075 1.8839,-0.2075 h 0.81422 q 2.95357,0 4.51817,2.3628 0.23948,0.4471 1.61249,4.5182 0.27141,0.3832 0.54282,0.3832 h 0.43106 q 0.43106,0 0.47896,-0.495 -5.85925,-17.5617 -6.51383,-18.9986 -0.43106,-0.5907 -1.18142,-0.5907 h -0.31931 q -1.22932,0 -1.836,2.5385 l -6.40207,18.6793 q -0.22351,0.2075 -0.43106,0.2075 h -0.20755 q -0.54282,-0.1117 -0.54282,-0.5428 v -0.1596 q 0.31931,-1.1016 6.62558,-19.5894 0.94195,-2.4746 2.74603,-2.4746 z"
           style="fill:#eae7ff;fill-opacity:1;stroke-width:0.26458332"
           id="path896" />
        <path
           d="m -377.2448,2879.4682 h 0.94195 q 2.53847,0 4.77361,1.2932 l 0.0958,0.3831 v 0.048 q 0,0.5588 -0.71844,0.6546 -2.47461,-1.0856 -4.59799,-1.0856 -4.9173,0 -6.37013,3.4484 -0.33527,1.0378 -0.33527,1.8839 v 0.2236 q 0,2.9695 3.16111,3.9753 0.95792,0.1597 3.87956,0.2714 3.22498,0.6067 4.21483,1.7243 1.66038,1.5486 1.66038,3.5442 v 0.6067 q 0,3.3048 -3.60814,5.5879 -2.17128,0.9738 -4.19887,0.9738 h -1.00581 q -2.53847,0 -4.98115,-1.1814 -0.67054,-0.7025 -0.67054,-1.2453 v -0.3672 q 0,-1.2772 1.38897,-1.6763 0.20755,-0.048 0.49493,-0.048 0.19158,0 2.55444,0.7025 0.84615,0.1596 1.70828,0.1596 h 0.28737 q 3.24095,0 3.7678,-2.6502 0,-1.0218 0.60668,-1.0218 h 0.11176 q 0.55878,0 0.65457,0.7025 0,2.9376 -3.25691,4.0392 -0.95791,0.2714 -1.99566,0.2714 h -0.22351 q -1.89986,0 -4.21482,-0.8621 h -0.11176 q -0.44703,0 -0.44703,0.5428 0,0.8781 4.5501,1.3411 5.33239,0 6.92892,-3.7199 0.22351,-0.6706 0.33527,-1.8839 0,-3.5124 -4.82151,-4.1989 -3.25691,-0.096 -4.32658,-0.4311 -3.83166,-1.4847 -3.83166,-5.1567 v -0.1757 q 0,-3.4325 2.9376,-5.4281 2.13935,-1.2453 4.66186,-1.2453 z"
           style="fill:#eae7ff;fill-opacity:1;stroke-width:0.26458332"
           id="path898" />
        <path
           d="m -365.68596,2879.7875 h 14.00152 q 1.62846,0.3672 1.62846,1.5805 v 0.5429 q 0,0.9898 -1.35705,1.5166 -0.22351,0.048 -0.44703,0.048 h -4.77361 v 18.6155 q -0.11175,0.5907 -0.59071,0.5907 h -0.15965 q -0.49492,0 -0.60668,-0.7024 v -19.0945 q 0,-0.7663 0.76633,-0.7663 h 5.36432 q 0.4151,0 0.49493,-0.479 -0.0319,-0.4949 -0.43106,-0.4949 h -13.77801 q -0.39914,0 -0.43107,0.4949 0.0639,0.479 0.47896,0.479 h 5.42819 q 0.55878,0 0.65457,0.7025 v 0.064 q 0,0.4471 -0.60668,0.5907 h -5.47608 q -1.29318,0 -1.78811,-1.4049 v -0.7025 q 0,-1.2133 1.62846,-1.5805 z"
           style="fill:#eae7ff;fill-opacity:1;stroke-width:0.26458332"
           id="path900" />
        <path
           d="m -341.75405,2879.4841 h 1.29318 q 4.75765,0 7.08857,2.8418 1.13354,1.5646 1.13354,3.4805 v 0.6545 q 0,4.5182 -5.60381,6.2105 h -0.11175 v 0.048 q 1.34108,0.8462 1.96372,3.1611 0.76634,2.8898 1.58056,4.1829 0.8302,1.3092 2.55444,1.3092 0.38317,0.2714 0.38317,0.5428 v 0.2235 q -0.11176,0.5428 -0.54282,0.5428 h -0.27141 q -3.62411,0 -5.06098,-6.7533 -0.7344,-2.6183 -3.49639,-2.6183 -0.54282,0 -0.63861,-0.7024 0,-0.6865 1.94776,-0.8622 5.93907,-1.3251 5.93907,-5.2366 v -0.7024 q 0,-3.3687 -3.81569,-4.5182 -1.74022,-0.4949 -3.64008,-0.4949 -2.79392,0.1117 -4.51817,0.447 v 19.0466 q 0,1.0856 0.76634,1.0856 0.70247,0 0.70247,-0.8142 v -17.9609 q 0.14368,-0.6546 0.65457,-0.6546 0.70247,0.1916 0.70247,0.7025 v 17.6894 q 0,1.7083 -1.30915,2.2352 -0.20755,0.1117 -0.59071,0.1117 h -0.49492 q -1.22933,0 -1.74022,-1.6923 v -20.4036 q 0,-0.6705 2.07549,-0.8302 1.4688,-0.2714 3.04936,-0.2714 z"
           style="fill:#eae7ff;fill-opacity:1;stroke-width:0.26458332"
           id="path902" />
        <path
           d="m -318.46076,2879.7875 h 0.95792 q 5.39625,0 8.20614,5.1089 1.37301,3.0334 1.37301,5.6836 v 0.5268 q -0.33527,1.9957 -1.94776,1.9957 h -0.20755 q -1.38898,0 -1.94776,-1.6764 0,-4.5022 -2.53848,-6.9608 -1.48477,-1.1974 -3.46446,-1.1974 -3.95938,0 -5.42818,4.1989 -0.7344,2.2511 -0.7344,4.1669 -0.31931,0.3672 -0.57475,0.3672 -0.68651,-0.096 -0.68651,-0.5748 v -0.1117 q 0,-4.1031 2.36286,-7.1524 2.02759,-2.2192 5.01309,-2.2192 5.33239,0 6.99278,6.2584 0.25544,1.2293 0.3672,3.1132 0.27141,0.4789 0.57475,0.4789 h 0.20755 q 0.60667,0 0.75036,-0.7982 0,-3.9275 -2.31496,-7.1525 -2.39479,-2.746 -6.06679,-2.746 h -0.3672 q -0.0479,0 -0.0479,-0.048 l -0.0958,0.048 h -0.38317 q -5.34836,0 -7.67928,5.7475 -0.89406,2.7939 -0.89406,4.6778 0,3.3208 1.78811,6.4181 2.42672,3.4325 6.48189,3.4325 h 0.30334 q 0.12772,0 0.22352,0.048 0.0798,-0.048 0.20754,-0.048 h 0.15966 q 4.8215,0 7.35998,-4.5341 0.39913,-0.6387 0.95791,-2.3629 0.31931,-0.2075 0.52685,-0.2075 0.62265,0.1436 0.62265,0.6226 v 0.048 q -0.95792,3.6401 -3.41656,5.5878 -2.69813,2.1553 -6.00294,2.1553 h -0.89405 q -5.22064,0 -7.99859,-4.6778 -1.58056,-3.0813 -1.58056,-6.1626 v -0.6865 q 0,-3.7678 2.36286,-7.5196 2.9376,-3.8476 7.47173,-3.8476 z"
           style="fill:#eae7ff;fill-opacity:1;stroke-width:0.26458332"
           id="path904" />
        <path
           d="m -296.97153,2879.4682 h 0.94195 q 2.53848,0 4.77361,1.2932 l 0.0958,0.3831 v 0.048 q 0,0.5588 -0.71843,0.6546 -2.47462,-1.0856 -4.59799,-1.0856 -4.9173,0 -6.37014,3.4484 -0.33527,1.0378 -0.33527,1.8839 v 0.2236 q 0,2.9695 3.16112,3.9753 0.95791,0.1597 3.87956,0.2714 3.22498,0.6067 4.21482,1.7243 1.66039,1.5486 1.66039,3.5442 v 0.6067 q 0,3.3048 -3.60815,5.5879 -2.17127,0.9738 -4.19886,0.9738 h -1.00581 q -2.53848,0 -4.98116,-1.1814 -0.67054,-0.7025 -0.67054,-1.2453 v -0.3672 q 0,-1.2772 1.38898,-1.6763 0.20755,-0.048 0.49492,-0.048 0.19158,0 2.55444,0.7025 0.84616,0.1596 1.70828,0.1596 h 0.28738 q 3.24094,0 3.7678,-2.6502 0,-1.0218 0.60668,-1.0218 h 0.11175 q 0.55879,0 0.65458,0.7025 0,2.9376 -3.25691,4.0392 -0.95792,0.2714 -1.99566,0.2714 h -0.22351 q -1.89987,0 -4.21483,-0.8621 h -0.11176 q -0.44702,0 -0.44702,0.5428 0,0.8781 4.55009,1.3411 5.3324,0 6.92892,-3.7199 0.22351,-0.6706 0.33527,-1.8839 0,-3.5124 -4.8215,-4.1989 -3.25691,-0.096 -4.32659,-0.4311 -3.83166,-1.4847 -3.83166,-5.1567 v -0.1757 q 0,-3.4325 2.93761,-5.4281 2.13934,-1.2453 4.66185,-1.2453 z"
           style="fill:#eae7ff;fill-opacity:1;stroke-width:0.26458332"
           id="path906" />
        <path
           d="m -277.20655,2879.7875 h 0.95792 q 5.39625,0 8.20614,5.1089 1.37301,3.0334 1.37301,5.6836 v 0.5268 q -0.33527,1.9957 -1.94776,1.9957 h -0.20755 q -1.38898,0 -1.94776,-1.6764 0,-4.5022 -2.53848,-6.9608 -1.48476,-1.1974 -3.46445,-1.1974 -3.95939,0 -5.42819,4.1989 -0.7344,2.2511 -0.7344,4.1669 -0.31931,0.3672 -0.57475,0.3672 -0.68651,-0.096 -0.68651,-0.5748 v -0.1117 q 0,-4.1031 2.36286,-7.1524 2.02759,-2.2192 5.01309,-2.2192 5.33239,0 6.99278,6.2584 0.25544,1.2293 0.3672,3.1132 0.27141,0.4789 0.57475,0.4789 h 0.20755 q 0.60668,0 0.75036,-0.7982 0,-3.9275 -2.31496,-7.1525 -2.39478,-2.746 -6.06679,-2.746 h -0.3672 q -0.0479,0 -0.0479,-0.048 l -0.0958,0.048 h -0.38317 q -5.34835,0 -7.67928,5.7475 -0.89406,2.7939 -0.89406,4.6778 0,3.3208 1.78811,6.4181 2.42672,3.4325 6.48189,3.4325 h 0.30334 q 0.12773,0 0.22352,0.048 0.0798,-0.048 0.20755,-0.048 h 0.15965 q 4.8215,0 7.35998,-4.5341 0.39913,-0.6387 0.95791,-2.3629 0.31931,-0.2075 0.52686,-0.2075 0.62264,0.1436 0.62264,0.6226 v 0.048 q -0.95791,3.6401 -3.41656,5.5878 -2.69813,2.1553 -6.00294,2.1553 h -0.89405 q -5.22064,0 -7.99859,-4.6778 -1.58056,-3.0813 -1.58056,-6.1626 v -0.6865 q 0,-3.7678 2.36286,-7.5196 2.9376,-3.8476 7.47173,-3.8476 z"
           style="fill:#eae7ff;fill-opacity:1;stroke-width:0.26458332"
           id="path908" />
        <path
           d="m -252.30075,2879.7875 h 1.00581 q 2.17127,0 4.69378,1.0058 0.27141,0.2714 0.27141,0.4789 v 0.3034 q -0.22351,0.431 -0.57475,0.431 h -0.11176 q -2.55444,-0.9579 -4.85343,-0.9579 -6.41803,0 -9.29178,5.4442 -1.0537,2.2511 -1.0537,5.3803 0,3.7039 2.53847,6.7533 2.88971,2.7939 7.1684,2.7939 2.41075,0 4.53413,-0.7504 0.11176,-0.1596 0.11176,-0.2554 -0.0639,-0.479 -0.47896,-0.479 -2.17127,0.4311 -3.57622,0.4311 h -0.38316 q -5.6517,0 -7.64736,-4.8056 -0.6865,-1.7561 -0.6865,-3.8476 v -0.4789 q 0,-0.479 0.6865,-0.5748 0.51089,0 0.63861,0.7823 v 0.2076 q 0,5.013 3.59218,6.7054 1.5167,0.6865 3.36867,0.6865 h 0.47896 q 1.27722,0 3.36867,-0.4151 h 0.15965 q 1.80407,0.2235 1.80407,1.7881 0,1.6284 -2.79392,1.9956 -1.4688,0.2714 -2.58637,0.2714 h -1.16546 q -4.03921,0 -7.32805,-2.9535 -3.06533,-3.3847 -3.06533,-7.5995 v -1.1016 q 0,-5.4282 4.21483,-8.9246 3.12919,-2.3149 6.96085,-2.3149 z"
           style="fill:#eae7ff;fill-opacity:1;stroke-width:0.26458332"
           id="path910" />
      </g>
    </g>
  </g>
</svg>
