<?xml version="1.0" encoding="UTF-8" standalone="no"?>
<!-- Created with Inkscape (http://www.inkscape.org/) -->

<svg
   xmlns:dc="http://purl.org/dc/elements/1.1/"
   xmlns:cc="http://creativecommons.org/ns#"
   xmlns:rdf="http://www.w3.org/1999/02/22-rdf-syntax-ns#"
   xmlns:svg="http://www.w3.org/2000/svg"
   xmlns="http://www.w3.org/2000/svg"
   xmlns:sodipodi="http://sodipodi.sourceforge.net/DTD/sodipodi-0.dtd"
   xmlns:inkscape="http://www.inkscape.org/namespaces/inkscape"
   width="179.09564mm"
   height="37.806053mm"
   viewBox="0 0 179.09564 37.806054"
   version="1.1"
   id="svg2353"
   inkscape:version="0.92.4 (5da689c313, 2019-01-14)"
   sodipodi:docname="ASTROSOC.svg">
  <defs
     id="defs2347">
    <filter
       inkscape:collect="always"
       style="color-interpolation-filters:sRGB"
       id="filter1248-4"
       x="-0.057657655"
       width="1.1153153"
       y="-0.28656718"
       height="1.5731343">
      <feGaussianBlur
         inkscape:collect="always"
         stdDeviation="2.809884"
         id="feGaussianBlur1250-0" />
    </filter>
    <filter
       inkscape:collect="always"
       style="color-interpolation-filters:sRGB"
       id="filter1204-7"
       x="-0.014414414"
       width="1.0288289"
       y="-0.071641795"
       height="1.1432836">
      <feGaussianBlur
         inkscape:collect="always"
         stdDeviation="0.70247099"
         id="feGaussianBlur1206-8" />
    </filter>
  </defs>
  <sodipodi:namedview
     id="base"
     pagecolor="#ffffff"
     bordercolor="#666666"
     borderopacity="1.0"
     inkscape:pageopacity="0.0"
     inkscape:pageshadow="2"
     inkscape:zoom="1.4"
     inkscape:cx="291.94388"
     inkscape:cy="72.699383"
     inkscape:document-units="mm"
     inkscape:current-layer="text1932"
     showgrid="false"
     fit-margin-top="0"
     fit-margin-left="0"
     fit-margin-right="0"
     fit-margin-bottom="0"
     inkscape:window-width="1920"
     inkscape:window-height="986"
     inkscape:window-x="-11"
     inkscape:window-y="-11"
     inkscape:window-maximized="1" />
  <metadata
     id="metadata2350">
    <rdf:RDF>
      <cc:Work
         rdf:about="">
        <dc:format>image/svg+xml</dc:format>
        <dc:type
           rdf:resource="http://purl.org/dc/dcmitype/StillImage" />
        <dc:title />
      </cc:Work>
    </rdf:RDF>
  </metadata>
  <g
     inkscape:label="Layer 1"
     inkscape:groupmode="layer"
     id="layer1"
     transform="translate(-286.85769,-156.32002)">
    <path
       style="font-style:normal;font-variant:normal;font-weight:normal;font-stretch:normal;font-size:32.69683075px;line-height:1.25;font-family:Clip;-inkscape-font-specification:Clip;letter-spacing:0px;word-spacing:0px;opacity:1;fill:#3b4252;fill-opacity:1;stroke:none;stroke-width:7.55251694;stroke-linejoin:round;stroke-miterlimit:4;stroke-dasharray:none;stroke-dashoffset:3779.52758789;stroke-opacity:1"
       d="m 291.24502,157.16237 h 168.09599 c 1.55449,0 2.80593,1.25145 2.80593,2.80593 v 31.35184 c 0,1.55449 -1.25144,2.80594 -2.80593,2.80594 H 291.24502 c -1.55449,0 -2.80593,-1.25145 -2.80593,-2.80594 V 159.9683 c 0,-1.55448 1.25144,-2.80593 2.80593,-2.80593 z"
       id="rect1898" />
    <g
       transform="translate(703.02451,-2716.4044)"
       id="g1935">
      <g
         style="opacity:0.7;fill:#2704ff;fill-opacity:1;filter:url(#filter1248-4)"
         transform="translate(-461.86701,2883.7319)"
         id="g1921">
        <g
           aria-label="ASTROSOC"
           style="font-style:normal;font-variant:normal;font-weight:normal;font-stretch:normal;font-size:32.69683075px;line-height:1.25;font-family:Clip;-inkscape-font-specification:Clip;letter-spacing:0px;word-spacing:0px;fill:#2704ff;fill-opacity:1;stroke:none;stroke-width:0.26458332"
           id="text1918">
          <path
             d="m 64.33037,-3.8167291 h 0.526853 q 2.2511,0 3.177085,3.92745139 4.901331,14.17714171 5.651698,16.68368571 v 0.590714 q 0,1.293185 -1.820038,1.564595 h -0.383166 q -1.708282,0 -2.362857,-3.017433 -1.053707,-3.177084 -1.452838,-3.177084 -1.149498,-1.117568 -3.288841,-1.117568 -1.181429,0 -3.767799,0.590715 -0.447027,0 -0.590714,-0.654576 v -0.0479 q 0,-0.734402 2.091447,-0.973881 0.782298,-0.207548 1.8839,-0.207548 h 0.814227 q 2.953572,0 4.518166,2.362857 0.239479,0.447027 1.61249,4.518166 0.271409,0.383166 0.542819,0.383166 h 0.431061 q 0.431062,0 0.478958,-0.494923 -5.859247,-17.56177444 -6.513822,-18.9986469 -0.431062,-0.5907142 -1.181428,-0.5907142 h -0.319305 q -1.229324,0 -1.836004,2.53847464 L 56.140197,18.742168 q -0.223513,0.207549 -0.431062,0.207549 H 55.501587 Q 54.958769,18.83796 54.958769,18.406898 v -0.159652 q 0.319305,-1.101603 6.625578,-19.5893614 0.94195,-2.4746137 2.746023,-2.4746137 z"
             style="fill:#2704ff;fill-opacity:1;stroke-width:0.26458332"
             id="path826" />
          <path
             d="m 84.622201,-4.263756 h 0.94195 q 2.538475,0 4.77361,1.2931852 l 0.09579,0.3831659 v 0.047896 q 0,0.5587837 -0.718436,0.6545752 -2.474614,-1.0856369 -4.597992,-1.0856369 -4.917297,0 -6.370134,3.44849382 -0.335271,1.03774118 -0.335271,1.88389948 v 0.2235134 q 0,2.9695364 3.16112,3.9753471 0.957915,0.1596525 3.879555,0.2714093 3.224981,0.6066795 4.214826,1.7242469 1.660386,1.5486288 1.660386,3.5442858 v 0.606679 q 0,3.304807 -3.608146,5.587837 -2.171274,0.973881 -4.198861,0.973881 h -1.00581 q -2.538475,0 -4.981158,-1.181429 -0.670541,-0.702471 -0.670541,-1.245289 v -0.367201 q 0,-1.27722 1.388977,-1.676351 0.207548,-0.0479 0.494923,-0.0479 0.191583,0 2.55444,0.702471 0.846158,0.159652 1.708281,0.159652 h 0.287375 q 3.240945,0 3.767799,-2.650231 0,-1.021776 0.606679,-1.021776 h 0.111757 q 0.558784,0 0.654575,0.702471 0,2.937606 -3.256911,4.039208 -0.957915,0.271409 -1.995656,0.271409 h -0.223513 q -1.899865,0 -4.214826,-0.862123 h -0.111757 q -0.447027,0 -0.447027,0.542818 0,0.878089 4.550096,1.341081 5.332393,0 6.928918,-3.719903 0.223514,-0.67054 0.335271,-1.883899 0,-3.512355 -4.821506,-4.1988608 -3.256911,-0.095792 -4.326582,-0.4310617 -3.83166,-1.4847682 -3.83166,-5.1567756 V 2.4097182 q 0,-3.4325286 2.937606,-5.4281848 2.139343,-1.2452894 4.661852,-1.2452894 z"
             style="fill:#2704ff;fill-opacity:1;stroke-width:0.26458332"
             id="path828" />
          <path
             d="m 96.181043,-3.9444511 h 14.001527 q 1.62845,0.3672008 1.62845,1.5805597 v 0.5428185 q 0,0.98984547 -1.35704,1.5166987 -0.22352,0.0478957 -0.44703,0.0478957 h -4.77361 V 18.359002 q -0.11176,0.590715 -0.59072,0.590715 h -0.15965 q -0.49492,0 -0.60668,-0.702471 V -0.84719267 q 0,-0.76633193 0.76633,-0.76633193 h 5.36433 q 0.4151,0 0.49492,-0.4789575 -0.0319,-0.4949228 -0.43106,-0.4949228 H 96.292799 q -0.399131,0 -0.431061,0.4949228 0.06386,0.4789575 0.478957,0.4789575 h 5.428185 q 0.55878,0 0.65458,0.70247093 v 0.063861 q 0,0.44702698 -0.60668,0.59071422 h -5.476085 q -1.293185,0 -1.788108,-1.40494195 v -0.702471 q 0,-1.2133589 1.628456,-1.5805597 z"
             style="fill:#2704ff;fill-opacity:1;stroke-width:0.26458332"
             id="path830" />
          <path
             d="m 120.11295,-4.2477908 h 1.29319 q 4.75764,0 7.08857,2.8418144 1.13353,1.56459444 1.13353,3.4804244 v 0.6545752 q 0,4.5181656 -5.6038,6.210482 h -0.11176 v 0.047896 q 1.34108,0.8461583 1.96373,3.1611191 0.76633,2.88971 1.58056,4.182896 0.83019,1.30915 2.55444,1.30915 0.38316,0.271409 0.38316,0.542819 v 0.223513 q -0.11175,0.542819 -0.54282,0.542819 h -0.2714 q -3.62412,0 -5.06099,-6.753301 -0.7344,-2.6183008 -3.49639,-2.6183008 -0.54282,0 -0.63861,-0.702471 0,-0.6865057 1.94776,-0.8621235 5.93907,-1.3251157 5.93907,-5.2366018 V 2.074448 q 0,-3.3686677 -3.81569,-4.5181656 -1.74021,-0.4949227 -3.64008,-0.4949227 -2.79392,0.1117567 -4.51816,0.4470269 V 16.554929 q 0,1.085637 0.76633,1.085637 0.70247,0 0.70247,-0.814228 V -1.1345672 q 0.14369,-0.6545752 0.65458,-0.6545752 0.70247,0.191583 0.70247,0.702471 V 16.602825 q 0,1.708282 -1.30915,2.235135 -0.20755,0.111757 -0.59072,0.111757 h -0.49492 q -1.22932,0 -1.74021,-1.692317 V -3.1461886 q 0,-0.6705405 2.07548,-0.830193 1.4688,-0.2714092 3.04936,-0.2714092 z"
             style="fill:#2704ff;fill-opacity:1;stroke-width:0.26458332"
             id="path832" />
          <path
             d="m 143.40625,-3.9444511 h 0.95791 q 5.39626,0 8.20614,5.1088798 1.37301,3.0333974 1.37301,5.6836288 v 0.5268533 q -0.33527,1.9956561 -1.94776,1.9956561 H 151.788 q -1.38897,0 -1.94776,-1.6763512 0,-4.5022003 -2.53847,-6.96084869 -1.48477,-1.1973937 -3.46446,-1.1973937 -3.95938,0 -5.42819,4.19886059 -0.7344,2.2511002 -0.7344,4.1669301 -0.3193,0.3672007 -0.57475,0.3672007 -0.6865,-0.095791 -0.6865,-0.574749 V 7.582459 q 0,-4.1030691 2.36285,-7.15243172 2.02759,-2.21916968 5.01309,-2.21916968 5.3324,0 6.99278,6.2583778 0.25545,1.2293242 0.3672,3.1132236 0.27141,0.4789575 0.57475,0.4789575 h 0.20755 q 0.60668,0 0.75037,-0.7982625 0,-3.9274513 -2.31496,-7.15243171 -2.39479,-2.74602289 -6.0668,-2.74602289 h -0.3672 q -0.0479,0 -0.0479,-0.047896 l -0.0958,0.047896 h -0.38316 q -5.34836,0 -7.67929,5.7474898 -0.89405,2.7939186 -0.89405,4.677818 0,3.3207718 1.78811,6.4180298 2.42671,3.432529 6.48189,3.432529 h 0.30334 q 0.12772,0 0.22351,0.0479 0.0798,-0.0479 0.20755,-0.0479 h 0.15965 q 4.82151,0 7.35998,-4.534131 0.39913,-0.63861 0.95792,-2.362857 0.3193,-0.207548 0.52685,-0.207548 0.62264,0.143687 0.62264,0.622645 v 0.0479 q -0.95791,3.640076 -3.41656,5.587837 -2.69813,2.155309 -6.00293,2.155309 h -0.89406 q -5.22063,0 -7.99859,-4.677819 -1.58056,-3.081293 -1.58056,-6.1625858 V 7.4228065 q 0,-3.7677988 2.36286,-7.51963245 2.93761,-3.84762515 7.47174,-3.84762515 z"
             style="fill:#2704ff;fill-opacity:1;stroke-width:0.26458332"
             id="path834" />
          <path
             d="m 164.89548,-4.263756 h 0.94195 q 2.53847,0 4.77361,1.2931852 l 0.0958,0.3831659 v 0.047896 q 0,0.5587837 -0.71844,0.6545752 -2.47461,-1.0856369 -4.59799,-1.0856369 -4.9173,0 -6.37013,3.44849382 -0.33528,1.03774118 -0.33528,1.88389948 v 0.2235134 q 0,2.9695364 3.16112,3.9753471 0.95792,0.1596525 3.87956,0.2714093 3.22498,0.6066795 4.21483,1.7242469 1.66038,1.5486288 1.66038,3.5442858 v 0.606679 q 0,3.304807 -3.60814,5.587837 -2.17128,0.973881 -4.19887,0.973881 h -1.00581 q -2.53847,0 -4.98115,-1.181429 -0.67054,-0.702471 -0.67054,-1.245289 v -0.367201 q 0,-1.27722 1.38897,-1.676351 0.20755,-0.0479 0.49493,-0.0479 0.19158,0 2.55443,0.702471 0.84616,0.159652 1.70829,0.159652 h 0.28737 q 3.24095,0 3.7678,-2.650231 0,-1.021776 0.60668,-1.021776 h 0.11176 q 0.55878,0 0.65457,0.702471 0,2.937606 -3.25691,4.039208 -0.95791,0.271409 -1.99566,0.271409 h -0.22351 q -1.89986,0 -4.21482,-0.862123 h -0.11176 q -0.44703,0 -0.44703,0.542818 0,0.878089 4.5501,1.341081 5.33239,0 6.92892,-3.719903 0.22351,-0.67054 0.33527,-1.883899 0,-3.512355 -4.82151,-4.1988608 -3.25691,-0.095792 -4.32658,-0.4310617 -3.83166,-1.4847682 -3.83166,-5.1567756 V 2.4097182 q 0,-3.4325286 2.9376,-5.4281848 2.13935,-1.2452894 4.66186,-1.2452894 z"
             style="fill:#2704ff;fill-opacity:1;stroke-width:0.26458332"
             id="path836" />
          <path
             d="m 184.66046,-3.9444511 h 0.95791 q 5.39626,0 8.20614,5.1088798 1.37301,3.0333974 1.37301,5.6836288 v 0.5268533 q -0.33527,1.9956561 -1.94776,1.9956561 h -0.20755 q -1.38897,0 -1.94776,-1.6763512 0,-4.5022003 -2.53847,-6.96084869 -1.48477,-1.1973937 -3.46446,-1.1973937 -3.95938,0 -5.42818,4.19886059 -0.73441,2.2511002 -0.73441,4.1669301 -0.3193,0.3672007 -0.57475,0.3672007 -0.6865,-0.095791 -0.6865,-0.574749 V 7.582459 q 0,-4.1030691 2.36286,-7.15243172 2.02758,-2.21916968 5.01308,-2.21916968 5.3324,0 6.99278,6.2583778 0.25545,1.2293242 0.3672,3.1132236 0.27141,0.4789575 0.57475,0.4789575 h 0.20755 q 0.60668,0 0.75037,-0.7982625 0,-3.9274513 -2.31496,-7.15243171 -2.39479,-2.74602289 -6.0668,-2.74602289 h -0.3672 q -0.0479,0 -0.0479,-0.047896 l -0.0958,0.047896 h -0.38316 q -5.34836,0 -7.67929,5.7474898 -0.89405,2.7939186 -0.89405,4.677818 0,3.3207718 1.78811,6.4180298 2.42672,3.432529 6.48189,3.432529 h 0.30334 q 0.12772,0 0.22351,0.0479 0.0798,-0.0479 0.20755,-0.0479 h 0.15965 q 4.82151,0 7.35998,-4.534131 0.39913,-0.63861 0.95792,-2.362857 0.3193,-0.207548 0.52685,-0.207548 0.62265,0.143687 0.62265,0.622645 v 0.0479 q -0.95792,3.640076 -3.41657,5.587837 -2.69813,2.155309 -6.00293,2.155309 h -0.89406 q -5.22063,0 -7.99859,-4.677819 -1.58056,-3.081293 -1.58056,-6.1625858 V 7.4228065 q 0,-3.7677988 2.36286,-7.51963245 2.93761,-3.84762515 7.47174,-3.84762515 z"
             style="fill:#2704ff;fill-opacity:1;stroke-width:0.26458332"
             id="path838" />
          <path
             d="m 209.56625,-3.9444511 h 1.00581 q 2.17128,0 4.69379,1.0058108 0.2714,0.2714092 0.2714,0.4789574 v 0.3033398 q -0.22351,0.4310617 -0.57474,0.4310617 h -0.11176 q -2.55444,-0.957915 -4.85344,-0.957915 -6.41803,0 -9.29177,5.4441501 -1.05371,2.2511002 -1.05371,5.380289 0,3.7039383 2.53848,6.7533003 2.88971,2.793919 7.16839,2.793919 2.41076,0 4.53413,-0.750367 0.11176,-0.159652 0.11176,-0.255444 -0.0639,-0.478957 -0.47896,-0.478957 -2.17127,0.431061 -3.57621,0.431061 h -0.38317 q -5.6517,0 -7.64735,-4.80554 -0.68651,-1.756177 -0.68651,-3.8476248 V 7.5026328 q 0,-0.4789575 0.68651,-0.574749 0.51089,0 0.63861,0.7822972 v 0.2075482 q 0,5.0130888 3.59218,6.7054048 1.5167,0.686506 3.36867,0.686506 h 0.47895 q 1.27722,0 3.36867,-0.415097 h 0.15965 q 1.80408,0.223514 1.80408,1.788108 0,1.628456 -2.79392,1.995656 -1.4688,0.27141 -2.58637,0.27141 h -1.16547 q -4.0392,0 -7.32805,-2.953572 -3.06532,-3.384632 -3.06532,-7.5994583 V 7.2950845 q 0,-5.4281848 4.21482,-8.9245744 3.12919,-2.3149612 6.96085,-2.3149612 z"
             style="fill:#2704ff;fill-opacity:1;stroke-width:0.26458332"
             id="path840" />
        </g>
      </g>
      <g
         id="g1928"
         transform="translate(-461.86701,2872.1017)"
         style="opacity:0.9;fill:#2704ff;fill-opacity:1;filter:url(#filter1204-7)">
        <g
           aria-label="ASTROSOC"
           style="font-style:normal;font-variant:normal;font-weight:normal;font-stretch:normal;font-size:32.69683075px;line-height:1.25;font-family:Clip;-inkscape-font-specification:Clip;letter-spacing:0px;word-spacing:0px;fill:#2704ff;fill-opacity:1;stroke:none;stroke-width:0.26458332"
           id="text1925">
          <path
             d="m 64.330366,7.81352 h 0.526853 q 2.251101,0 3.177085,3.927451 4.901332,14.177142 5.651698,16.683686 v 0.590714 q 0,1.293185 -1.820038,1.564595 h -0.383166 q -1.708282,0 -2.362857,-3.017433 -1.053706,-3.177084 -1.452838,-3.177084 -1.149498,-1.117568 -3.288841,-1.117568 -1.181429,0 -3.767799,0.590715 -0.447027,0 -0.590714,-0.654576 v -0.0479 q 0,-0.734402 2.091448,-0.973881 0.782297,-0.207548 1.883899,-0.207548 h 0.814228 q 2.953571,0 4.518165,2.362857 0.239479,0.447027 1.61249,4.518166 0.27141,0.383166 0.542819,0.383166 h 0.431062 q 0.431061,0 0.478957,-0.494923 Q 66.533571,11.182188 65.878995,9.7453151 65.447934,9.1546009 64.697567,9.1546009 h -0.319305 q -1.229324,0 -1.836004,2.5384751 l -6.402065,18.679341 q -0.223513,0.207549 -0.431062,0.207549 H 55.501583 Q 54.958765,30.468209 54.958765,30.037147 V 29.877495 Q 55.27807,28.775892 61.584343,10.288134 62.526293,7.81352 64.330366,7.81352 Z"
             style="fill:#2704ff;fill-opacity:1;stroke-width:0.26458332"
             id="path843" />
          <path
             d="m 84.622198,7.366493 h 0.941949 q 2.538475,0 4.77361,1.2931852 l 0.09579,0.383166 v 0.047896 q 0,0.5587837 -0.718436,0.6545752 -2.474613,-1.0856369 -4.597992,-1.0856369 -4.917296,0 -6.370134,3.4484938 -0.33527,1.037741 -0.33527,1.883899 v 0.223514 q 0,2.969536 3.161119,3.975347 0.957915,0.159653 3.879556,0.271409 3.22498,0.60668 4.214825,1.724247 1.660386,1.548629 1.660386,3.544286 v 0.606679 q 0,3.304807 -3.608146,5.587837 -2.171274,0.973881 -4.198861,0.973881 h -1.00581 q -2.538475,0 -4.981158,-1.181429 -0.670541,-0.702471 -0.670541,-1.245289 v -0.367201 q 0,-1.27722 1.388977,-1.676351 0.207548,-0.0479 0.494923,-0.0479 0.191583,0 2.55444,0.702471 0.846158,0.159652 1.708281,0.159652 h 0.287375 q 3.240946,0 3.767799,-2.650231 0,-1.021776 0.606679,-1.021776 h 0.111757 q 0.558784,0 0.654575,0.702471 0,2.937606 -3.256911,4.039208 -0.957915,0.271409 -1.995656,0.271409 h -0.223513 q -1.899865,0 -4.214826,-0.862123 h -0.111757 q -0.447027,0 -0.447027,0.542818 0,0.878089 4.550096,1.341081 5.332394,0 6.928918,-3.719903 0.223514,-0.67054 0.335271,-1.883899 0,-3.512355 -4.821506,-4.198861 -3.25691,-0.09579 -4.326582,-0.431061 -3.83166,-1.484769 -3.83166,-5.156776 v -0.175618 q 0,-3.432528 2.937606,-5.4281846 2.139343,-1.2452894 4.661853,-1.2452894 z"
             style="fill:#2704ff;fill-opacity:1;stroke-width:0.26458332"
             id="path845" />
          <path
             d="m 96.181039,7.685798 h 14.001521 q 1.62846,0.3672007 1.62846,1.5805597 v 0.5428184 q 0,0.9898459 -1.35705,1.5166989 -0.22351,0.0479 -0.44703,0.0479 h -4.7736 v 18.61548 q -0.11176,0.590715 -0.59072,0.590715 h -0.15965 q -0.49492,0 -0.60668,-0.702471 V 10.783056 q 0,-0.766332 0.76633,-0.766332 h 5.36432 q 0.4151,0 0.49493,-0.4789571 -0.0319,-0.4949227 -0.43106,-0.4949227 H 96.292796 q -0.399132,0 -0.431062,0.4949227 0.06386,0.4789571 0.478957,0.4789571 h 5.428189 q 0.55878,0 0.65457,0.702471 v 0.06386 q 0,0.447027 -0.60668,0.590715 h -5.476079 q -1.293185,0 -1.788108,-1.4049424 V 9.2663577 q 0,-1.213359 1.628456,-1.5805597 z"
             style="fill:#2704ff;fill-opacity:1;stroke-width:0.26458332"
             id="path847" />
          <path
             d="m 120.11295,7.3824582 h 1.29318 q 4.75765,0 7.08857,2.8418148 1.13354,1.564594 1.13354,3.480424 v 0.654575 q 0,4.518166 -5.60381,6.210482 h -0.11175 v 0.0479 q 1.34108,0.846158 1.96372,3.161119 0.76634,2.88971 1.58056,4.182896 0.8302,1.30915 2.55444,1.30915 0.38317,0.271409 0.38317,0.542819 v 0.223513 q -0.11176,0.542819 -0.54282,0.542819 h -0.27141 q -3.62411,0 -5.06098,-6.753301 -0.7344,-2.618301 -3.49639,-2.618301 -0.54282,0 -0.63861,-0.702471 0,-0.686505 1.94776,-0.862123 5.93907,-1.325116 5.93907,-5.236602 v -0.702471 q 0,-3.368668 -3.81569,-4.5181656 -1.74022,-0.4949227 -3.64008,-0.4949227 -2.79392,0.1117567 -4.51817,0.447027 V 28.185178 q 0,1.085637 0.76634,1.085637 0.70247,0 0.70247,-0.814228 V 10.495682 q 0.14368,-0.6545754 0.65457,-0.6545754 0.70247,0.1915834 0.70247,0.7024714 v 17.689496 q 0,1.708282 -1.30915,2.235135 -0.20755,0.111757 -0.59071,0.111757 h -0.49492 q -1.22933,0 -1.74022,-1.692317 V 8.4840604 q 0,-0.6705404 2.07549,-0.8301929 1.4688,-0.2714093 3.04936,-0.2714093 z"
             style="fill:#2704ff;fill-opacity:1;stroke-width:0.26458332"
             id="path849" />
          <path
             d="m 143.40624,7.685798 h 0.95792 q 5.39625,0 8.20614,5.10888 1.37301,3.033397 1.37301,5.683629 v 0.526853 q -0.33527,1.995656 -1.94776,1.995656 H 151.788 q -1.38898,0 -1.94776,-1.676351 0,-4.502201 -2.53848,-6.960849 -1.48476,-1.197394 -3.46446,-1.197394 -3.95938,0 -5.42818,4.198861 -0.7344,2.2511 -0.7344,4.16693 -0.31931,0.367201 -0.57475,0.367201 -0.68651,-0.09579 -0.68651,-0.574749 v -0.111757 q 0,-4.103069 2.36286,-7.152432 2.02759,-2.2191694 5.01309,-2.2191694 5.33239,0 6.99278,6.2583774 0.25544,1.229325 0.3672,3.113224 0.27141,0.478958 0.57475,0.478958 h 0.20755 q 0.60668,0 0.75036,-0.798263 0,-3.927451 -2.31496,-7.152432 -2.39479,-2.7460226 -6.06679,-2.7460226 h -0.3672 q -0.0479,0 -0.0479,-0.047896 l -0.0958,0.047896 h -0.38317 q -5.34836,0 -7.67928,5.7474896 -0.89406,2.793919 -0.89406,4.677818 0,3.320772 1.78811,6.418031 2.42672,3.432528 6.48189,3.432528 h 0.30334 q 0.12772,0 0.22352,0.0479 0.0798,-0.0479 0.20754,-0.0479 h 0.15966 q 4.8215,0 7.35998,-4.534131 0.39913,-0.63861 0.95791,-2.362857 0.31931,-0.207548 0.52686,-0.207548 0.62264,0.143687 0.62264,0.622645 v 0.0479 q -0.95791,3.640076 -3.41656,5.587837 -2.69813,2.155309 -6.00294,2.155309 h -0.89405 q -5.22064,0 -7.99859,-4.677818 -1.58056,-3.081294 -1.58056,-6.162587 v -0.686505 q 0,-3.767799 2.36286,-7.519633 2.9376,-3.847625 7.47173,-3.847625 z"
             style="fill:#2704ff;fill-opacity:1;stroke-width:0.26458332"
             id="path851" />
          <path
             d="m 164.89547,7.366493 h 0.94195 q 2.53848,0 4.77361,1.2931852 l 0.0958,0.383166 v 0.047896 q 0,0.5587837 -0.71843,0.6545752 -2.47462,-1.0856369 -4.59799,-1.0856369 -4.9173,0 -6.37014,3.4484938 -0.33527,1.037741 -0.33527,1.883899 v 0.223514 q 0,2.969536 3.16112,3.975347 0.95792,0.159653 3.87956,0.271409 3.22498,0.60668 4.21482,1.724247 1.66039,1.548629 1.66039,3.544286 v 0.606679 q 0,3.304807 -3.60815,5.587837 -2.17127,0.973881 -4.19886,0.973881 h -1.00581 q -2.53847,0 -4.98116,-1.181429 -0.67054,-0.702471 -0.67054,-1.245289 v -0.367201 q 0,-1.27722 1.38898,-1.676351 0.20755,-0.0479 0.49492,-0.0479 0.19158,0 2.55444,0.702471 0.84616,0.159652 1.70828,0.159652 h 0.28738 q 3.24094,0 3.7678,-2.650231 0,-1.021776 0.60668,-1.021776 h 0.11175 q 0.55879,0 0.65458,0.702471 0,2.937606 -3.25691,4.039208 -0.95792,0.271409 -1.99566,0.271409 h -0.22351 q -1.89987,0 -4.21483,-0.862123 h -0.11176 q -0.44702,0 -0.44702,0.542818 0,0.878089 4.55009,1.341081 5.3324,0 6.92892,-3.719903 0.22352,-0.67054 0.33527,-1.883899 0,-3.512355 -4.8215,-4.198861 -3.25691,-0.09579 -4.32659,-0.431061 -3.83166,-1.484769 -3.83166,-5.156776 v -0.175618 q 0,-3.432528 2.93761,-5.4281846 2.13934,-1.2452894 4.66185,-1.2452894 z"
             style="fill:#2704ff;fill-opacity:1;stroke-width:0.26458332"
             id="path853" />
          <path
             d="m 184.66045,7.685798 h 0.95792 q 5.39625,0 8.20614,5.10888 1.37301,3.033397 1.37301,5.683629 v 0.526853 q -0.33527,1.995656 -1.94776,1.995656 h -0.20755 q -1.38898,0 -1.94776,-1.676351 0,-4.502201 -2.53847,-6.960849 -1.48477,-1.197394 -3.46446,-1.197394 -3.95939,0 -5.42819,4.198861 -0.7344,2.2511 -0.7344,4.16693 -0.31931,0.367201 -0.57475,0.367201 -0.6865,-0.09579 -0.6865,-0.574749 v -0.111757 q 0,-4.103069 2.36285,-7.152432 2.02759,-2.2191694 5.01309,-2.2191694 5.33239,0 6.99278,6.2583774 0.25544,1.229325 0.3672,3.113224 0.27141,0.478958 0.57475,0.478958 h 0.20755 q 0.60668,0 0.75036,-0.798263 0,-3.927451 -2.31496,-7.152432 -2.39478,-2.7460226 -6.06679,-2.7460226 h -0.3672 q -0.0479,0 -0.0479,-0.047896 l -0.0958,0.047896 h -0.38317 q -5.34835,0 -7.67928,5.7474896 -0.89405,2.793919 -0.89405,4.677818 0,3.320772 1.7881,6.418031 2.42672,3.432528 6.48189,3.432528 h 0.30334 q 0.12773,0 0.22352,0.0479 0.0798,-0.0479 0.20755,-0.0479 h 0.15965 q 4.8215,0 7.35998,-4.534131 0.39913,-0.63861 0.95791,-2.362857 0.31931,-0.207548 0.52686,-0.207548 0.62264,0.143687 0.62264,0.622645 v 0.0479 q -0.95791,3.640076 -3.41656,5.587837 -2.69813,2.155309 -6.00294,2.155309 h -0.89405 q -5.22064,0 -7.99859,-4.677818 -1.58056,-3.081294 -1.58056,-6.162587 v -0.686505 q 0,-3.767799 2.36286,-7.519633 2.9376,-3.847625 7.47173,-3.847625 z"
             style="fill:#2704ff;fill-opacity:1;stroke-width:0.26458332"
             id="path855" />
          <path
             d="m 209.56625,7.685798 h 1.00581 q 2.17127,0 4.69378,1.0058107 0.27141,0.2714092 0.27141,0.4789575 v 0.3033397 q -0.22351,0.4310617 -0.57475,0.4310617 h -0.11175 q -2.55444,-0.9579149 -4.85344,-0.9579149 -6.41803,0 -9.29178,5.4441503 -1.0537,2.2511 -1.0537,5.380289 0,3.703938 2.53847,6.7533 2.88971,2.793919 7.1684,2.793919 2.41075,0 4.53413,-0.750367 0.11176,-0.159652 0.11176,-0.255444 -0.0639,-0.478957 -0.47896,-0.478957 -2.17127,0.431061 -3.57622,0.431061 h -0.38316 q -5.6517,0 -7.64736,-4.80554 -0.6865,-1.756177 -0.6865,-3.847625 v -0.478957 q 0,-0.478958 0.6865,-0.574749 0.51089,0 0.63861,0.782297 v 0.207548 q 0,5.013089 3.59218,6.705405 1.5167,0.686506 3.36867,0.686506 h 0.47896 q 1.27722,0 3.36867,-0.415097 h 0.15965 q 1.80407,0.223514 1.80407,1.788108 0,1.628456 -2.79392,1.995656 -1.4688,0.27141 -2.58637,0.27141 h -1.16546 q -4.03921,0 -7.32805,-2.953572 -3.06533,-3.384632 -3.06533,-7.599458 v -1.101602 q 0,-5.428185 4.21483,-8.924575 3.12919,-2.314961 6.96085,-2.314961 z"
             style="fill:#2704ff;fill-opacity:1;stroke-width:0.26458332"
             id="path857" />
        </g>
      </g>
      <g
         aria-label="ASTROSOC"
         style="font-style:normal;font-variant:normal;font-weight:normal;font-stretch:normal;font-size:32.69683075px;line-height:1.25;font-family:Clip;-inkscape-font-specification:Clip;letter-spacing:0px;word-spacing:0px;fill:#eae7ff;fill-opacity:1;stroke:none;stroke-width:0.26458332"
         id="text1932">
        <path
           d="m -397.53663,2879.9152 h 0.52685 q 2.2511,0 3.17708,3.9274 4.90134,14.1772 5.6517,16.6837 v 0.5907 q 0,1.2932 -1.82004,1.5646 h -0.38316 q -1.70828,0 -2.36286,-3.0174 -1.05371,-3.1771 -1.45284,-3.1771 -1.1495,-1.1175 -3.28884,-1.1175 -1.18143,0 -3.7678,0.5907 -0.44702,0 -0.59071,-0.6546 v -0.048 q 0,-0.7344 2.09145,-0.9739 0.78229,-0.2075 1.8839,-0.2075 h 0.81422 q 2.95357,0 4.51817,2.3628 0.23948,0.4471 1.61249,4.5182 0.27141,0.3832 0.54282,0.3832 h 0.43106 q 0.43106,0 0.47896,-0.495 -5.85925,-17.5617 -6.51383,-18.9986 -0.43106,-0.5907 -1.18142,-0.5907 h -0.31931 q -1.22932,0 -1.836,2.5385 l -6.40207,18.6793 q -0.22351,0.2075 -0.43106,0.2075 h -0.20755 q -0.54282,-0.1117 -0.54282,-0.5428 v -0.1596 q 0.31931,-1.1016 6.62558,-19.5894 0.94195,-2.4746 2.74603,-2.4746 z"
           style="fill:#eae7ff;fill-opacity:1;stroke-width:0.26458332"
           id="path860" />
        <path
           d="m -377.2448,2879.4682 h 0.94195 q 2.53847,0 4.77361,1.2932 l 0.0958,0.3831 v 0.048 q 0,0.5588 -0.71844,0.6546 -2.47461,-1.0856 -4.59799,-1.0856 -4.9173,0 -6.37013,3.4484 -0.33527,1.0378 -0.33527,1.8839 v 0.2236 q 0,2.9695 3.16111,3.9753 0.95792,0.1597 3.87956,0.2714 3.22498,0.6067 4.21483,1.7243 1.66038,1.5486 1.66038,3.5442 v 0.6067 q 0,3.3048 -3.60814,5.5879 -2.17128,0.9738 -4.19887,0.9738 h -1.00581 q -2.53847,0 -4.98115,-1.1814 -0.67054,-0.7025 -0.67054,-1.2453 v -0.3672 q 0,-1.2772 1.38897,-1.6763 0.20755,-0.048 0.49493,-0.048 0.19158,0 2.55444,0.7025 0.84615,0.1596 1.70828,0.1596 h 0.28737 q 3.24095,0 3.7678,-2.6502 0,-1.0218 0.60668,-1.0218 h 0.11176 q 0.55878,0 0.65457,0.7025 0,2.9376 -3.25691,4.0392 -0.95791,0.2714 -1.99566,0.2714 h -0.22351 q -1.89986,0 -4.21482,-0.8621 h -0.11176 q -0.44703,0 -0.44703,0.5428 0,0.8781 4.5501,1.3411 5.33239,0 6.92892,-3.7199 0.22351,-0.6706 0.33527,-1.8839 0,-3.5124 -4.82151,-4.1989 -3.25691,-0.096 -4.32658,-0.4311 -3.83166,-1.4847 -3.83166,-5.1567 v -0.1757 q 0,-3.4325 2.9376,-5.4281 2.13935,-1.2453 4.66186,-1.2453 z"
           style="fill:#eae7ff;fill-opacity:1;stroke-width:0.26458332"
           id="path862" />
        <path
           d="m -365.68596,2879.7875 h 14.00152 q 1.62846,0.3672 1.62846,1.5805 v 0.5429 q 0,0.9898 -1.35705,1.5166 -0.22351,0.048 -0.44703,0.048 h -4.77361 v 18.6155 q -0.11175,0.5907 -0.59071,0.5907 h -0.15965 q -0.49492,0 -0.60668,-0.7024 v -19.0945 q 0,-0.7663 0.76633,-0.7663 h 5.36432 q 0.4151,0 0.49493,-0.479 -0.0319,-0.4949 -0.43106,-0.4949 h -13.77801 q -0.39914,0 -0.43107,0.4949 0.0639,0.479 0.47896,0.479 h 5.42819 q 0.55878,0 0.65457,0.7025 v 0.064 q 0,0.4471 -0.60668,0.5907 h -5.47608 q -1.29318,0 -1.78811,-1.4049 v -0.7025 q 0,-1.2133 1.62846,-1.5805 z"
           style="fill:#eae7ff;fill-opacity:1;stroke-width:0.26458332"
           id="path864" />
        <path
           d="m -341.75405,2879.4841 h 1.29318 q 4.75765,0 7.08857,2.8418 1.13354,1.5646 1.13354,3.4805 v 0.6545 q 0,4.5182 -5.60381,6.2105 h -0.11175 v 0.048 q 1.34108,0.8462 1.96372,3.1611 0.76634,2.8898 1.58056,4.1829 0.8302,1.3092 2.55444,1.3092 0.38317,0.2714 0.38317,0.5428 v 0.2235 q -0.11176,0.5428 -0.54282,0.5428 h -0.27141 q -3.62411,0 -5.06098,-6.7533 -0.7344,-2.6183 -3.49639,-2.6183 -0.54282,0 -0.63861,-0.7024 0,-0.6865 1.94776,-0.8622 5.93907,-1.3251 5.93907,-5.2366 v -0.7024 q 0,-3.3687 -3.81569,-4.5182 -1.74022,-0.4949 -3.64008,-0.4949 -2.79392,0.1117 -4.51817,0.447 v 19.0466 q 0,1.0856 0.76634,1.0856 0.70247,0 0.70247,-0.8142 v -17.9609 q 0.14368,-0.6546 0.65457,-0.6546 0.70247,0.1916 0.70247,0.7025 v 17.6894 q 0,1.7083 -1.30915,2.2352 -0.20755,0.1117 -0.59071,0.1117 h -0.49492 q -1.22933,0 -1.74022,-1.6923 v -20.4036 q 0,-0.6705 2.07549,-0.8302 1.4688,-0.2714 3.04936,-0.2714 z"
           style="fill:#eae7ff;fill-opacity:1;stroke-width:0.26458332"
           id="path866" />
        <path
           d="m -318.46076,2879.7875 h 0.95792 q 5.39625,0 8.20614,5.1089 1.37301,3.0334 1.37301,5.6836 v 0.5268 q -0.33527,1.9957 -1.94776,1.9957 h -0.20755 q -1.38898,0 -1.94776,-1.6764 0,-4.5022 -2.53848,-6.9608 -1.48477,-1.1974 -3.46446,-1.1974 -3.95938,0 -5.42818,4.1989 -0.7344,2.2511 -0.7344,4.1669 -0.31931,0.3672 -0.57475,0.3672 -0.68651,-0.096 -0.68651,-0.5748 v -0.1117 q 0,-4.1031 2.36286,-7.1524 2.02759,-2.2192 5.01309,-2.2192 5.33239,0 6.99278,6.2584 0.25544,1.2293 0.3672,3.1132 0.27141,0.4789 0.57475,0.4789 h 0.20755 q 0.60667,0 0.75036,-0.7982 0,-3.9275 -2.31496,-7.1525 -2.39479,-2.746 -6.06679,-2.746 h -0.3672 q -0.0479,0 -0.0479,-0.048 l -0.0958,0.048 h -0.38317 q -5.34836,0 -7.67928,5.7475 -0.89406,2.7939 -0.89406,4.6778 0,3.3208 1.78811,6.4181 2.42672,3.4325 6.48189,3.4325 h 0.30334 q 0.12772,0 0.22352,0.048 0.0798,-0.048 0.20754,-0.048 h 0.15966 q 4.8215,0 7.35998,-4.5341 0.39913,-0.6387 0.95791,-2.3629 0.31931,-0.2075 0.52685,-0.2075 0.62265,0.1436 0.62265,0.6226 v 0.048 q -0.95792,3.6401 -3.41656,5.5878 -2.69813,2.1553 -6.00294,2.1553 h -0.89405 q -5.22064,0 -7.99859,-4.6778 -1.58056,-3.0813 -1.58056,-6.1626 v -0.6865 q 0,-3.7678 2.36286,-7.5196 2.9376,-3.8476 7.47173,-3.8476 z"
           style="fill:#eae7ff;fill-opacity:1;stroke-width:0.26458332"
           id="path868" />
        <path
           d="m -296.97153,2879.4682 h 0.94195 q 2.53848,0 4.77361,1.2932 l 0.0958,0.3831 v 0.048 q 0,0.5588 -0.71843,0.6546 -2.47462,-1.0856 -4.59799,-1.0856 -4.9173,0 -6.37014,3.4484 -0.33527,1.0378 -0.33527,1.8839 v 0.2236 q 0,2.9695 3.16112,3.9753 0.95791,0.1597 3.87956,0.2714 3.22498,0.6067 4.21482,1.7243 1.66039,1.5486 1.66039,3.5442 v 0.6067 q 0,3.3048 -3.60815,5.5879 -2.17127,0.9738 -4.19886,0.9738 h -1.00581 q -2.53848,0 -4.98116,-1.1814 -0.67054,-0.7025 -0.67054,-1.2453 v -0.3672 q 0,-1.2772 1.38898,-1.6763 0.20755,-0.048 0.49492,-0.048 0.19158,0 2.55444,0.7025 0.84616,0.1596 1.70828,0.1596 h 0.28738 q 3.24094,0 3.7678,-2.6502 0,-1.0218 0.60668,-1.0218 h 0.11175 q 0.55879,0 0.65458,0.7025 0,2.9376 -3.25691,4.0392 -0.95792,0.2714 -1.99566,0.2714 h -0.22351 q -1.89987,0 -4.21483,-0.8621 h -0.11176 q -0.44702,0 -0.44702,0.5428 0,0.8781 4.55009,1.3411 5.3324,0 6.92892,-3.7199 0.22351,-0.6706 0.33527,-1.8839 0,-3.5124 -4.8215,-4.1989 -3.25691,-0.096 -4.32659,-0.4311 -3.83166,-1.4847 -3.83166,-5.1567 v -0.1757 q 0,-3.4325 2.93761,-5.4281 2.13934,-1.2453 4.66185,-1.2453 z"
           style="fill:#eae7ff;fill-opacity:1;stroke-width:0.26458332"
           id="path870" />
        <path
           d="m -277.20655,2879.7875 h 0.95792 q 5.39625,0 8.20614,5.1089 1.37301,3.0334 1.37301,5.6836 v 0.5268 q -0.33527,1.9957 -1.94776,1.9957 h -0.20755 q -1.38898,0 -1.94776,-1.6764 0,-4.5022 -2.53848,-6.9608 -1.48476,-1.1974 -3.46445,-1.1974 -3.95939,0 -5.42819,4.1989 -0.7344,2.2511 -0.7344,4.1669 -0.31931,0.3672 -0.57475,0.3672 -0.68651,-0.096 -0.68651,-0.5748 v -0.1117 q 0,-4.1031 2.36286,-7.1524 2.02759,-2.2192 5.01309,-2.2192 5.33239,0 6.99278,6.2584 0.25544,1.2293 0.3672,3.1132 0.27141,0.4789 0.57475,0.4789 h 0.20755 q 0.60668,0 0.75036,-0.7982 0,-3.9275 -2.31496,-7.1525 -2.39478,-2.746 -6.06679,-2.746 h -0.3672 q -0.0479,0 -0.0479,-0.048 l -0.0958,0.048 h -0.38317 q -5.34835,0 -7.67928,5.7475 -0.89406,2.7939 -0.89406,4.6778 0,3.3208 1.78811,6.4181 2.42672,3.4325 6.48189,3.4325 h 0.30334 q 0.12773,0 0.22352,0.048 0.0798,-0.048 0.20755,-0.048 h 0.15965 q 4.8215,0 7.35998,-4.5341 0.39913,-0.6387 0.95791,-2.3629 0.31931,-0.2075 0.52686,-0.2075 0.62264,0.1436 0.62264,0.6226 v 0.048 q -0.95791,3.6401 -3.41656,5.5878 -2.69813,2.1553 -6.00294,2.1553 h -0.89405 q -5.22064,0 -7.99859,-4.6778 -1.58056,-3.0813 -1.58056,-6.1626 v -0.6865 q 0,-3.7678 2.36286,-7.5196 2.9376,-3.8476 7.47173,-3.8476 z"
           style="fill:#eae7ff;fill-opacity:1;stroke-width:0.26458332"
           id="path872" />
        <path
           d="m -252.30075,2879.7875 h 1.00581 q 2.17127,0 4.69378,1.0058 0.27141,0.2714 0.27141,0.4789 v 0.3034 q -0.22351,0.431 -0.57475,0.431 h -0.11176 q -2.55444,-0.9579 -4.85343,-0.9579 -6.41803,0 -9.29178,5.4442 -1.0537,2.2511 -1.0537,5.3803 0,3.7039 2.53847,6.7533 2.88971,2.7939 7.1684,2.7939 2.41075,0 4.53413,-0.7504 0.11176,-0.1596 0.11176,-0.2554 -0.0639,-0.479 -0.47896,-0.479 -2.17127,0.4311 -3.57622,0.4311 h -0.38316 q -5.6517,0 -7.64736,-4.8056 -0.6865,-1.7561 -0.6865,-3.8476 v -0.4789 q 0,-0.479 0.6865,-0.5748 0.51089,0 0.63861,0.7823 v 0.2076 q 0,5.013 3.59218,6.7054 1.5167,0.6865 3.36867,0.6865 h 0.47896 q 1.27722,0 3.36867,-0.4151 h 0.15965 q 1.80407,0.2235 1.80407,1.7881 0,1.6284 -2.79392,1.9956 -1.4688,0.2714 -2.58637,0.2714 h -1.16546 q -4.03921,0 -7.32805,-2.9535 -3.06533,-3.3847 -3.06533,-7.5995 v -1.1016 q 0,-5.4282 4.21483,-8.9246 3.12919,-2.3149 6.96085,-2.3149 z"
           style="fill:#eae7ff;fill-opacity:1;stroke-width:0.26458332"
           id="path874" />
      </g>
    </g>
  </g>
</svg>
