<?xml version="1.0" encoding="UTF-8" standalone="no"?>
<!-- Created with Inkscape (http://www.inkscape.org/) -->

<svg
   xmlns:dc="http://purl.org/dc/elements/1.1/"
   xmlns:cc="http://creativecommons.org/ns#"
   xmlns:rdf="http://www.w3.org/1999/02/22-rdf-syntax-ns#"
   xmlns:svg="http://www.w3.org/2000/svg"
   xmlns="http://www.w3.org/2000/svg"
   xmlns:sodipodi="http://sodipodi.sourceforge.net/DTD/sodipodi-0.dtd"
   xmlns:inkscape="http://www.inkscape.org/namespaces/inkscape"
   width="200mm"
   height="200mm"
   viewBox="0 0 200 200"
   version="1.1"
   id="svg8"
   inkscape:version="0.92.4 (5da689c313, 2019-01-14)"
   sodipodi:docname="ELearning.svg">
  <defs
     id="defs2" />
  <sodipodi:namedview
     id="base"
     pagecolor="#ffffff"
     bordercolor="#666666"
     borderopacity="1.0"
     inkscape:pageopacity="0.0"
     inkscape:pageshadow="2"
     inkscape:zoom="0.24748737"
     inkscape:cx="-533.803"
     inkscape:cy="576.50898"
     inkscape:document-units="mm"
     inkscape:current-layer="g891"
     showgrid="false"
     inkscape:window-width="1920"
     inkscape:window-height="986"
     inkscape:window-x="-11"
     inkscape:window-y="-11"
     inkscape:window-maximized="1" />
  <metadata
     id="metadata5">
    <rdf:RDF>
      <cc:Work
         rdf:about="">
        <dc:format>image/svg+xml</dc:format>
        <dc:type
           rdf:resource="http://purl.org/dc/dcmitype/StillImage" />
        <dc:title></dc:title>
      </cc:Work>
    </rdf:RDF>
  </metadata>
  <g
     inkscape:label="Layer 1"
     inkscape:groupmode="layer"
     id="layer1"
     transform="translate(0,-97)">
    <g
       id="g891"
       transform="matrix(1.2991409,0,0,1.2991409,32.816517,-30.80173)">
      <path
         style="fill:none;stroke:#4c566a;stroke-width:2.89806902;stroke-linecap:butt;stroke-linejoin:miter;stroke-opacity:1;stroke-miterlimit:4;stroke-dasharray:none"
         d="M 14.74452,191.80574 V 163.58425 H 54.89468 V 135.50823"
         id="path963"
         inkscape:connector-curvature="0" />
      <rect
         style="opacity:1;fill:none;fill-opacity:1;stroke:#2e3440;stroke-width:2.08187747;stroke-linecap:round;stroke-linejoin:round;stroke-miterlimit:4;stroke-dasharray:none;stroke-dashoffset:0;stroke-opacity:1"
         id="rect932"
         width="58.788414"
         height="46.203732"
         x="-11.51324"
         y="191.95836" />
      <path
         style="fill:#3b4252;stroke-width:0.07377394"
         d="m 16.30237,207.86214 c -0.770385,-0.73675 -2.010253,-1.69543 -2.982441,-2.30603 -2.300454,-1.44485 -5.7401248,-2.45074 -9.0926363,-2.65902 l -0.8299581,-0.0516 -0.00113,0.28614 c -7.05e-4,0.15739 -0.033221,0.85052 -0.072532,1.5403 -0.039311,0.68979 -0.2365684,4.3416 -0.4383544,8.11514 -0.2017927,3.77353 -0.3858506,7.09643 -0.4090196,7.38421 l -0.042132,0.52325 1.1639649,0.0482 c 3.7793035,0.15654 7.4238065,1.05152 9.8648525,2.42248 1.037663,0.58277 2.332494,1.47227 3.176714,2.18228 l 0.295096,0.24818 0.02151,-8.54376 0.02151,-8.54376 -0.675549,-0.64606 z m -1.949604,13.03007 c -0.162302,-0.14414 -0.61048,-0.47199 -0.99595,-0.72855 -2.149001,-1.43031 -4.9652353,-2.35284 -7.6873585,-2.51817 -0.7266322,-0.0442 -0.8479898,-0.0708 -0.9964574,-0.21931 -0.2113742,-0.21138 -0.213986,-0.39384 -0.00935,-0.65399 l 0.1597,-0.20302 0.7440309,0.0505 c 2.4722867,0.16784 4.516749,0.70023 6.645946,1.73064 1.404641,0.67975 2.936371,1.72326 3.129441,2.13194 0.101376,0.21459 0.03,0.51257 -0.145233,0.60636 -0.258908,0.13857 -0.541615,0.0728 -0.844762,-0.19639 z m -0.147548,-3.8734 c -1.096521,-0.94387 -2.44102,-1.71696 -4.132327,-2.3761 -1.5960523,-0.622 -2.8800168,-0.928 -4.3885633,-1.04589 -0.7579553,-0.0593 -0.9590602,-0.16509 -0.9590602,-0.50489 0,-0.40612 0.1992507,-0.52087 0.8699993,-0.50103 2.9951849,0.0886 7.1744562,1.75459 9.3571662,3.73006 0.459673,0.41602 0.579864,0.65945 0.446342,0.90399 -0.216903,0.39721 -0.561835,0.33764 -1.193557,-0.20614 z m 0.06207,-3.55861 c -2.306339,-1.92414 -5.4502453,-3.21448 -8.4722999,-3.47725 -0.7204021,-0.0626 -0.9225931,-0.17217 -0.9210427,-0.49894 0.00255,-0.53425 0.2055093,-0.60141 1.3977619,-0.46246 2.6732464,0.31155 5.2170317,1.25595 7.5064257,2.78684 0.92956,0.62158 1.791901,1.42304 1.791901,1.66539 0,0.20619 -0.309566,0.53058 -0.506321,0.53058 -0.07929,0 -0.437677,-0.24487 -0.796425,-0.54416 z m -0.02518,-3.64093 c -2.006585,-1.8172 -4.7599783,-2.99954 -7.9251067,-3.40312 -1.1355431,-0.14479 -1.2498373,-0.19114 -1.3357359,-0.54165 -0.037976,-0.15499 -0.00705,-0.2409 0.1393437,-0.38731 0.2281203,-0.22812 0.3071835,-0.22994 1.6334422,-0.0374 3.2972067,0.47854 6.2659527,1.80999 8.2768067,3.71201 0.52238,0.4941 0.612954,0.61506 0.612954,0.81852 0,0.29283 -0.194534,0.48455 -0.485341,0.47832 -0.163881,-0.003 -0.383413,-0.15667 -0.916363,-0.63933 z m 6.166649,14.5335 c 0.661781,-0.47017 1.831915,-1.17761 2.501787,-1.51251 2.317323,-1.15855 5.798014,-1.94842 9.240188,-2.09686 l 1.125052,-0.0485 -0.0032,-0.37586 c -0.0078,-0.87141 -0.934873,-17.38452 -0.978465,-17.4281 -0.0734,-0.0734 -2.070163,0.10317 -3.050125,0.26972 -4.043062,0.68716 -6.760389,1.97163 -9.671566,4.57169 l -0.75618,0.67537 v 8.59018 8.59016 l 0.534859,-0.43187 c 0.294175,-0.23753 0.770189,-0.59907 1.057807,-0.80341 z m 0.0899,-3.32143 c -0.324792,-0.37818 -0.222978,-0.59319 0.5526,-1.16702 2.404739,-1.77916 5.573867,-2.84575 8.999711,-3.0289 0.872626,-0.0466 0.924049,-0.0414 1.074703,0.10923 0.216455,0.21646 0.206672,0.55205 -0.02134,0.73138 -0.147653,0.11615 -0.354064,0.14981 -1.16194,0.1895 -3.143992,0.15447 -6.175765,1.20604 -8.457832,2.93361 -0.510962,0.38681 -0.795563,0.45384 -0.985917,0.2322 z m -0.133308,-3.78092 c -0.166236,-0.16623 -0.194144,-0.50578 -0.05533,-0.67325 0.05072,-0.0612 0.258209,-0.24578 0.461088,-0.41021 2.285918,-1.85264 6.636032,-3.35348 9.435374,-3.25533 0.606201,0.0213 0.667072,0.0375 0.797747,0.21287 0.100134,0.13437 0.126798,0.24829 0.09126,0.38988 -0.07884,0.31412 -0.368714,0.41621 -1.181729,0.41621 -2.691022,0 -6.479399,1.37703 -8.647737,3.14334 -0.437731,0.35658 -0.674245,0.40292 -0.900673,0.17649 z m -0.05737,-3.36089 c -0.121713,-0.0853 -0.163961,-0.18889 -0.163961,-0.40219 0,-0.26593 0.03958,-0.32065 0.531105,-0.7344 2.313322,-1.94723 5.93526,-3.3626 9.176206,-3.58581 l 0.74269,-0.0512 0.160495,0.20404 c 0.208292,0.2648 0.202775,0.44366 -0.02057,0.66703 -0.143918,0.14391 -0.256704,0.18107 -0.549529,0.18107 -0.625915,0 -2.02785,0.2123 -2.918668,0.442 -2.2355,0.57639 -4.590185,1.74785 -6.001368,2.98568 -0.488524,0.42851 -0.679998,0.48732 -0.956387,0.29373 z m -0.150046,-3.50296 c -0.291393,-0.27147 -0.215184,-0.50942 0.338014,-1.05536 1.929828,-1.90453 5.241113,-3.35346 8.537833,-3.73595 1.16427,-0.13509 1.23421,-0.13858 1.413128,-0.0706 0.342129,0.13008 0.373038,0.69594 0.04744,0.8685 -0.07295,0.0386 -0.497815,0.10866 -0.944147,0.15554 -1.886018,0.19812 -3.695969,0.70036 -5.321327,1.47661 -1.327937,0.6342 -2.091669,1.15283 -3.176706,2.15721 -0.422821,0.39139 -0.639937,0.44092 -0.894234,0.20401 z m 14.195965,-4.65304 c -0.01347,0.0248 0.117993,2.65111 0.292123,5.8363 0.618906,11.32101 0.572489,10.21731 0.441321,10.49373 -0.213186,0.44925 -0.390535,0.49858 -1.79265,0.49858 -2.570362,0 -5.299278,0.40268 -7.492353,1.10556 -0.731997,0.23459 -1.995143,0.73786 -1.954355,0.77865 -1.835942,1.05998 -3.56031,3.46865 -3.56031,3.46865 l -0.142722,0.23468 c -0.423271,0.69602 -1.897114,1.12288 -3.007135,0.87095 v 0 c -0.740168,-0.16799 -1.254133,-0.49328 -1.60467,-1.01561 0,0 -1.136388,-2.16456 -3.417129,-3.48135 -2.3748553,-1.20343 -6.096758,-1.95876 -9.6629621,-1.96101 -0.9213727,-4.7e-4 -1.2523261,-0.0265 -1.4156714,-0.111 -0.33566993,-0.17358 -0.44333873,-0.38764 -0.44447963,-0.88368 -7.043e-4,-0.24457 0.1847503,-3.87521 0.41180933,-8.06807 0.227059,-4.19288 0.3956496,-7.64059 0.374643,-7.6616 l 0.061161,-0.4808 c 0.00924,-0.0119 0.057396,-0.83314 0.107068,-1.82502 0.098569,-1.96862 0.1340864,-2.12243 0.5415062,-2.34509 0.2043579,-0.11169 0.4234189,-0.12909 1.529559,-0.12152 3.0376998,0.0208 6.6801136,0.86006 9.2217436,2.12485 1.494573,0.74373 3.272047,1.96912 4.444322,3.0639 l 0.56458,0.52725 0.796933,-0.68639 c 2.786308,-2.39983 5.131564,-3.59181 8.747663,-4.44602 2.401085,-0.56718 5.739235,-0.81099 6.277259,-0.45847 0.409102,0.26806 0.433543,0.37275 0.541926,2.32157 0.05557,0.99911 0.11316,1.82869 0.127994,1.84353"
         id="path945"
         inkscape:connector-curvature="0"
         sodipodi:nodetypes="cscccccccccccccccccccccccccccccscccccscscsscssccccscscssccccccccccccscccccccscccccscscscccccsccccsccscsccscscscccscccscccccccsccccscccsscsc" />
      <path
         sodipodi:nodetypes="ccssscsccccscccsscsccccccsscscccscccccccccccccccccccccccccccscscccccccscsscscccccscscscccccccccccccscccccccscccccscscscscccsccccsccccsccscscsccccscccssccccscscscccscccc"
         inkscape:connector-curvature="0"
         id="path947"
         d="m -153.16498,179.4376 c -1.27291,-0.2889 -2.1568,-0.84833 -2.75963,-1.74659 -0.0957,-0.14256 -1.4217,-0.35166 -5.39208,-0.85027 -23.90905,-3.00254 -25.02678,-3.15668 -25.36855,-3.49845 -0.39575,-0.39576 -0.46477,1.67208 0.62608,-18.75763 0.77591,-14.53148 0.89714,-16.3737 1.09161,-16.58859 0.12032,-0.13295 0.32667,-0.24173 0.45855,-0.24173 0.13188,0 1.1578,0.2308 2.27979,0.51289 1.12201,0.28208 2.05298,0.49618 2.06884,0.47576 0.0159,-0.0204 0.0987,-1.43277 0.18413,-3.13857 0.16951,-3.38553 0.2306,-3.65005 0.93125,-4.03297 0.35145,-0.19207 0.72818,-0.222 2.63046,-0.20898 5.22408,0.0358 11.48811,1.4791 15.85907,3.65421 2.57029,1.27904 5.6271,3.38639 7.64311,5.26912 l 0.97094,0.90675 1.37052,-1.18041 c 4.79175,-4.1271 8.825,-6.17701 15.04378,-7.64603 4.12926,-0.97542 9.87003,-1.39471 10.7953,-0.78845 0.70355,0.46098 0.74558,0.64102 0.93197,3.9925 0.0956,1.71821 0.19461,3.14489 0.22012,3.1704 0.0255,0.0255 0.96572,-0.19207 2.08937,-0.4835 2.16406,-0.56129 2.59617,-0.57467 2.80574,-0.0869 0.0666,0.15508 0.37921,5.19194 0.69462,11.19301 0.31543,6.00107 0.72412,13.74859 0.90821,17.21671 0.37663,7.09517 0.39896,6.81245 -0.55852,7.07025 -0.26195,0.0705 -2.56017,0.39003 -5.10713,0.71001 -2.54697,0.31997 -9.21405,1.16548 -14.81572,1.8789 l -10.18487,1.29715 -0.24545,0.4036 c -0.72792,1.19697 -3.26256,1.93106 -5.17151,1.4978 z m -1.43676,-36.38727 c -1.32487,-1.26703 -3.45713,-2.91571 -5.12905,-3.96579 -3.9562,-2.48477 -9.87156,-4.21465 -15.63704,-4.57285 l -1.42732,-0.0887 -0.002,0.49209 c -0.001,0.27066 -0.0571,1.46267 -0.12474,2.64893 -0.0676,1.18626 -0.40684,7.46645 -0.75386,13.95598 -0.34703,6.48953 -0.66356,12.20408 -0.70341,12.69899 l -0.0725,0.89985 2.00173,0.0829 c 6.49945,0.26923 12.76707,1.80835 16.96506,4.16605 1.78451,1.00223 4.0113,2.53195 5.46314,3.75298 l 0.50749,0.42682 0.037,-14.69311 0.037,-14.69311 -1.16177,-1.11107 z m -3.35283,22.40844 c -0.27912,-0.24789 -1.04987,-0.81171 -1.71278,-1.25292 -3.69574,-2.45979 -8.53895,-4.0463 -13.22032,-4.33063 -1.24962,-0.0759 -1.45833,-0.12183 -1.71365,-0.37715 -0.36351,-0.36352 -0.36801,-0.67731 -0.0161,-1.1247 l 0.27464,-0.34915 1.27955,0.0869 c 4.2517,0.28863 7.76766,1.2042 11.42935,2.97624 2.41562,1.16902 5.04981,2.96358 5.38184,3.66641 0.17435,0.36905 0.0516,0.88149 -0.24976,1.04278 -0.44526,0.2383 -0.93144,0.12526 -1.45278,-0.33775 z m -0.25374,-6.66128 c -1.88575,-1.62322 -4.19794,-2.95274 -7.10656,-4.08628 -2.74481,-1.0697 -4.95291,-1.59593 -7.54723,-1.79867 -1.30349,-0.10186 -1.64934,-0.28393 -1.64934,-0.8683 0,-0.69842 0.34266,-0.89576 1.49618,-0.86164 5.15096,0.15237 12.33826,3.01745 16.09197,6.41476 0.79052,0.71546 0.99722,1.1341 0.76759,1.55463 -0.37301,0.68312 -0.96621,0.58067 -2.05261,-0.3545 z m 0.10674,-6.11992 c -3.96632,-3.30903 -9.37305,-5.52808 -14.57022,-5.97998 -1.23891,-0.10773 -1.58662,-0.29609 -1.58396,-0.85805 0.004,-0.91878 0.35343,-1.03427 2.4038,-0.79532 4.59731,0.53579 8.97198,2.15992 12.90916,4.79267 1.59861,1.06896 3.08162,2.44727 3.08162,2.86404 0,0.35459 -0.53238,0.91247 -0.87075,0.91247 -0.13635,0 -0.75269,-0.42112 -1.36965,-0.93583 z m -0.0433,-6.26146 c -3.45082,-3.12515 -8.18596,-5.15847 -13.62918,-5.85252 -1.95285,-0.249 -2.14941,-0.32871 -2.29713,-0.9315 -0.0653,-0.26653 -0.0121,-0.41429 0.23963,-0.66608 0.39231,-0.39231 0.52828,-0.39543 2.80911,-0.0644 5.67036,0.82299 10.77586,3.11273 14.23402,6.38373 0.89836,0.84973 1.05413,1.05774 1.05413,1.40765 0,0.50359 -0.33455,0.8333 -0.83467,0.82259 -0.28183,-0.006 -0.65937,-0.26944 -1.57591,-1.09948 z m 10.60508,24.99394 c 1.1381,-0.80858 3.15043,-2.02518 4.30244,-2.60114 3.98521,-1.99241 9.97112,-3.35079 15.89079,-3.60607 l 1.93481,-0.0834 -0.006,-0.64639 c -0.0134,-1.4986 -1.60775,-29.89696 -1.68271,-29.97193 -0.12624,-0.12624 -3.56016,0.17743 -5.24545,0.46386 -6.95304,1.18174 -11.62616,3.3907 -16.63265,7.86216 l -1.30044,1.16147 v 14.77293 14.77292 l 0.91982,-0.74272 c 0.50591,-0.40849 1.32453,-1.03024 1.81916,-1.38166 z m 0.1546,-5.71203 c -0.55856,-0.65036 -0.38346,-1.02014 0.95033,-2.00696 4.13555,-3.05972 9.58565,-4.89398 15.47724,-5.20895 1.50069,-0.0802 1.58913,-0.0712 1.84821,0.18784 0.37225,0.37226 0.35543,0.94938 -0.0367,1.2578 -0.25392,0.19974 -0.6089,0.25763 -1.99824,0.32589 -5.40687,0.26564 -10.62076,2.07408 -14.54534,5.04506 -0.87872,0.66522 -1.36817,0.78048 -1.69553,0.39932 z m -0.22926,-6.50222 c -0.28588,-0.28588 -0.33387,-0.86981 -0.0952,-1.15782 0.0872,-0.10523 0.44406,-0.42268 0.79296,-0.70545 3.9312,-3.18607 11.4123,-5.76715 16.22646,-5.59835 1.04252,0.0366 1.1472,0.0645 1.37193,0.36607 0.1722,0.23109 0.21806,0.42701 0.15695,0.67051 -0.13559,0.5402 -0.6341,0.71577 -2.03228,0.71577 -4.62788,0 -11.14293,2.36814 -14.87193,5.40576 -0.75278,0.61322 -1.15953,0.69291 -1.54893,0.30351 z m -0.0986,-5.77989 c -0.20931,-0.14662 -0.28197,-0.32484 -0.28197,-0.69166 0,-0.45733 0.0681,-0.55144 0.91337,-1.26298 3.97833,-3.34876 10.20715,-5.78281 15.78076,-6.16669 l 1.27724,-0.088 0.27601,0.35088 c 0.35821,0.4554 0.34872,0.763 -0.0354,1.14712 -0.24751,0.2475 -0.44147,0.31141 -0.94505,0.31141 -1.07642,0 -3.48739,0.36511 -5.01938,0.76012 -3.84449,0.99126 -7.89396,3.00587 -10.32084,5.13462 -0.84013,0.73693 -1.16942,0.83806 -1.64474,0.50514 z m -0.25805,-6.0242 c -0.50112,-0.46687 -0.37006,-0.87607 0.5813,-1.81496 3.31882,-3.27529 9.01339,-5.7671 14.68292,-6.42489 2.00225,-0.23231 2.12253,-0.23831 2.43022,-0.12133 0.58838,0.2237 0.64154,1.19683 0.0816,1.4936 -0.12545,0.0665 -0.85611,0.18686 -1.62369,0.26749 -3.24347,0.34071 -6.35613,1.20444 -9.15134,2.53939 -2.28372,1.09066 -3.59714,1.98257 -5.46313,3.70985 -0.72715,0.6731 -1.10053,0.75828 -1.53786,0.35085 z m -35.1442,24.54973 c 1.61294,-0.33951 4.5391,-0.80256 6.51052,-1.03025 2.72892,-0.31517 8.21989,-0.31602 10.18749,-0.002 1.45467,0.23247 4.10104,0.83982 4.76935,1.09458 0.61936,0.23609 0.51976,0.0412 -0.15322,-0.29981 -4.08415,-2.0696 -10.48488,-3.36857 -16.61786,-3.37245 -1.58453,-0.001 -2.15368,-0.0457 -2.43459,-0.1909 -0.57727,-0.29851 -0.76243,-0.66664 -0.7644,-1.5197 -0.001,-0.4206 0.31773,-6.66437 0.70821,-13.87505 0.39049,-7.21068 0.68042,-13.13988 0.64429,-13.17601 -0.0746,-0.0746 -1.77867,0.21095 -1.95686,0.32791 -0.064,0.0421 -0.35684,4.32983 -0.65066,9.52843 -0.29383,5.1986 -0.7014,12.36373 -0.90571,15.9225 -0.41586,7.2437 -0.39437,6.78769 -0.31981,6.78769 0.0303,0 0.47279,-0.0879 0.98325,-0.19537 z m 63.45878,-0.59759 c -0.0273,-0.29657 -0.19286,-3.13693 -0.36774,-6.31191 -0.76927,-13.96647 -1.43305,-25.26858 -1.48719,-25.32273 -0.10343,-0.10343 -2.00244,-0.4 -2.04617,-0.31955 -0.0232,0.0426 0.20292,4.55923 0.50238,10.03695 1.06436,19.46929 0.98453,17.57121 0.75896,18.04658 -0.36663,0.7726 -0.67162,0.85743 -3.0829,0.85743 -4.42038,0 -9.11343,0.6925 -12.88496,1.90128 -1.25885,0.40345 -3.43114,1.26894 -3.361,1.33908 0.021,0.021 0.60888,-0.10019 1.3064,-0.26932 4.30166,-1.04295 8.73537,-1.1736 14.48448,-0.42681 1.8102,0.23514 5.24935,0.81534 5.5609,0.93816 0.0698,0.0275 0.24831,0.0545 0.39674,0.0601 0.24191,0.009 0.26473,-0.0459 0.2201,-0.52919 z"
         style="fill:#000000;stroke-width:0.12687255" />
      <circle
         style="opacity:1;fill:#4c566a;fill-opacity:1;stroke:none;stroke-width:4.76468706;stroke-linecap:round;stroke-linejoin:round;stroke-miterlimit:4;stroke-dasharray:none;stroke-dashoffset:0;stroke-opacity:1"
         id="path949"
         cx="28.855267"
         cy="120.9921"
         r="12.219614" />
      <circle
         r="12.219614"
         cy="129.1385"
         cx="35.110546"
         id="circle951"
         style="opacity:1;fill:#4c566a;fill-opacity:1;stroke:none;stroke-width:4.76468706;stroke-linecap:round;stroke-linejoin:round;stroke-miterlimit:4;stroke-dasharray:none;stroke-dashoffset:0;stroke-opacity:1" />
      <circle
         style="opacity:1;fill:#4c566a;fill-opacity:1;stroke:none;stroke-width:4.76468706;stroke-linecap:round;stroke-linejoin:round;stroke-miterlimit:4;stroke-dasharray:none;stroke-dashoffset:0;stroke-opacity:1"
         id="circle953"
         cx="44.5662"
         cy="117.79173"
         r="12.219614" />
      <circle
         r="12.219614"
         cy="127.97474"
         cx="52.567139"
         id="circle955"
         style="opacity:1;fill:#4c566a;fill-opacity:1;stroke:none;stroke-width:4.76468706;stroke-linecap:round;stroke-linejoin:round;stroke-miterlimit:4;stroke-dasharray:none;stroke-dashoffset:0;stroke-opacity:1" />
      <circle
         style="opacity:1;fill:#4c566a;fill-opacity:1;stroke:none;stroke-width:4.76468706;stroke-linecap:round;stroke-linejoin:round;stroke-miterlimit:4;stroke-dasharray:none;stroke-dashoffset:0;stroke-opacity:1"
         id="circle957"
         cx="62.022793"
         cy="117.50079"
         r="12.219614" />
      <circle
         r="12.219614"
         cy="127.24738"
         cx="70.460144"
         id="circle959"
         style="opacity:1;fill:#4c566a;fill-opacity:1;stroke:none;stroke-width:4.76468706;stroke-linecap:round;stroke-linejoin:round;stroke-miterlimit:4;stroke-dasharray:none;stroke-dashoffset:0;stroke-opacity:1" />
      <circle
         style="opacity:1;fill:#4c566a;fill-opacity:1;stroke:none;stroke-width:4.76468706;stroke-linecap:round;stroke-linejoin:round;stroke-miterlimit:4;stroke-dasharray:none;stroke-dashoffset:0;stroke-opacity:1"
         id="circle961"
         cx="79.042969"
         cy="118.81004"
         r="12.219614" />
    </g>
  </g>
</svg>
