<?xml version="1.0" encoding="UTF-8" standalone="no"?>
<!-- Created with Inkscape (http://www.inkscape.org/) -->

<svg
   xmlns:dc="http://purl.org/dc/elements/1.1/"
   xmlns:cc="http://creativecommons.org/ns#"
   xmlns:rdf="http://www.w3.org/1999/02/22-rdf-syntax-ns#"
   xmlns:svg="http://www.w3.org/2000/svg"
   xmlns="http://www.w3.org/2000/svg"
   xmlns:sodipodi="http://sodipodi.sourceforge.net/DTD/sodipodi-0.dtd"
   xmlns:inkscape="http://www.inkscape.org/namespaces/inkscape"
   width="200mm"
   height="200mm"
   viewBox="0 0 200 200"
   version="1.1"
   id="svg3443"
   inkscape:version="0.92.4 (5da689c313, 2019-01-14)"
   sodipodi:docname="NeuT2.svg">
  <defs
     id="defs3437" />
  <sodipodi:namedview
     id="base"
     pagecolor="#ffffff"
     bordercolor="#666666"
     borderopacity="1.0"
     inkscape:pageopacity="0.0"
     inkscape:pageshadow="2"
     inkscape:zoom="0.49497475"
     inkscape:cx="157.29695"
     inkscape:cy="575.93743"
     inkscape:document-units="mm"
     inkscape:current-layer="layer1"
     showgrid="false"
     showguides="false"
     inkscape:window-width="1920"
     inkscape:window-height="986"
     inkscape:window-x="-11"
     inkscape:window-y="-11"
     inkscape:window-maximized="1"
     fit-margin-top="0"
     fit-margin-left="0"
     fit-margin-right="0"
     fit-margin-bottom="0" />
  <metadata
     id="metadata3440">
    <rdf:RDF>
      <cc:Work
         rdf:about="">
        <dc:format>image/svg+xml</dc:format>
        <dc:type
           rdf:resource="http://purl.org/dc/dcmitype/StillImage" />
        <dc:title />
      </cc:Work>
    </rdf:RDF>
  </metadata>
  <g
     inkscape:label="Layer 1"
     inkscape:groupmode="layer"
     id="layer1"
     transform="translate(-44.646518,-50.400619)">
    <path
       style="opacity:1;fill:#2e3440;fill-opacity:1;stroke:#2e3440;stroke-width:3.96499991;stroke-linecap:round;stroke-linejoin:round;stroke-miterlimit:4;stroke-dasharray:none;stroke-dashoffset:0;stroke-opacity:1"
       d="m 117.13933,78.435472 a 28.996497,28.97917 0 0 0 -24.885702,14.171318 28.996497,28.97917 0 0 0 -25.346664,28.71253 28.996497,28.97917 0 0 0 7.104733,18.9494 28.996497,28.97917 0 0 0 -13.695216,24.59492 28.996497,28.97917 0 0 0 12.483975,23.81149 28.996497,28.97917 0 0 0 -0.0354,0.7048 28.996497,28.97917 0 0 0 28.996474,28.97951 28.996497,28.97917 0 0 0 20.49741,-8.50757 28.996497,28.97917 0 0 0 26.00182,16.1917 28.996497,28.97917 0 0 0 27.85711,-21.02413 28.996497,28.97917 0 0 0 5.4615,0.53289 28.996497,28.97917 0 0 0 28.99647,-28.97951 28.996497,28.97917 0 0 0 -0.52104,-5.36602 28.996497,28.97917 0 0 0 3.08407,-12.9297 28.996497,28.97917 0 0 0 -0.0429,-1.20945 28.996497,28.97917 0 0 0 15.95034,-25.87405 28.996497,28.97917 0 0 0 -22.02371,-28.09245 28.996497,28.97917 0 0 0 -26.8633,-18.115944 28.996497,28.97917 0 0 0 -24.3264,13.259224 28.996497,28.97917 0 0 0 -10.20882,3.84528 28.996497,28.97917 0 0 0 -28.48474,-23.654238 z"
       id="circle825"
       inkscape:connector-curvature="0" />
    <rect
       style="opacity:1;fill:#81a1c1;fill-opacity:1;stroke:none;stroke-width:3.96499991;stroke-linecap:round;stroke-linejoin:round;stroke-miterlimit:4;stroke-dasharray:none;stroke-dashoffset:0;stroke-opacity:1"
       id="rect843"
       width="42.333332"
       height="83.154762"
       x="-513.24634"
       y="2.4482403" />
  </g>
</svg>
