<?xml version="1.0" encoding="UTF-8" standalone="no"?>
<!-- Created with Inkscape (http://www.inkscape.org/) -->

<svg
   xmlns:dc="http://purl.org/dc/elements/1.1/"
   xmlns:cc="http://creativecommons.org/ns#"
   xmlns:rdf="http://www.w3.org/1999/02/22-rdf-syntax-ns#"
   xmlns:svg="http://www.w3.org/2000/svg"
   xmlns="http://www.w3.org/2000/svg"
   xmlns:sodipodi="http://sodipodi.sourceforge.net/DTD/sodipodi-0.dtd"
   xmlns:inkscape="http://www.inkscape.org/namespaces/inkscape"
   width="250mm"
   height="250mm"
   viewBox="0 0 250 250"
   version="1.1"
   id="svg3443"
   inkscape:version="0.92.4 (5da689c313, 2019-01-14)"
   sodipodi:docname="NeuT2.svg">
  <defs
     id="defs3437" />
  <sodipodi:namedview
     id="base"
     pagecolor="#ffffff"
     bordercolor="#666666"
     borderopacity="1.0"
     inkscape:pageopacity="0.0"
     inkscape:pageshadow="2"
     inkscape:zoom="0.12374369"
     inkscape:cx="-1533.8745"
     inkscape:cy="1465.0432"
     inkscape:document-units="mm"
     inkscape:current-layer="layer1"
     showgrid="false"
     showguides="false"
     inkscape:window-width="1920"
     inkscape:window-height="986"
     inkscape:window-x="-11"
     inkscape:window-y="-11"
     inkscape:window-maximized="1"
     fit-margin-top="0"
     fit-margin-left="0"
     fit-margin-right="0"
     fit-margin-bottom="0" />
  <metadata
     id="metadata3440">
    <rdf:RDF>
      <cc:Work
         rdf:about="">
        <dc:format>image/svg+xml</dc:format>
        <dc:type
           rdf:resource="http://purl.org/dc/dcmitype/StillImage" />
        <dc:title></dc:title>
      </cc:Work>
    </rdf:RDF>
  </metadata>
  <g
     inkscape:label="Layer 1"
     inkscape:groupmode="layer"
     id="layer1"
     transform="translate(-44.646518,-0.40061937)">
    <path
       style="opacity:1;fill:#2e3440;fill-opacity:1;stroke:#2e3440;stroke-width:14.98582649;stroke-linecap:round;stroke-linejoin:round;stroke-miterlimit:4;stroke-dasharray:none;stroke-dashoffset:0;stroke-opacity:1"
       d="M 323.37695 129.00781 A 158.36532 158.36532 0 0 0 187.46289 206.45117 A 158.36532 158.36532 0 0 0 49.03125 363.35938 A 158.36532 158.36532 0 0 0 87.833984 466.91406 A 158.36532 158.36532 0 0 0 13.037109 601.32031 A 158.36532 158.36532 0 0 0 81.21875 731.44531 A 158.36532 158.36532 0 0 0 81.025391 735.29688 A 158.36532 158.36532 0 0 0 239.39062 893.66406 A 158.36532 158.36532 0 0 0 351.33789 847.17188 A 158.36532 158.36532 0 0 0 493.34766 935.65625 A 158.36532 158.36532 0 0 0 645.49023 820.76367 A 158.36532 158.36532 0 0 0 675.31836 823.67578 A 158.36532 158.36532 0 0 0 833.68359 665.30859 A 158.36532 158.36532 0 0 0 830.83789 635.98438 A 158.36532 158.36532 0 0 0 847.68164 565.32617 A 158.36532 158.36532 0 0 0 847.44727 558.7168 A 158.36532 158.36532 0 0 0 934.56055 417.32031 A 158.36532 158.36532 0 0 0 814.27734 263.80078 A 158.36532 158.36532 0 0 0 667.5625 164.80078 A 158.36532 158.36532 0 0 0 534.70312 237.25977 A 158.36532 158.36532 0 0 0 478.94727 258.27344 A 158.36532 158.36532 0 0 0 323.37695 129.00781 z "
       transform="matrix(0.26458333,0,0,0.26458333,44.646518,0.40061937)"
       id="circle825" />
    <rect
       style="opacity:1;fill:#81a1c1;fill-opacity:1;stroke:none;stroke-width:3.96499991;stroke-linecap:round;stroke-linejoin:round;stroke-miterlimit:4;stroke-dasharray:none;stroke-dashoffset:0;stroke-opacity:1"
       id="rect843"
       width="42.333332"
       height="83.154762"
       x="-513.24634"
       y="2.4482403" />
  </g>
</svg>
