<?xml version="1.0" encoding="UTF-8" standalone="no"?>
<!-- Created with Inkscape (http://www.inkscape.org/) -->

<svg
   xmlns:dc="http://purl.org/dc/elements/1.1/"
   xmlns:cc="http://creativecommons.org/ns#"
   xmlns:rdf="http://www.w3.org/1999/02/22-rdf-syntax-ns#"
   xmlns:svg="http://www.w3.org/2000/svg"
   xmlns="http://www.w3.org/2000/svg"
   xmlns:sodipodi="http://sodipodi.sourceforge.net/DTD/sodipodi-0.dtd"
   xmlns:inkscape="http://www.inkscape.org/namespaces/inkscape"
   width="134.15202mm"
   height="38.283321mm"
   viewBox="0 0 134.15202 38.283321"
   version="1.1"
   id="svg8"
   sodipodi:docname="Tickets.svg"
   inkscape:version="0.92.4 (5da689c313, 2019-01-14)">
  <defs
     id="defs2">
    <filter
       inkscape:collect="always"
       style="color-interpolation-filters:sRGB"
       id="filter1803"
       x="-0.010196213"
       width="1.0203924"
       y="-0.076713696"
       height="1.1534274">
      <feGaussianBlur
         inkscape:collect="always"
         stdDeviation="0.74148604"
         id="feGaussianBlur1805" />
    </filter>
    <filter
       inkscape:collect="always"
       style="color-interpolation-filters:sRGB"
       id="filter1807"
       x="-0.040784851"
       width="1.0815697"
       y="-0.30685478"
       height="1.6137096">
      <feGaussianBlur
         inkscape:collect="always"
         stdDeviation="2.9659442"
         id="feGaussianBlur1809" />
    </filter>
  </defs>
  <sodipodi:namedview
     id="base"
     pagecolor="#ffffff"
     bordercolor="#666666"
     borderopacity="1.0"
     inkscape:pageopacity="0.0"
     inkscape:pageshadow="2"
     inkscape:zoom="1.4"
     inkscape:cx="168.033"
     inkscape:cy="88.717843"
     inkscape:document-units="mm"
     inkscape:current-layer="text1831"
     showgrid="false"
     fit-margin-top="0"
     fit-margin-left="0"
     fit-margin-right="0"
     fit-margin-bottom="0"
     inkscape:window-width="1920"
     inkscape:window-height="986"
     inkscape:window-x="-11"
     inkscape:window-y="-11"
     inkscape:window-maximized="1" />
  <metadata
     id="metadata5">
    <rdf:RDF>
      <cc:Work
         rdf:about="">
        <dc:format>image/svg+xml</dc:format>
        <dc:type
           rdf:resource="http://purl.org/dc/dcmitype/StillImage" />
        <dc:title></dc:title>
      </cc:Work>
    </rdf:RDF>
  </metadata>
  <g
     inkscape:label="Layer 1"
     inkscape:groupmode="layer"
     id="layer1"
     transform="translate(-68.995415,-192.43572)">
    <path
       style="font-style:normal;font-variant:normal;font-weight:normal;font-stretch:normal;font-size:32.69683075px;line-height:1.25;font-family:Clip;-inkscape-font-specification:Clip;letter-spacing:0px;word-spacing:0px;opacity:1;fill:#3b4252;fill-opacity:1;stroke:none;stroke-width:7.55251694;stroke-linejoin:round;stroke-miterlimit:4;stroke-dasharray:none;stroke-dashoffset:3779.52758789;stroke-opacity:1"
       d="M 71.801348,193.75542 H 200.3415 c 1.55449,0 2.80594,1.25144 2.80594,2.80593 v 31.35176 c 0,1.55448 -1.25145,2.80593 -2.80594,2.80593 H 71.801348 c -1.554487,0 -2.805933,-1.25145 -2.805933,-2.80593 v -31.35176 c 0,-1.55449 1.251446,-2.80593 2.805933,-2.80593 z"
       id="rect1815" />
    <g
       style="opacity:0.7;fill:#ff3a05;fill-opacity:1;filter:url(#filter1807)"
       transform="translate(21.713833,203.92062)"
       id="g1821">
      <g
         aria-label="TICKETS"
         style="font-style:normal;font-variant:normal;font-weight:normal;font-stretch:normal;font-size:32.69683075px;line-height:1.25;font-family:Clip;-inkscape-font-specification:Clip;letter-spacing:0px;word-spacing:0px;fill:#ff3a05;fill-opacity:1;stroke:none;stroke-width:0.26458332"
         id="text1819">
        <path
           d="m 56.587224,-3.9444511 h 14.001524 q 1.628455,0.3672008 1.628455,1.5805597 v 0.5428185 q 0,0.98984547 -1.357046,1.5166987 -0.223514,0.0478957 -0.447027,0.0478957 H 65.63952 V 18.359002 q -0.111756,0.590715 -0.590714,0.590715 h -0.159652 q -0.494923,0 -0.60668,-0.702471 V -0.84719267 q 0,-0.76633193 0.766332,-0.76633193 h 5.364324 q 0.415096,0 0.494923,-0.4789575 -0.03193,-0.4949228 -0.431062,-0.4949228 h -13.77801 q -0.399131,0 -0.431062,0.4949228 0.06386,0.4789575 0.478958,0.4789575 h 5.428184 q 0.558784,0 0.654576,0.70247093 v 0.063861 q 0,0.44702698 -0.60668,0.59071422 h -5.47608 q -1.293186,0 -1.788108,-1.40494195 v -0.702471 q 0,-1.2133589 1.628455,-1.5805597 z"
           style="fill:#ff3a05;fill-opacity:1;stroke-width:0.26458332"
           id="path875" />
        <path
           d="m 75.937107,-4.0083121 h 0.223514 q 0.542818,0.1117568 0.542818,0.5428185 V 16.507033 q 0,1.085637 0.590714,1.085637 h 0.319305 q 0.60668,0 0.60668,-1.085637 V -3.4654936 q 0.111757,-0.5428185 0.542818,-0.5428185 h 0.207549 q 0.542818,0.1117568 0.542818,0.5428185 V 17.001956 q -0.319305,1.947761 -1.899865,1.947761 h -0.319305 q -1.580559,0 -1.899864,-1.947761 V -3.4654936 q 0.111757,-0.5428185 0.542818,-0.5428185 z"
           style="fill:#ff3a05;fill-opacity:1;stroke-width:0.26458332"
           id="path877" />
        <path
           d="m 93.913978,-3.9444511 h 1.005811 q 2.171274,0 4.693783,1.0058108 0.27141,0.2714092 0.27141,0.4789574 v 0.3033398 q -0.223514,0.4310617 -0.574749,0.4310617 h -0.111757 q -2.55444,-0.957915 -4.853436,-0.957915 -6.41803,0 -9.291775,5.4441501 -1.053706,2.2511002 -1.053706,5.380289 0,3.7039383 2.538474,6.7533003 2.88971,2.793919 7.168397,2.793919 2.410753,0 4.534131,-0.750367 0.111757,-0.159652 0.111757,-0.255444 -0.06386,-0.478957 -0.478958,-0.478957 -2.171274,0.431061 -3.576216,0.431061 h -0.383166 q -5.651698,0 -7.647354,-4.80554 -0.686506,-1.756177 -0.686506,-3.8476248 V 7.5026328 q 0,-0.4789575 0.686506,-0.574749 0.510888,0 0.63861,0.7822972 v 0.2075482 q 0,5.0130888 3.592181,6.7054048 1.516699,0.686506 3.368668,0.686506 h 0.478957 q 1.27722,0 3.368668,-0.415097 h 0.159652 q 1.804073,0.223514 1.804073,1.788108 0,1.628456 -2.793918,1.995656 -1.468803,0.27141 -2.586371,0.27141 h -1.165463 q -4.039208,0 -7.328049,-2.953572 -3.065328,-3.384632 -3.065328,-7.5994583 V 7.2950845 q 0,-5.4281848 4.214826,-8.9245744 3.129189,-2.3149612 6.960848,-2.3149612 z"
           style="fill:#ff3a05;fill-opacity:1;stroke-width:0.26458332"
           id="path879" />
        <path
           d="m 103.65278,-3.9444511 h 0.20755 q 0.3193,0 0.54282,0.4310618 V 16.570894 q 0,1.085637 0.70247,1.085637 0.76633,0 0.76633,-0.814227 V 9.7537329 q 0,-3.5123548 2.42672,-5.9071423 5.07695,-6.4818912 6.17855,-7.5196324 0.59071,-0.2714093 1.02177,-0.2714093 h 0.0639 q 1.70829,0 1.94777,2.107413 0,0.8142277 -1.30916,2.05951713 -0.84615,1.18142847 -4.16693,4.98115777 -0.15965,0.4150965 -0.15965,0.5907143 v 0.2714092 q 0,0.8142277 1.89987,3.3048066 l 5.84328,8.7170261 v 0.319305 q -0.11176,0.542819 -0.54282,0.542819 h -0.20755 q -0.43106,0 -1.4688,-1.836004 -5.82732,-8.4296518 -6.60961,-9.850559 -0.27141,-0.5268532 -0.27141,-1.1335327 V 5.7943511 q 0,-1.0696717 1.08563,-2.1553087 2.20321,-2.4746137 4.00728,-4.7736096 0.54282,-0.5108879 0.54282,-0.7503667 -0.0639,-0.702471 -0.54282,-0.702471 h -0.15965 q -0.3672,0 -1.89987,1.99565622 -5.07695,6.22644728 -5.68363,7.20032748 -0.63861,1.4688029 -0.63861,3.1930499 V 16.61879 q 0,1.708282 -1.30915,2.21917 -0.20754,0.111757 -0.59071,0.111757 h -0.38317 q -1.37301,0 -1.836,-1.676352 V -3.4016326 q 0.11176,-0.5428185 0.54282,-0.5428185 z"
           style="fill:#ff3a05;fill-opacity:1;stroke-width:0.26458332"
           id="path881" />
        <path
           d="m 123.38583,-3.9444511 h 11.91007 q 0.47896,0 0.59072,0.702471 0,0.574749 -0.97388,0.6545752 H 124.20005 V 17.59267 h 10.39338 q 0.28738,0 0.3672,-0.207548 v -0.494923 q 0,-0.191583 -0.59071,-0.271409 h -8.11035 q -0.60668,-0.07983 -0.60668,-0.590714 V 8.1252775 q 0,-1.8200384 2.76199,-2.4426832 0.46299,-0.095791 1.19739,-0.095791 h 0.3672 q 2.10742,0 5.09292,0.8621235 0.27141,0.3033397 0.27141,0.5428185 -0.0479,0.7024709 -0.70247,0.7024709 -3.01744,-0.7663319 -4.59799,-0.7663319 h -0.59072 q -2.44268,0.2075482 -2.44268,1.1973937 v 7.1364665 h 7.15243 q 1.59652,0 2.04355,1.149498 0.11176,0.207548 0.11176,0.590714 v 0.271409 q 0,1.436873 -1.72425,1.676352 h -11.2076 q -0.54282,-0.111757 -0.54282,-0.542819 V -3.4016326 q 0.11175,-0.5428185 0.54282,-0.5428185 z"
           style="fill:#ff3a05;fill-opacity:1;stroke-width:0.26458332"
           id="path883" />
        <path
           d="m 141.13919,-3.9444511 h 14.00152 q 1.62846,0.3672008 1.62846,1.5805597 v 0.5428185 q 0,0.98984547 -1.35705,1.5166987 -0.22351,0.0478957 -0.44703,0.0478957 h -4.77361 V 18.359002 q -0.11175,0.590715 -0.59071,0.590715 h -0.15965 q -0.49493,0 -0.60668,-0.702471 V -0.84719267 q 0,-0.76633193 0.76633,-0.76633193 h 5.36432 q 0.4151,0 0.49493,-0.4789575 -0.0319,-0.4949228 -0.43107,-0.4949228 h -13.77801 q -0.39913,0 -0.43106,0.4949228 0.0639,0.4789575 0.47896,0.4789575 h 5.42819 q 0.55878,0 0.65457,0.70247093 v 0.063861 q 0,0.44702698 -0.60668,0.59071422 h -5.47608 q -1.29318,0 -1.78811,-1.40494195 v -0.702471 q 0,-1.2133589 1.62846,-1.5805597 z"
           style="fill:#ff3a05;fill-opacity:1;stroke-width:0.26458332"
           id="path885" />
        <path
           d="m 167.70536,-4.263756 h 0.94195 q 2.53847,0 4.77361,1.2931852 l 0.0958,0.3831659 v 0.047896 q 0,0.5587837 -0.71844,0.6545752 -2.47461,-1.0856369 -4.59799,-1.0856369 -4.91729,0 -6.37013,3.44849382 -0.33527,1.03774118 -0.33527,1.88389948 v 0.2235134 q 0,2.9695364 3.16112,3.9753471 0.95791,0.1596525 3.87955,0.2714093 3.22498,0.6066795 4.21483,1.7242469 1.66038,1.5486288 1.66038,3.5442858 v 0.606679 q 0,3.304807 -3.60814,5.587837 -2.17128,0.973881 -4.19886,0.973881 h -1.00581 q -2.53848,0 -4.98116,-1.181429 -0.67054,-0.702471 -0.67054,-1.245289 v -0.367201 q 0,-1.27722 1.38898,-1.676351 0.20754,-0.0479 0.49492,-0.0479 0.19158,0 2.55444,0.702471 0.84616,0.159652 1.70828,0.159652 h 0.28737 q 3.24095,0 3.7678,-2.650231 0,-1.021776 0.60668,-1.021776 h 0.11176 q 0.55878,0 0.65457,0.702471 0,2.937606 -3.25691,4.039208 -0.95791,0.271409 -1.99565,0.271409 h -0.22352 q -1.89986,0 -4.21482,-0.862123 h -0.11176 q -0.44703,0 -0.44703,0.542818 0,0.878089 4.5501,1.341081 5.33239,0 6.92892,-3.719903 0.22351,-0.67054 0.33527,-1.883899 0,-3.512355 -4.82151,-4.1988608 -3.25691,-0.095792 -4.32658,-0.4310617 Q 160.1059,6.2573433 160.1059,2.5853359 V 2.4097182 q 0,-3.4325286 2.93761,-5.4281848 2.13934,-1.2452894 4.66185,-1.2452894 z"
           style="fill:#ff3a05;fill-opacity:1;stroke-width:0.26458332"
           id="path887" />
      </g>
    </g>
    <g
       id="g1827"
       transform="translate(21.713833,192.29033)"
       style="opacity:0.9;fill:#ff3a05;fill-opacity:1;filter:url(#filter1803)">
      <g
         aria-label="TICKETS"
         style="font-style:normal;font-variant:normal;font-weight:normal;font-stretch:normal;font-size:32.69683075px;line-height:1.25;font-family:Clip;-inkscape-font-specification:Clip;letter-spacing:0px;word-spacing:0px;fill:#ff3a05;fill-opacity:1;stroke:none;stroke-width:0.26458332"
         id="text1825">
        <path
           d="m 56.58722,7.685798 h 14.001524 q 1.628455,0.3672007 1.628455,1.5805597 v 0.5428184 q 0,0.9898459 -1.357046,1.5166989 -0.223513,0.0479 -0.447027,0.0479 h -4.773609 v 18.61548 q -0.111757,0.590715 -0.590715,0.590715 H 64.88915 q -0.494923,0 -0.60668,-0.702471 V 10.783056 q 0,-0.766332 0.766332,-0.766332 h 5.364324 q 0.415097,0 0.494923,-0.4789571 -0.03193,-0.4949227 -0.431062,-0.4949227 h -13.77801 q -0.399131,0 -0.431062,0.4949227 0.06386,0.4789571 0.478958,0.4789571 h 5.428185 q 0.558783,0 0.654575,0.702471 v 0.06386 q 0,0.447027 -0.60668,0.590715 h -5.47608 q -1.293185,0 -1.788108,-1.4049424 V 9.2663577 q 0,-1.213359 1.628455,-1.5805597 z"
           style="fill:#ff3a05;fill-opacity:1;stroke-width:0.26458332"
           id="path860" />
        <path
           d="m 75.937103,7.621937 h 0.223514 q 0.542818,0.1117567 0.542818,0.5428184 V 28.137282 q 0,1.085637 0.590715,1.085637 h 0.319305 q 0.606679,0 0.606679,-1.085637 V 8.1647554 Q 78.331891,7.621937 78.762953,7.621937 h 0.207548 q 0.542818,0.1117567 0.542818,0.5428184 V 28.632205 q -0.319305,1.947761 -1.899864,1.947761 H 77.29415 q -1.58056,0 -1.899865,-1.947761 V 8.1647554 Q 75.506042,7.621937 75.937103,7.621937 Z"
           style="fill:#ff3a05;fill-opacity:1;stroke-width:0.26458332"
           id="path862" />
        <path
           d="m 93.913975,7.685798 h 1.00581 q 2.171274,0 4.693784,1.0058107 0.271409,0.2714092 0.271409,0.4789575 v 0.3033397 q -0.223514,0.4310617 -0.574749,0.4310617 h -0.111757 q -2.55444,-0.9579149 -4.853436,-0.9579149 -6.41803,0 -9.291775,5.4441503 -1.053706,2.2511 -1.053706,5.380289 0,3.703938 2.538474,6.7533 2.889711,2.793919 7.168397,2.793919 2.410753,0 4.534131,-0.750367 0.111757,-0.159652 0.111757,-0.255444 -0.06386,-0.478957 -0.478958,-0.478957 -2.171273,0.431061 -3.576215,0.431061 h -0.383166 q -5.651699,0 -7.647355,-4.80554 -0.686506,-1.756177 -0.686506,-3.847625 v -0.478957 q 0,-0.478958 0.686506,-0.574749 0.510888,0 0.63861,0.782297 v 0.207548 q 0,5.013089 3.592181,6.705405 1.516699,0.686506 3.368668,0.686506 h 0.478957 q 1.27722,0 3.368668,-0.415097 h 0.159652 q 1.804074,0.223514 1.804074,1.788108 0,1.628456 -2.793919,1.995656 -1.468803,0.27141 -2.58637,0.27141 h -1.165464 q -4.039208,0 -7.328049,-2.953572 Q 82.7383,24.241762 82.7383,20.026936 v -1.101602 q 0,-5.428185 4.214826,-8.924575 3.129189,-2.314961 6.960849,-2.314961 z"
           style="fill:#ff3a05;fill-opacity:1;stroke-width:0.26458332"
           id="path864" />
        <path
           d="m 103.65277,7.685798 h 0.20755 q 0.31931,0 0.54282,0.4310617 V 28.201143 q 0,1.085637 0.70247,1.085637 0.76633,0 0.76633,-0.814227 v -7.088571 q 0,-3.512355 2.42672,-5.907142 5.07695,-6.4818916 6.17855,-7.5196328 0.59072,-0.2714092 1.02178,-0.2714092 h 0.0639 q 1.70828,0 1.94776,2.1074129 0,0.8142281 -1.30915,2.0595171 -0.84616,1.181429 -4.16693,4.981158 -0.15965,0.415096 -0.15965,0.590714 v 0.271409 q 0,0.814228 1.89986,3.304807 l 5.84328,8.717026 v 0.319305 q -0.11175,0.542819 -0.54281,0.542819 h -0.20755 q -0.43106,0 -1.46881,-1.836004 -5.82731,-8.429652 -6.60961,-9.850559 -0.27141,-0.526853 -0.27141,-1.133533 V 17.4246 q 0,-1.069672 1.08564,-2.155309 2.2032,-2.474613 4.00728,-4.773609 0.54282,-0.5108881 0.54282,-0.7503669 -0.0639,-0.7024709 -0.54282,-0.7024709 h -0.15966 q -0.3672,0 -1.89986,1.9956558 -5.07695,6.226448 -5.68363,7.200328 -0.63861,1.468803 -0.63861,3.19305 v 6.817161 q 0,1.708282 -1.30915,2.21917 -0.20755,0.111757 -0.59071,0.111757 h -0.38317 q -1.37301,0 -1.836,-1.676352 V 8.2286164 q 0.11175,-0.5428184 0.54281,-0.5428184 z"
           style="fill:#ff3a05;fill-opacity:1;stroke-width:0.26458332"
           id="path866" />
        <path
           d="m 123.38582,7.685798 h 11.91008 q 0.47896,0 0.59071,0.7024709 0,0.574749 -0.97388,0.6545753 H 124.20005 V 29.222919 h 10.39338 q 0.28737,0 0.3672,-0.207548 v -0.494923 q 0,-0.191583 -0.59072,-0.271409 h -8.11034 q -0.60668,-0.07983 -0.60668,-0.590714 v -7.902798 q 0,-1.820039 2.76199,-2.442684 0.46299,-0.09579 1.19739,-0.09579 h 0.3672 q 2.10741,0 5.09292,0.862123 0.2714,0.30334 0.2714,0.542819 -0.0479,0.702471 -0.70247,0.702471 -3.01743,-0.766332 -4.59799,-0.766332 h -0.59071 q -2.44269,0.207548 -2.44269,1.197394 v 7.136466 h 7.15244 q 1.59652,0 2.04355,1.149498 0.11175,0.207548 0.11175,0.590714 v 0.271409 q 0,1.436873 -1.72424,1.676352 H 123.38582 Q 122.843,30.468209 122.843,30.037147 V 8.2286164 q 0.11176,-0.5428184 0.54282,-0.5428184 z"
           style="fill:#ff3a05;fill-opacity:1;stroke-width:0.26458332"
           id="path868" />
        <path
           d="m 141.13918,7.685798 h 14.00153 q 1.62845,0.3672007 1.62845,1.5805597 v 0.5428184 q 0,0.9898459 -1.35704,1.5166989 -0.22352,0.0479 -0.44703,0.0479 h -4.77361 v 18.61548 q -0.11176,0.590715 -0.59071,0.590715 h -0.15966 q -0.49492,0 -0.60668,-0.702471 V 10.783056 q 0,-0.766332 0.76634,-0.766332 h 5.36432 q 0.4151,0 0.49492,-0.4789571 -0.0319,-0.4949227 -0.43106,-0.4949227 h -13.77801 q -0.39913,0 -0.43106,0.4949227 0.0639,0.4789571 0.47896,0.4789571 h 5.42818 q 0.55879,0 0.65458,0.702471 v 0.06386 q 0,0.447027 -0.60668,0.590715 h -5.47608 q -1.29319,0 -1.78811,-1.4049424 V 9.2663577 q 0,-1.213359 1.62845,-1.5805597 z"
           style="fill:#ff3a05;fill-opacity:1;stroke-width:0.26458332"
           id="path870" />
        <path
           d="m 167.70536,7.366493 h 0.94195 q 2.53847,0 4.77361,1.2931852 l 0.0958,0.383166 v 0.047896 q 0,0.5587837 -0.71844,0.6545752 -2.47461,-1.0856369 -4.59799,-1.0856369 -4.9173,0 -6.37014,3.4484938 -0.33527,1.037741 -0.33527,1.883899 v 0.223514 q 0,2.969536 3.16112,3.975347 0.95792,0.159653 3.87956,0.271409 3.22498,0.60668 4.21482,1.724247 1.66039,1.548629 1.66039,3.544286 v 0.606679 q 0,3.304807 -3.60815,5.587837 -2.17127,0.973881 -4.19886,0.973881 h -1.00581 q -2.53847,0 -4.98115,-1.181429 -0.67055,-0.702471 -0.67055,-1.245289 v -0.367201 q 0,-1.27722 1.38898,-1.676351 0.20755,-0.0479 0.49492,-0.0479 0.19159,0 2.55444,0.702471 0.84616,0.159652 1.70829,0.159652 h 0.28737 q 3.24095,0 3.7678,-2.650231 0,-1.021776 0.60668,-1.021776 h 0.11176 q 0.55878,0 0.65457,0.702471 0,2.937606 -3.25691,4.039208 -0.95792,0.271409 -1.99566,0.271409 h -0.22351 q -1.89986,0 -4.21483,-0.862123 h -0.11175 q -0.44703,0 -0.44703,0.542818 0,0.878089 4.5501,1.341081 5.33239,0 6.92891,-3.719903 0.22352,-0.67054 0.33528,-1.883899 0,-3.512355 -4.82151,-4.198861 -3.25691,-0.09579 -4.32658,-0.431061 -3.83166,-1.484769 -3.83166,-5.156776 v -0.175618 q 0,-3.432528 2.9376,-5.4281846 2.13935,-1.2452894 4.66186,-1.2452894 z"
           style="fill:#ff3a05;fill-opacity:1;stroke-width:0.26458332"
           id="path872" />
      </g>
    </g>
    <g
       aria-label="TICKETS"
       style="font-style:normal;font-variant:normal;font-weight:normal;font-stretch:normal;font-size:32.69683075px;line-height:1.25;font-family:Clip;-inkscape-font-specification:Clip;letter-spacing:0px;word-spacing:0px;opacity:1;fill:#ffece7;fill-opacity:1;stroke:none;stroke-width:0.26458332"
       id="text1831">
      <path
         d="m 78.300962,199.97624 h 14.001523 q 1.628456,0.3672 1.628456,1.58056 v 0.54282 q 0,0.98984 -1.357047,1.5167 -0.223513,0.0479 -0.447027,0.0479 h -4.773609 v 18.61548 q -0.111757,0.59072 -0.590714,0.59072 h -0.159653 q -0.494923,0 -0.606679,-0.70247 V 203.0735 q 0,-0.76633 0.766332,-0.76633 h 5.364323 q 0.415097,0 0.494923,-0.47896 -0.03193,-0.49492 -0.431062,-0.49492 h -13.77801 q -0.399131,0 -0.431061,0.49492 0.06386,0.47896 0.478957,0.47896 h 5.428185 q 0.558784,0 0.654575,0.70247 v 0.0639 q 0,0.44702 -0.606679,0.59071 h -5.476081 q -1.293185,0 -1.788108,-1.40494 v -0.70247 q 0,-1.21336 1.628456,-1.58056 z"
         style="fill:#ffece7;fill-opacity:1;stroke-width:0.26458332"
         id="path845" />
      <path
         d="m 97.650845,199.91238 h 0.223513 q 0.542819,0.11176 0.542819,0.54282 v 19.97252 q 0,1.08564 0.590714,1.08564 h 0.319305 q 0.606679,0 0.606679,-1.08564 V 200.4552 q 0.111755,-0.54282 0.542815,-0.54282 h 0.20755 q 0.54282,0.11176 0.54282,0.54282 v 20.46745 q -0.3193,1.94776 -1.899864,1.94776 h -0.319305 q -1.58056,0 -1.899865,-1.94776 V 200.4552 q 0.111757,-0.54282 0.542819,-0.54282 z"
         style="fill:#ffece7;fill-opacity:1;stroke-width:0.26458332"
         id="path847" />
      <path
         d="m 115.62772,199.97624 h 1.00581 q 2.17127,0 4.69378,1.00581 0.27141,0.27141 0.27141,0.47896 v 0.30334 q -0.22351,0.43106 -0.57475,0.43106 h -0.11176 q -2.55444,-0.95792 -4.85343,-0.95792 -6.41803,0 -9.29178,5.44415 -1.0537,2.2511 -1.0537,5.38029 0,3.70394 2.53847,6.7533 2.88971,2.79392 7.1684,2.79392 2.41075,0 4.53413,-0.75036 0.11176,-0.15966 0.11176,-0.25545 -0.0639,-0.47896 -0.47896,-0.47896 -2.17128,0.43107 -3.57622,0.43107 h -0.38316 q -5.6517,0 -7.64736,-4.80554 -0.6865,-1.75618 -0.6865,-3.84763 v -0.47896 q 0,-0.47895 0.6865,-0.57475 0.51089,0 0.63861,0.7823 v 0.20755 q 0,5.01309 3.59218,6.7054 1.5167,0.68651 3.36867,0.68651 h 0.47896 q 1.27722,0 3.36867,-0.4151 h 0.15965 q 1.80407,0.22352 1.80407,1.78811 0,1.62846 -2.79392,1.99566 -1.4688,0.27141 -2.58637,0.27141 h -1.16546 q -4.03921,0 -7.32805,-2.95357 -3.06533,-3.38464 -3.06533,-7.59946 v -1.1016 q 0,-5.42819 4.21483,-8.92458 3.12919,-2.31496 6.96085,-2.31496 z"
         style="fill:#ffece7;fill-opacity:1;stroke-width:0.26458332"
         id="path849" />
      <path
         d="m 125.36652,199.97624 h 0.20754 q 0.31931,0 0.54282,0.43106 v 20.08428 q 0,1.08564 0.70247,1.08564 0.76634,0 0.76634,-0.81423 v -7.08857 q 0,-3.51235 2.42671,-5.90714 5.07695,-6.48189 6.17856,-7.51963 0.59071,-0.27141 1.02177,-0.27141 h 0.0639 q 1.70828,0 1.94776,2.10741 0,0.81423 -1.30915,2.05952 -0.84616,1.18143 -4.16693,4.98116 -0.15965,0.41509 -0.15965,0.59071 v 0.27141 q 0,0.81423 1.89986,3.30481 l 5.84329,8.71702 v 0.31931 q -0.11176,0.54282 -0.54282,0.54282 h -0.20755 q -0.43106,0 -1.4688,-1.83601 -5.82732,-8.42965 -6.60962,-9.85056 -0.27141,-0.52685 -0.27141,-1.13353 v -0.33527 q 0,-1.06967 1.08564,-2.15531 2.2032,-2.47461 4.00728,-4.77361 0.54282,-0.51088 0.54282,-0.75036 -0.0639,-0.70247 -0.54282,-0.70247 h -0.15965 q -0.36721,0 -1.89987,1.99565 -5.07695,6.22645 -5.68363,7.20033 -0.63861,1.4688 -0.63861,3.19305 v 6.81716 q 0,1.70828 -1.30915,2.21917 -0.20755,0.11176 -0.59071,0.11176 h -0.38317 q -1.37301,0 -1.836,-1.67635 v -20.675 q 0.11175,-0.54282 0.54282,-0.54282 z"
         style="fill:#ffece7;fill-opacity:1;stroke-width:0.26458332"
         id="path851" />
      <path
         d="m 145.09956,199.97624 h 11.91008 q 0.47896,0 0.59071,0.70247 0,0.57475 -0.97388,0.65458 h -10.71268 v 20.18007 h 10.39338 q 0.28737,0 0.3672,-0.20755 v -0.49492 q 0,-0.19158 -0.59071,-0.27141 h -8.11035 q -0.60668,-0.0798 -0.60668,-0.59071 v -7.9028 q 0,-1.82004 2.76199,-2.44269 0.46299,-0.0958 1.19739,-0.0958 h 0.3672 q 2.10741,0 5.09292,0.86213 0.27141,0.30334 0.27141,0.54282 -0.0479,0.70247 -0.70248,0.70247 -3.01743,-0.76634 -4.59799,-0.76634 h -0.59071 q -2.44268,0.20755 -2.44268,1.1974 v 7.13646 h 7.15243 q 1.59652,0 2.04355,1.1495 0.11176,0.20755 0.11176,0.59072 v 0.27141 q 0,1.43687 -1.72425,1.67635 h -11.20761 q -0.54281,-0.11176 -0.54281,-0.54282 v -21.80853 q 0.11175,-0.54282 0.54281,-0.54282 z"
         style="fill:#ffece7;fill-opacity:1;stroke-width:0.26458332"
         id="path853" />
      <path
         d="m 162.85293,199.97624 h 14.00152 q 1.62845,0.3672 1.62845,1.58056 v 0.54282 q 0,0.98984 -1.35704,1.5167 -0.22352,0.0479 -0.44703,0.0479 h -4.77361 v 18.61548 q -0.11176,0.59072 -0.59071,0.59072 h -0.15965 q -0.49493,0 -0.60668,-0.70247 V 203.0735 q 0,-0.76633 0.76633,-0.76633 h 5.36432 q 0.4151,0 0.49492,-0.47896 -0.0319,-0.49492 -0.43106,-0.49492 h -13.77801 q -0.39913,0 -0.43106,0.49492 0.0639,0.47896 0.47896,0.47896 h 5.42818 q 0.55879,0 0.65458,0.70247 v 0.0639 q 0,0.44702 -0.60668,0.59071 h -5.47608 q -1.29319,0 -1.78811,-1.40494 v -0.70247 q 0,-1.21336 1.62846,-1.58056 z"
         style="fill:#ffece7;fill-opacity:1;stroke-width:0.26458332"
         id="path855" />
      <path
         d="m 189.4191,199.65693 h 0.94195 q 2.53847,0 4.77361,1.29319 l 0.0958,0.38317 v 0.0479 q 0,0.55879 -0.71844,0.65458 -2.47461,-1.08564 -4.59799,-1.08564 -4.9173,0 -6.37013,3.44849 -0.33527,1.03774 -0.33527,1.8839 v 0.22352 q 0,2.96953 3.16111,3.97534 0.95792,0.15966 3.87956,0.27141 3.22498,0.60668 4.21483,1.72425 1.66038,1.54863 1.66038,3.54429 v 0.60667 q 0,3.30481 -3.60814,5.58784 -2.17128,0.97388 -4.19886,0.97388 h -1.00582 q -2.53847,0 -4.98115,-1.18143 -0.67054,-0.70247 -0.67054,-1.24529 v -0.3672 q 0,-1.27722 1.38897,-1.67635 0.20755,-0.0479 0.49493,-0.0479 0.19158,0 2.55444,0.70247 0.84615,0.15965 1.70828,0.15965 h 0.28737 q 3.24095,0 3.7678,-2.65023 0,-1.02178 0.60668,-1.02178 h 0.11176 q 0.55878,0 0.65457,0.70247 0,2.93761 -3.25691,4.03921 -0.95791,0.27141 -1.99565,0.27141 h -0.22352 q -1.89986,0 -4.21482,-0.86212 h -0.11176 q -0.44703,0 -0.44703,0.54282 0,0.87808 4.5501,1.34108 5.33239,0 6.92892,-3.71991 0.22351,-0.67054 0.33527,-1.8839 0,-3.51235 -4.82151,-4.19886 -3.25691,-0.0958 -4.32658,-0.43106 -3.83166,-1.48477 -3.83166,-5.15677 v -0.17562 q 0,-3.43253 2.9376,-5.42819 2.13935,-1.24529 4.66186,-1.24529 z"
         style="fill:#ffece7;fill-opacity:1;stroke-width:0.26458332"
         id="path857" />
    </g>
  </g>
</svg>
