<?xml version="1.0" encoding="UTF-8" standalone="no"?>
<!-- Created with Inkscape (http://www.inkscape.org/) -->

<svg
   xmlns:dc="http://purl.org/dc/elements/1.1/"
   xmlns:cc="http://creativecommons.org/ns#"
   xmlns:rdf="http://www.w3.org/1999/02/22-rdf-syntax-ns#"
   xmlns:svg="http://www.w3.org/2000/svg"
   xmlns="http://www.w3.org/2000/svg"
   xmlns:sodipodi="http://sodipodi.sourceforge.net/DTD/sodipodi-0.dtd"
   xmlns:inkscape="http://www.inkscape.org/namespaces/inkscape"
   width="200mm"
   height="200mm"
   viewBox="0 0 200 200"
   version="1.1"
   id="svg8"
   inkscape:version="0.92.4 (5da689c313, 2019-01-14)"
   sodipodi:docname="VR.svg">
  <defs
     id="defs2" />
  <sodipodi:namedview
     id="base"
     pagecolor="#ffffff"
     bordercolor="#666666"
     borderopacity="1.0"
     inkscape:pageopacity="0.0"
     inkscape:pageshadow="2"
     inkscape:zoom="0.24748737"
     inkscape:cx="1791.3866"
     inkscape:cy="-560.86712"
     inkscape:document-units="mm"
     inkscape:current-layer="g1043"
     showgrid="false"
     inkscape:window-width="1920"
     inkscape:window-height="986"
     inkscape:window-x="-11"
     inkscape:window-y="-11"
     inkscape:window-maximized="1" />
  <metadata
     id="metadata5">
    <rdf:RDF>
      <cc:Work
         rdf:about="">
        <dc:format>image/svg+xml</dc:format>
        <dc:type
           rdf:resource="http://purl.org/dc/dcmitype/StillImage" />
        <dc:title></dc:title>
      </cc:Work>
    </rdf:RDF>
  </metadata>
  <g
     inkscape:label="Layer 1"
     inkscape:groupmode="layer"
     id="layer1"
     transform="translate(0,-97)">
    <g
       id="g891"
       transform="matrix(1.2991409,0,0,1.2991409,32.816517,-30.80173)">
      <g
         id="g1043">
        <path
           style="fill:#2e3440;stroke-width:0.11091031"
           d="m 46.800759,227.08579 c -2.886245,-0.36344 -9.617377,-2.30479 -20.844316,-6.01181 -7.463249,-2.4643 -12.704965,-4.32426 -19.7948031,-7.02391 -8.5493801,-3.25543 -13.3146123,-5.35478 -15.2528555,-6.71974 -1.2578964,-0.88583 -3.2404864,-2.87755 -4.0130944,-4.03159 -1.592224,-2.37825 -2.906879,-5.73421 -3.799139,-9.69814 -0.271644,-1.20681 -0.379945,-2.04739 -0.158838,-1.23284 0.331411,1.22091 0.478095,1.62532 0.643622,1.77456 0.101491,0.0915 0.217801,0.2533 0.258477,0.35953 0.09131,0.23853 0.62789,0.2237 0.833264,-0.0231 0.125172,-0.15036 0.162203,-0.14114 0.318533,0.0794 0.205275,0.28958 0.482574,0.33046 0.482574,0.0713 0,-0.12899 0.06904,-0.16159 0.249549,-0.11772 0.282786,0.0687 0.808823,-0.29319 0.694619,-0.47798 -0.09065,-0.14665 0.22023,-0.2692 0.4547,-0.17924 0.146195,0.0561 0.153432,0.0993 0.03964,0.23637 -0.254461,0.30661 0.0063,0.32322 0.288979,0.0185 0.152828,-0.1648 0.325755,-0.29965 0.384287,-0.29965 0.05853,0 0.106427,-0.0735 0.106427,-0.16312 0,-0.28324 0.696513,-1.18112 0.820248,-1.05739 0.06126,0.0613 0.251147,0.11133 0.421945,0.11133 0.170804,0 0.310549,0.0498 0.310549,0.11098 0,0.0609 0.07486,0.11098 0.166366,0.11098 0.0915,0 0.166365,-0.0694 0.166365,-0.15449 0,-0.085 -0.07486,-0.18322 -0.166365,-0.21834 -0.298357,-0.11454 -0.178548,-0.2895 0.152815,-0.22323 0.34067,0.068 0.8362097,-0.12661 0.7357668,-0.28911 -0.1209431,-0.19568 0.1660313,-0.22841 0.4383516,-0.05 0.3460726,0.22674 0.6617572,0.13163 0.5815078,-0.17531 -0.037356,-0.14285 -0.00273,-0.22046 0.098327,-0.22046 0.09015,0 0.1559853,-0.11098 0.1559853,-0.26278 0,-0.21704 0.07136,-0.27433 0.4100888,-0.32932 0.2255495,-0.0365 0.4291771,-0.0475 0.4525014,-0.0241 0.087933,0.0879 -0.3371367,0.6105 -0.5520736,0.67872 -0.2162326,0.0687 -0.2148979,0.0759 0.03764,0.20551 0.3097006,0.15892 0.6500218,0.008 0.6500218,-0.28815 0,-0.10364 0.053322,-0.22155 0.1184779,-0.2618 0.065156,-0.0404 0.090425,-0.14631 0.056156,-0.23564 -0.046013,-0.11997 -0.00596,-0.14452 0.153131,-0.094 0.1353736,0.043 0.2928461,-0.009 0.4236877,-0.13986 0.2861565,-0.28617 0.5808758,-0.38367 0.7458468,-0.24674 0.150698,0.12501 0.4990962,0.0379 0.4990962,-0.12489 0,-0.0557 -0.1247746,-0.0699 -0.2772763,-0.0316 -0.1525048,0.0383 -0.2772753,0.022 -0.2772753,-0.0361 0,-0.18956 0.431105,-0.5014 0.6023229,-0.43571 0.091821,0.0352 0.1964426,0.0163 0.2324931,-0.042 0.036047,-0.0583 0.206518,-0.10605 0.3788077,-0.10605 0.226647,0 0.3303779,-0.0654 0.3752148,-0.23697 0.050968,-0.19491 0.1194716,-0.22546 0.3859633,-0.17216 0.268655,0.0536 0.3451248,0.0185 0.447687,-0.20668 0.1511769,-0.3318 0.2370633,-0.33697 0.6179514,-0.0374 l 0.2975986,0.23409 0.3713044,-0.42818 c 0.4098822,-0.47266 0.4096913,-0.63045 -5.448e-4,-0.52748 -0.2803737,0.0705 -0.3466823,-0.0721 -0.2051565,-0.44097 0.05332,-0.13889 0.1049418,-0.14565 0.2806574,-0.0368 0.1539383,0.0955 0.2380987,0.0989 0.2951434,0.0119 0.1143013,-0.17363 0.7265467,-0.27159 0.91684747,-0.14671 0.13601499,0.0892 0.12655075,0.13218 -0.0606775,0.27495 -0.1267365,0.0966 -0.3287934,0.14241 -0.4713706,0.10674 -0.3471835,-0.087 -0.3108872,0.0776 0.056315,0.25528 0.5561142,0.26915 0.56818727,0.26981 0.50477537,0.0273 -0.033274,-0.12714 0.001595,-0.30572 0.0770494,-0.39684 0.10858805,-0.13085 0.10909189,-0.23424 0.002123,-0.49182 -0.16970347,-0.40973 -0.0788398,-0.56134 0.3364772,-0.56134 0.34087827,0 0.4282071,-0.18635 0.19610063,-0.41845 -0.0986444,-0.0986 -0.0992148,-0.19784 -0.002123,-0.41037 0.15345973,-0.33681 0.35428531,-0.36797 0.35428531,-0.055 0,0.12395 0.08733617,0.25807 0.19409089,0.29812 0.10675863,0.0401 0.25291603,0.15079 0.32481249,0.24608 0.11615721,0.15394 0.13999588,0.14927 0.21404392,-0.0419 0.0517289,-0.1336 0.0337124,-0.23171 -0.0475398,-0.2588 -0.17327492,-0.0579 -0.16785677,-0.32693 0.007816,-0.38604 0.11081458,-0.0372 0.11085475,-0.0803 2.2277e-4,-0.21445 -0.21213233,-0.25712 0.11831821,-0.82105 0.61703632,-1.05302 0.5260755,-0.24469 0.5931675,-0.34643 0.5169097,-0.78391 -0.060134,-0.34495 0.074491,-0.49227 0.225926,-0.24724 0.03997,0.0647 0.1937304,-0.0279 0.3584134,-0.21548 0.2250168,-0.25644 0.3315217,-0.30565 0.4843862,-0.22384 0.1210757,0.0647 0.22041,0.0654 0.2599528,9.7e-4 0.094854,-0.15347 -0.1391476,-0.25941 -0.4182195,-0.18938 -0.1342889,0.0337 -0.312734,0.0189 -0.3965337,-0.0328 -0.2237706,-0.1383 0.2402211,-0.26462 0.6452405,-0.17567 0.40021,0.0879 0.5727783,-0.13417 0.2745633,-0.35332 -0.2048674,-0.15055 -0.2033589,-0.16092 0.051517,-0.35391 0.1925054,-0.14581 0.2426287,-0.26163 0.1878655,-0.43417 -0.083572,-0.2633 0.3202971,-0.90866 0.5686274,-0.90866 0.1739952,0 0.1807104,-0.0596 0.036921,-0.32838 -0.1582408,-0.29567 0.15323,-0.54273 0.4503121,-0.35718 0.1528432,0.0955 0.2128183,0.0977 0.2128183,0.008 0,-0.0701 0.097072,-0.0994 0.2218197,-0.0668 0.1220034,0.0319 0.2218197,0.0133 0.2218197,-0.0425 -1.5e-5,-0.0553 -0.1284455,-0.10054 -0.2854216,-0.10054 -0.2122306,0 -0.275751,-0.0497 -0.2477369,-0.19407 0.020693,-0.10674 0.120679,-0.19475 0.2221261,-0.19553 0.2840707,-0.003 0.360117,-0.141 0.2271129,-0.41466 -0.1683314,-0.34632 -0.2376843,-0.85318 -0.12618,-0.92209 0.051084,-0.0316 0.2279255,0.0311 0.3929445,0.13917 0.2940488,0.19267 0.2988416,0.192 0.2398799,-0.0335 -0.072224,-0.27617 0.2555022,-0.54039 0.4406392,-0.35525 0.1509966,0.15099 0.3638803,0.0166 0.2877858,-0.18172 -0.090186,-0.23502 0.160364,-0.61513 0.4054773,-0.61513 0.1810352,0 0.2179141,0.0767 0.2179141,0.4529 0,0.58673 0.2627798,0.53526 0.3126368,-0.0613 0.028474,-0.34096 -0.045414,-0.54029 -0.3810957,-1.02768 -0.3265388,-0.47413 -0.3914249,-0.64434 -0.3005447,-0.78842 0.1540678,-0.24424 0.2999892,-0.1994 0.3733935,0.11465 0.041937,0.17936 0.1529465,0.26691 0.3705794,0.29216 0.2793009,0.0324 0.3028275,0.0103 0.2325162,-0.2218 -0.043016,-0.14186 -0.1764237,-0.42011 -0.2964451,-0.61837 -0.2189505,-0.36165 -0.1753621,-0.44659 0.1300637,-0.25346 0.1091803,0.0691 0.2201704,0.0538 0.3327307,-0.0457 0.092894,-0.0821 0.2687191,-0.16804 0.3907179,-0.1909 0.1509633,-0.0284 0.2218209,-0.12938 0.2218209,-0.31646 0,-0.2985 0.1249335,-0.55214 0.271959,-0.55214 0.1629349,0 0.2397605,0.36729 0.095477,0.45648 -0.1949831,0.12051 -0.03839,0.24332 0.2064899,0.16201 0.1113494,-0.037 0.2815721,-0.22869 0.3782804,-0.42604 0.1026384,-0.20945 0.2757614,-0.37356 0.4159099,-0.39426 0.2500954,-0.037 0.325318,-0.28697 0.1237939,-0.41152 -0.1330099,-0.0822 0.06854,-0.38487 0.2562871,-0.38487 0.157793,0 0.406805,0.3504 0.411031,0.57838 0.0033,0.18482 0.311753,0.41982 0.550788,0.41982 0.175601,0 0.143041,-0.28495 -0.05097,-0.44596 -0.258755,-0.21475 0.111361,-0.58808 0.497043,-0.50135 0.270218,0.0607 0.273039,0.0564 0.06684,-0.10456 -0.118411,-0.0924 -0.320542,-0.16805 -0.449184,-0.16805 -0.128645,0 -0.28131,-0.0473 -0.339259,-0.10525 -0.05796,-0.0578 -0.57951,-0.2581 -1.1590128,-0.44496 -0.5795093,-0.18685 -1.1534695,-0.38419 -1.2754729,-0.4385 -0.1220047,-0.0543 -0.5462284,-0.20834 -0.9427365,-0.34226 -0.3965012,-0.13393 -0.8207331,-0.2844 -0.9427365,-0.33441 -0.1220035,-0.0499 -1.1950597,-0.42794 -2.3845748,-0.83983 -3.58805207,-1.24242 -3.71213573,-1.36096 -0.4034723,-0.38545 11.6398398,3.43189 21.3616888,6.09734 31.5692708,8.65539 7.249182,1.81668 10.436578,2.57946 10.502641,2.51339 0.145994,-0.14598 -3.699082,-1.22067 -10.336276,-2.88893 -14.570605,-3.66234 -25.4998154,-6.75671 -38.4858743,-10.89641 -4.0548923,-1.29262 -5.7632338,-1.81291 -5.9526508,-1.81291 -0.057788,0 -0.074213,0.05 -0.036486,0.11098 0.1093157,0.17691 -0.090678,0.13778 -1.7554729,-0.3433 -2.673002,-0.77243 -3.965161,-0.9307 -4.894899,-0.59955 -0.57714,0.20555 -0.602469,0.15215 -0.0698,-0.14724 0.524021,-0.29452 1.203173,-0.4298 2.948502,-0.58734 1.799075,-0.1624 1.75058,-0.16701 3.0603009,0.29025 0.9697676,0.33857 3.7092701,1.06457 3.9625665,1.05012 0.1795948,-0.0103 -0.8333338,-0.39132 -2.6507726,-0.99725 -2.3453398,-0.78192 -2.5178428,-0.85694 -2.6054448,-1.13295 -0.08392,-0.26441 0.357804,-0.75874 1.034565,-1.15776 0.4557993,-0.26873 0.6300669,-0.58956 0.3202479,-0.58956 -0.083125,0 -1.1615559,0.50203 -2.3965269,1.11562 -1.234973,0.61362 -2.268844,1.09221 -2.297489,1.06356 -0.05218,-0.0522 0.78559,-0.55521 2.238744,-1.34419 0.427003,-0.23185 0.876194,-0.50764 0.998193,-0.61291 0.489112,-0.42196 1.5334441,-0.56782 2.2848361,-0.31911 0.2073554,0.0687 2.6728502,1.16181 5.4788839,2.42931 5.9476189,2.68657 6.9096063,3.102 9.3792939,4.05047 9.0048481,3.45827 20.0598261,6.21927 35.5223471,8.87171 1.961388,0.33646 4.090213,0.70922 4.730716,0.82837 0.640508,0.11918 2.671505,0.46673 4.513325,0.77241 5.827456,0.96715 7.681343,1.46049 10.431078,2.77583 4.995522,2.38963 7.509658,5.67806 8.606757,11.25745 0.539535,2.74384 0.677301,3.88407 0.904441,7.48644 0.38212,6.06002 0.129229,11.06615 -0.726704,14.38583 -1.152801,4.47097 -2.853724,7.10631 -5.855155,9.07169 -1.759581,1.1522 -3.219674,1.67423 -5.895427,2.10776 -1.25323,0.20305 -3.726539,0.79603 -6.044608,1.44917 -1.305981,0.36796 -1.59337,0.40949 -3.050036,0.44069 -0.884511,0.0189 -1.935678,-0.007 -2.335937,-0.0572 z m 9.039403,-6.78147 c 0.768818,-2.29756 1.029591,-4.70406 1.134375,-10.46819 0.06563,-3.60968 -0.0844,-9.87617 -0.300045,-12.53287 -0.33683,-4.14987 -0.856594,-6.55896 -1.834233,-8.50176 -0.500261,-0.99411 -1.13632,-1.94031 -1.554173,-2.31198 l -0.311733,-0.27729 0.194232,0.30991 c 1.352962,2.15866 2.060073,4.12182 2.445127,6.78836 0.21662,1.50015 0.462799,5.28789 0.616308,9.48282 0.345952,9.45343 0.09176,14.34442 -0.942482,18.13384 -0.149842,0.549 -0.271629,1.0481 -0.270642,1.10911 0.0049,0.29908 0.473729,-0.68738 0.823266,-1.73195 z m 13.870393,-17.6219 c 0.03769,-0.0609 0.01568,-0.11098 -0.0489,-0.11098 -0.06459,0 -0.117457,0.05 -0.117457,0.11098 0,0.0609 0.022,0.11098 0.0489,0.11098 0.0269,0 0.07975,-0.0498 0.117445,-0.11098 z m -0.634218,-0.6961 c 0.07819,-0.16034 0.277831,-0.39822 0.443646,-0.52859 0.268742,-0.21132 0.307909,-0.32933 0.360575,-1.08666 0.173222,-2.49042 -0.532053,-8.2896 -1.338982,-11.00985 -0.119564,-0.40308 -0.217398,-0.84788 -0.217398,-0.98845 0,-0.31671 -0.472574,-1.15562 -0.915861,-1.62582 -0.245956,-0.26091 -0.379194,-0.32737 -0.512362,-0.2556 -0.09899,0.0535 -0.604206,0.23222 -1.12271,0.39745 -1.027078,0.32735 -0.966863,0.2966 -2.329121,1.18953 -1.259287,0.82545 -1.599156,1.1477 -1.820656,1.72633 -0.102512,0.26781 -0.358674,0.6972 -0.569247,0.95417 -0.210565,0.25697 -0.38285,0.51698 -0.38285,0.57778 0,0.0608 -0.153404,0.32236 -0.34091,0.58117 -0.410035,0.56606 -0.35275,0.69765 0.127691,0.29339 0.192892,-0.16231 0.481985,-0.36138 0.642424,-0.44238 0.346842,-0.1751 2.58103,-0.94693 3.084792,-1.06568 0.320287,-0.0755 0.341564,-0.0647 0.229145,0.11521 -0.09528,0.15254 -0.02919,0.78408 0.285825,2.73167 0.22537,1.39329 0.409233,2.64198 0.408591,2.77488 -0.0011,0.1329 0.07075,0.31352 0.158627,0.4014 0.09169,0.0917 0.133036,0.26202 0.09703,0.39976 -0.03464,0.13244 0.0077,0.32529 0.09441,0.43042 0.24057,0.29151 0.699732,1.28208 0.666637,1.43818 -0.04172,0.19679 0.196067,0.17264 0.272957,-0.0276 0.03513,-0.0915 0.133359,-0.16637 0.218341,-0.16637 0.178679,0 0.206446,0.17663 0.04355,0.27727 -0.1914,0.11826 -0.121632,0.25054 0.170902,0.32396 0.158954,0.0398 0.250205,0.12182 0.209301,0.18806 -0.05069,0.0821 -0.108802,0.081 -0.193089,-0.003 -0.14916,-0.14917 -0.408933,-0.15805 -0.408933,-0.0141 0,0.21317 0.493191,0.55889 0.797288,0.55889 0.22842,0 0.311813,0.0543 0.311813,0.20332 0,0.1119 0.03593,0.23927 0.07987,0.28319 0.04389,0.0438 0.08135,0.1888 0.08317,0.32194 0.0022,0.18049 0.088,0.2575 0.336057,0.30267 0.297927,0.0543 0.330771,0.10019 0.313977,0.43952 -0.01194,0.24124 0.04852,0.43002 0.166365,0.51949 0.246222,0.18694 0.378181,0.13519 0.549094,-0.2153 z m -0.697313,-1.07914 c -0.110753,-0.12236 -0.17314,-0.25073 -0.138648,-0.28523 0.07213,-0.0721 0.527442,0.29171 0.527442,0.42147 0,0.15502 -0.183333,0.0908 -0.388794,-0.13624 z m 1.497896,0.99887 c 0,-0.12196 -0.04988,-0.22184 -0.110902,-0.22184 -0.06099,0 -0.110913,0.0999 -0.110913,0.22184 0,0.12197 0.04988,0.22182 0.110913,0.22182 0.06101,0 0.110902,-0.0999 0.110902,-0.22182 z m -2.661843,-1.33094 c 0.06529,-0.12196 0.07478,-0.2218 0.02107,-0.2218 -0.05369,0 -0.187964,0.0999 -0.298374,0.2218 -0.17718,0.19579 -0.179662,0.22183 -0.02107,0.22183 0.0988,0 0.233076,-0.0999 0.298374,-0.22183 z m -7.759508,-3.46096 c -0.138782,-2.68151 -0.09814,-3.25218 0.284251,-3.99165 0.260785,-0.50429 0.118836,-0.48203 -0.166774,0.026 -0.35935,0.63937 -0.471948,2.07243 -0.339483,4.32096 0.1098,1.86413 0.17877,2.40512 0.292159,2.29172 0.03496,-0.035 0.0033,-1.2262 -0.07016,-2.64721 z m -59.34122939,-9.5026 c 0,-0.11493 -0.08733617,-0.23968 -0.19408952,-0.27734 -0.10675862,-0.0376 -0.25648352,-0.0977 -0.33273089,-0.13309 -0.0904912,-0.0421 -0.13864114,0.0283 -0.13864114,0.2034 0,0.33476 0.0793563,0.41592 0.40667541,0.41592 0.17950564,0 0.25878614,-0.064 0.25878614,-0.20889 z M 1.308936,186.73212 c 0.066537,-0.19962 -0.1627063,-0.15766 -0.2400647,0.0439 -0.041441,0.108 -0.016665,0.15873 0.064375,0.13165 0.072476,-0.0241 0.1515414,-0.10318 0.1756836,-0.17563 z m 0.1363318,-0.58172 c 0,-0.14764 -0.1879914,-0.22146 -0.3781822,-0.14848 -0.29285121,0.11236 -0.21017686,0.35239 0.1008985,0.29293 0.1525053,-0.0293 0.2772809,-0.0941 0.2772809,-0.14445 z M 1.223442,185.43586 c 0.1130813,-0.13624 0.1054985,-0.16637 -0.041879,-0.16637 -0.098963,0 -0.1799418,0.075 -0.1799418,0.16637 0,0.0915 0.018838,0.16637 0.04188,0.16637 0.023041,0 0.1040007,-0.0749 0.1799408,-0.16637 z m 55.621522,-0.92857 c 0.854007,-0.18206 2.201566,-0.46633 2.994575,-0.63173 1.572865,-0.32803 2.707366,-0.64725 3.198619,-0.90003 0.297932,-0.15328 0.30492,-0.17314 0.129175,-0.36733 -0.269901,-0.29824 -1.665785,-0.95609 -2.456518,-1.15771 -0.374811,-0.0956 -0.948771,-0.17347 -1.275473,-0.1731 -0.727744,5.4e-4 -2.467775,0.25729 -3.366754,0.49627 -1.21986,0.32429 -4.135541,0.83398 -4.770685,0.83398 -0.344825,0 -0.610316,0.0468 -0.589982,0.1041 0.06705,0.18871 2.465484,1.93333 2.863473,2.08291 0.517431,0.19446 1.360781,0.12051 3.273564,-0.28731 z M 5.1907963,182.29571 c 0.024515,-0.0736 -0.058096,-0.13164 -0.1871627,-0.13164 -0.2303918,0 -0.2994452,0.11653 -0.1548092,0.26109 0.1027532,0.10272 0.2879499,0.0327 0.3419719,-0.12938 z m 0.4390234,-0.30961 c -0.036864,-0.0368 -0.1325175,-0.0409 -0.2125785,-0.0103 -0.088476,0.0353 -0.062205,0.0616 0.067003,0.0669 0.1169134,0.005 0.182425,-0.0213 0.1455725,-0.0582 z m -1.3635643,-0.59571 c 0.3336121,-0.12687 0.3690323,-0.2875 0.080029,-0.36308 -0.1226404,-0.032 -0.2557972,0.0287 -0.3327307,0.15192 -0.2181172,0.34927 -0.1844771,0.37737 0.2526927,0.21116 z m 0.9879201,-0.0858 c 0.1746643,-0.14164 0.2299247,-0.29146 0.2045572,-0.55454 -0.019499,-0.20247 0.01694,-0.36046 0.083185,-0.36046 0.064868,0 0.1179337,-0.0498 0.1179337,-0.11098 0,-0.26956 -0.3225299,-0.0772 -0.3906629,0.23311 -0.041547,0.18922 -0.1721164,0.44057 -0.2901339,0.55859 -0.118013,0.11798 -0.1848536,0.26267 -0.1485313,0.32144 0.091265,0.14766 0.1485967,0.13586 0.4236499,-0.0872 z M 53.240379,180.89 c 1.640108,-0.17818 2.772045,-0.35182 2.858722,-0.4385 0.03067,-0.0306 -0.08846,-0.11133 -0.264674,-0.17945 -0.322819,-0.12461 -0.780679,-0.10248 -2.205862,0.10708 -1.23413,0.18143 -3.088277,0.14227 -4.547325,-0.0959 -1.971184,-0.32194 -4.969294,-0.95495 -6.925006,-1.46213 -0.949299,-0.24616 -2.724189,-0.69304 -3.944201,-0.99303 -1.220012,-0.3 -2.390352,-0.59337 -2.600752,-0.65194 -0.2104,-0.0587 -0.402802,-0.0863 -0.427555,-0.0615 -0.07559,0.0755 5.026237,1.58477 6.521983,1.9293 0.518504,0.11945 1.59156,0.42407 2.38457,0.67698 2.336873,0.74529 3.462469,1.00746 4.990961,1.16251 1.934476,0.19624 2.407704,0.19702 4.159139,0.007 z M 6.3253196,178.50403 c 0,-0.0609 -0.049936,-0.11099 -0.1109018,-0.11099 -0.061011,0 -0.1109247,0.05 -0.1109247,0.11099 0,0.0609 0.04989,0.11098 0.1109247,0.11098 0.061,0 0.1109018,-0.05 0.1109018,-0.11098 z m 3.1054858,-0.1331 c 0,-0.17917 -0.03279,-0.2112 -0.1234358,-0.12051 -0.067875,0.0679 -0.089899,0.17767 -0.048903,0.24401 0.1147237,0.18562 0.1723391,0.14436 0.1723391,-0.12342 z m -0.694335,-1.38949 c 0.2332782,-0.94534 0.4572717,-0.92981 0.4517271,0.0313 -0.00207,0.39979 0.023046,0.75415 0.056375,0.78747 0.315762,0.31575 0.4318445,-1.38364 0.1244963,-1.82245 -0.09496,-0.13557 -0.2446875,-0.2465 -0.3327307,-0.2465 -0.08804,0 -0.1600748,-0.0535 -0.1600748,-0.11864 0,-0.0653 -0.112302,-0.10261 -0.2495457,-0.0832 -0.1878433,0.0266 -0.2561828,0.11771 -0.2763708,0.36818 -0.014759,0.183 -0.081268,0.76752 -0.1478059,1.29894 -0.2019267,1.61261 0.1143449,1.48517 0.5339377,-0.21515 z m 5.2293486,0.84475 c 0.104796,-0.30062 0.09905,-0.32747 -0.0446,-0.20824 -0.09069,0.0753 -0.164907,0.23057 -0.164907,0.3451 0,0.30323 0.07265,0.25577 0.209513,-0.13686 z m -1.711994,-0.38715 c 0.08214,-0.43783 -0.0033,-0.63037 -0.165506,-0.37364 -0.13184,0.20848 -0.137692,0.77316 -0.0079,0.77316 0.05418,0 0.13229,-0.17979 0.173516,-0.39952 z m -1.433168,-0.40459 c 0.07229,-0.49349 0.0616,-0.52682 -0.16911,-0.52682 -0.179012,0 -0.227892,0.0479 -0.178962,0.17543 0.03702,0.0965 0.06732,0.38099 0.06732,0.63219 0,0.59445 0.178722,0.41571 0.280749,-0.2808 z M 8.0624254,175.4817 c -0.03077,-0.0762 -0.05595,-0.014 -0.05595,0.13863 0,0.1525 0.025158,0.21489 0.05595,0.13864 0.03077,-0.0762 0.03077,-0.20102 0,-0.27727 z m 4.3629596,-2.3014 c 0,-0.0609 -0.08734,-0.11018 -0.194096,-0.10926 -0.16587,9.8e-4 -0.169899,0.0174 -0.02772,0.10926 0.209311,0.13528 0.221821,0.13528 0.221821,0 z m 72.201009,37.84814 c 2.18114,-2.03408 3.506431,-3.86206 4.52311,-6.2387 0.784482,-1.83382 1.467645,-4.09491 1.467645,-4.85751 0,-0.36002 -0.01553,-0.37509 -0.305004,-0.29619 -0.562868,0.15339 -0.750172,0.12435 -0.728856,-0.11305 0.32081,-3.57346 0.312843,-8.16565 -0.02271,-13.08887 -0.09146,-1.34202 -0.198185,-3.07362 -0.237171,-3.84804 l -0.07088,-1.408 0.340067,-0.38731 c 0.214344,-0.24412 0.390811,-0.61416 0.477378,-1.00096 l 0.137328,-0.61366 -0.528994,-0.91833 c -0.998807,-1.73394 -1.8099,-2.65539 -3.220304,-3.65856 -3.475243,-2.47177 -9.056934,-3.63674 -19.021117,-3.96992 -4.766383,-0.15938 -11.011641,-0.53256 -13.974699,-0.83509 -2.399501,-0.24496 -7.91332,-1.07528 -12.182442,-1.83454 l -2.477796,-0.44066 -1.625885,0.22956 c -1.832844,0.25878 -2.163631,0.23915 -3.955005,-0.2345 -0.671011,-0.17742 -1.307359,-0.32267 -1.414107,-0.32275 -0.281159,-2.3e-4 -0.238065,0.27823 0.07477,0.48322 0.147872,0.097 0.299261,0.27193 0.336418,0.389 0.03715,0.11706 0.214992,0.27392 0.395189,0.34855 0.687512,0.28479 -0.01785,0.45805 -1.32674,0.3259 -1.071411,-0.10822 -8.771215,-2.17078 -9.015495,-2.41505 -0.142561,-0.14256 1.534587,-0.91412 2.569438,-1.18204 0.72882,-0.18868 1.932058,-0.15095 2.065384,0.0648 0.03397,0.055 0.18068,0.1 0.325982,0.1 0.145307,0 0.290874,0.0431 0.323495,0.0959 0.08881,0.1437 0.820646,0.23719 1.086611,0.1388 0.219945,-0.0814 0.211381,-0.10249 -0.155496,-0.38226 -0.213542,-0.16287 -0.426557,-0.29614 -0.47336,-0.29614 -0.04678,0 -0.566139,-0.17938 -1.154089,-0.39863 -6.816386,-2.54188 -10.18973,-4.64987 -11.431105,-7.14326 -0.371075,-0.74534 -0.456656,-1.02252 -0.408691,-1.32373 0.04357,-0.27349 -0.0054,-0.48769 -0.173041,-0.75914 -0.220715,-0.35712 -0.223905,-0.39873 -0.05741,-0.7479 0.104349,-0.21881 0.381607,-0.49004 0.679201,-0.66446 0.458404,-0.26863 0.576726,-0.28947 1.337767,-0.23553 0.459188,0.0326 0.884232,0.0896 0.944538,0.12701 0.06031,0.0372 0.110742,0.25197 0.112084,0.47712 0.0033,0.52552 0.326446,1.2345 0.776983,1.70378 0.194962,0.20309 0.436566,0.46905 0.5369,0.59107 0.100332,0.12196 0.281917,0.29452 0.403522,0.38336 0.121594,0.0888 0.0654,-0.0103 -0.124907,-0.22183 -0.476522,-0.52797 -0.921693,-1.33143 -1.088903,-1.9653 -0.170264,-0.64544 -0.09797,-1.79411 0.118146,-1.87705 0.08336,-0.0319 0.652435,7e-5 1.26462,0.0713 l 1.113049,0.12938 1.909576,-1.15201 c 4.904707,-2.95897 4.983362,-3.01035 5.131936,-3.35334 0.265311,-0.61247 1.08868,-1.25117 3.044066,-2.36137 4.603731,-2.6138 5.365351,-3.04163 7.153717,-4.01856 1.03701,-0.56651 2.659073,-1.45464 3.604587,-1.97364 2.919204,-1.60238 2.650173,-1.48683 3.294248,-1.41485 0.527371,0.059 0.675107,0.0176 1.719112,-0.48017 3.109581,-1.48277 8.832413,-3.82984 10.957722,-4.49404 0.335501,-0.1049 0.709821,-0.23031 0.831824,-0.2788 1.103701,-0.43865 6.199235,-2.15512 8.70646,-2.93284 1.233491,-0.38264 3.574241,-1.01709 4.713688,-1.27765 0.305001,-0.0698 1.053647,-0.24713 1.663652,-0.39416 3.253389,-0.78426 8.318753,-1.61024 12.255592,-1.99846 0.884509,-0.0872 2.132251,-0.21109 2.772754,-0.27523 1.907125,-0.19099 5.317683,-0.30097 8.09645,-0.26112 3.01199,0.0431 3.158403,0.0608 2.997021,0.36245 -0.271636,0.50756 -0.07336,0.56613 0.737003,0.21779 0.40339,-0.17341 0.58294,-0.20131 0.72562,-0.11282 0.10427,0.0647 0.33528,0.0885 0.51336,0.0529 0.18563,-0.0372 0.35598,-0.0133 0.39924,0.0573 0.0415,0.0672 0.21888,0.12209 0.39416,0.12209 0.34716,0 0.50714,-0.26246 0.37301,-0.61198 -0.0666,-0.17364 -0.0315,-0.19055 0.27047,-0.13018 0.45087,0.0902 0.52064,-0.045 0.3397,-0.65771 -0.10255,-0.34729 -0.25105,-0.56399 -0.486,-0.70921 -0.44994,-0.27806 -0.73636,-0.81916 -1.16208,-2.1954 -0.3117,-1.00758 -0.33726,-1.18327 -0.21513,-1.47815 0.0762,-0.18405 0.25191,-0.40887 0.39039,-0.4996 0.27595,-0.18081 0.43582,-0.15832 4.42789,0.62313 0.97601,0.19103 2.29861,0.4453 2.93913,0.56501 2.44186,0.45641 2.4926,0.47112 2.52999,0.73379 0.0321,0.22624 0.009,0.23532 -0.35261,0.13557 -1.60247,-0.44244 -9.21443,-1.81151 -9.48828,-1.70653 -0.34927,0.13392 0.14583,0.27205 2.37538,0.66278 2.3566,0.41299 4.5007,0.84501 6.32189,1.27382 1.30999,0.30842 1.336,0.31049 1.30244,0.10283 -0.036,-0.22311 0.63402,-0.22392 0.90251,-9.7e-4 0.22058,0.18304 0.23671,0.38938 0.024,0.30779 -0.22549,-0.0865 -0.29735,0.0333 -0.16655,0.27767 0.0709,0.13244 0.18584,0.1897 0.30511,0.15184 0.16012,-0.0508 0.24051,0.11599 0.49234,1.02179 0.41536,1.49392 0.40205,1.84141 -0.0871,2.27454 -0.21351,0.18904 -0.38819,0.40936 -0.38819,0.48965 0,0.23511 -0.2277,0.16839 -0.46805,-0.13716 -0.33404,-0.42467 -0.37699,-0.23197 -0.0753,0.33761 0.15581,0.2941 0.32402,0.47998 0.40598,0.44862 0.14932,-0.0571 0.69187,0.1518 0.69187,0.2664 0,0.0377 -0.0987,0.15302 -0.2194,0.25633 -0.27162,0.23256 -0.1525,0.67547 0.19569,0.72765 0.12618,0.0189 0.28906,0.10628 0.36196,0.19409 0.0729,0.0878 0.28068,0.1597 0.46174,0.1597 0.41821,0 1.39201,0.81106 1.88233,1.56776 0.19228,0.29675 0.38753,0.53953 0.43388,0.53953 0.12041,0 0.24749,-1.14584 0.16164,-1.45756 -0.0609,-0.22122 -0.0534,-0.2317 0.0493,-0.0679 0.0667,0.10639 0.43098,0.40229 0.80939,0.65755 0.76245,0.5143 2.18533,1.65397 2.18533,1.75036 0,0.0339 0.19375,0.26738 0.43058,0.5188 0.59893,0.63585 1.33133,1.90694 1.64261,2.85073 0.47177,1.43044 0.69196,2.7423 1.15724,6.89469 0.32087,2.86332 0.35224,8.47272 0.0617,11.03557 -0.50484,4.45371 -1.0718,6.6165 -2.78804,10.63556 -0.56882,1.33206 -0.61525,1.50543 -0.61749,2.30654 -0.003,1.44947 -0.35458,2.0074 -3.0525,4.859 -2.75602,2.91299 -5.02437,5.36651 -6.87016,7.43099 -0.92717,1.037 -1.89742,2.07631 -2.15611,2.30955 -0.42414,0.3824 -0.51206,0.41704 -0.89464,0.35241 -0.31359,-0.053 -0.44856,-0.0293 -0.51745,0.0911 -0.0823,0.14375 -1.16401,1.38634 -2.86596,3.29231 -1.36185,1.52508 -2.08725,2.35506 -3.05282,3.49294 -0.569403,0.67101 -1.445017,1.6289 -1.945803,2.12863 l -0.910528,0.90862 -0.07505,1.03231 c -0.147921,2.03451 -0.402459,3.95203 -0.672829,5.06861 -1.123985,4.64195 -3.725747,8.2611 -8.000888,11.12958 -1.14739,0.76984 -4.870968,2.74614 -5.174101,2.74614 -0.06622,0 0.347875,-0.43671 0.920213,-0.97047 z m 6.565637,-15.5792 c -0.07958,-0.0795 -0.131245,-0.0862 -0.131245,-0.0168 0,0.14804 0.131165,0.2792 0.205184,0.20518 0.03153,-0.0316 -0.0016,-0.11639 -0.07395,-0.18855 z m 0.117376,-1.50098 c -0.02777,-0.0762 -0.120055,-0.13864 -0.205024,-0.13864 -0.162793,0 -0.207858,0.39737 -0.08217,0.72485 0.05915,0.15416 0.09647,0.13058 0.205015,-0.12951 0.07299,-0.17493 0.109984,-0.38041 0.0822,-0.45666 z m 0.08415,-4.8246 c 0.01194,-2.45527 0.02929,-5.37498 0.03855,-6.48822 0.01911,-2.29914 0.06705,-2.20357 -0.922194,-1.83867 -0.748907,0.27623 -0.887689,0.41178 -0.492408,0.48091 0.265709,0.0465 0.325602,0.11466 0.340884,0.3882 0.02402,0.42955 0.360803,7.59886 0.435013,9.26008 0.03137,0.7015 0.104027,1.45015 0.161552,1.66365 0.05752,0.2135 0.104853,0.52545 0.105198,0.69319 0,0.18741 0.06058,0.305 0.156137,0.305 0.130501,0 0.159023,-0.7186 0.177257,-4.46414 z m 0.598097,-9.02053 c 0.09747,-0.25402 0.08259,-0.60094 -0.02575,-0.60094 -0.130515,0 -0.366881,0.54928 -0.289943,0.67379 0.09647,0.15606 0.240652,0.12275 0.315728,-0.0728 z m -0.625169,-0.18503 c -0.0543,-0.16536 -0.749344,-0.25658 -0.749344,-0.0984 0,0.11294 0.2337,0.20147 0.591519,0.22413 0.116648,0.008 0.183934,-0.0463 0.157825,-0.12583 z m 16.134805,-1.12965 c 0.0284,-0.14857 0.0103,-0.33573 -0.0409,-0.41592 -0.0589,-0.093 -0.0931,0.005 -0.0942,0.27011 -0.002,0.47547 0.0593,0.54165 0.135,0.14581 z m -0.0815,-0.94892 c 0.0755,-0.23813 -0.003,-0.44463 -0.1726,-0.44463 -0.0575,0 -0.10433,0.14972 -0.10433,0.33273 0,0.37652 0.17106,0.44562 0.27698,0.1119 z m -15.208852,-1.78368 c 0.0747,-0.80387 0.0109,-1.13951 -0.164138,-0.86328 -0.124243,0.19607 -0.127544,1.64778 -0.0038,1.64778 0.05222,0 0.127784,-0.35302 0.167895,-0.7845 z m 15.042732,0.3343 c 0,-0.17939 -0.0489,-0.32617 -0.1088,-0.32617 -0.13835,0 -0.26874,0.50322 -0.17124,0.66096 0.12294,0.19895 0.28004,0.0103 0.28004,-0.33479 z m -0.0699,-0.90845 c 0.12023,-0.44863 0.0786,-0.63774 -0.14005,-0.63774 -0.23019,0 -0.3446,0.20555 -0.3446,0.61907 0,0.35504 0.39047,0.37009 0.48465,0.0187 z m -14.745104,-1.14255 c 0.06567,-0.11892 0.149353,-0.24107 0.185976,-0.27155 0.15248,-0.12701 0.326952,-0.56709 0.264734,-0.66777 -0.03692,-0.0598 -0.309296,-0.10857 -0.605274,-0.10857 -0.46477,0 -0.577298,0.0465 -0.825281,0.34126 -0.162273,0.19285 -0.287137,0.47902 -0.287137,0.65807 0,0.26268 0.05217,0.32326 0.305007,0.35425 0.454841,0.0557 0.827785,-0.0628 0.961975,-0.30564 z m 14.579244,0.0318 c 0.0739,-0.13816 0.14788,-0.37736 0.16432,-0.53153 0.0164,-0.15415 0.0671,-0.34059 0.11271,-0.41426 0.0511,-0.0828 0.0168,-0.13393 -0.0901,-0.13393 -0.095,0 -0.17291,-0.0533 -0.17291,-0.11839 0,-0.0679 0.0946,-0.0884 0.22183,-0.048 0.16655,0.0529 0.22181,0.0199 0.22181,-0.13217 0,-0.11144 -0.0999,-0.26496 -0.22181,-0.34114 -0.23472,-0.14657 -0.30794,-0.58029 -0.098,-0.58029 0.0693,0 0.0982,-0.0979 0.0659,-0.22182 -0.0417,-0.15948 -0.003,-0.22182 0.13623,-0.22182 0.10685,0 0.28036,-0.0951 0.38561,-0.21145 0.18132,-0.20036 0.18093,-0.22362 -0.008,-0.44364 -0.10937,-0.12767 -0.26261,-0.2322 -0.34054,-0.2322 -0.0779,0 -0.14173,-0.0759 -0.14173,-0.16848 0,-0.12793 0.0733,-0.15051 0.305,-0.0939 0.16776,0.0411 0.34625,0.1294 0.39663,0.19621 0.0871,0.11547 0.15808,0.0405 0.2217,-0.23392 0.0103,-0.0461 0.14926,-0.20952 0.30797,-0.36325 0.15873,-0.15369 0.26494,-0.34762 0.23604,-0.43093 -0.0288,-0.0832 0.0159,-0.19408 0.0996,-0.24617 0.12409,-0.0772 0.12641,-0.13621 0.0126,-0.3199 -0.12367,-0.19955 -0.1127,-0.2252 0.0968,-0.2252 0.20216,0 0.21545,-0.0252 0.0918,-0.17407 -0.0794,-0.0956 -0.2353,-0.15032 -0.34631,-0.1213 -0.1414,0.037 -0.20184,-0.008 -0.20184,-0.15212 0,-0.1127 0.0539,-0.23822 0.1199,-0.27899 0.066,-0.0407 0.09,-0.19343 0.0534,-0.33927 -0.0537,-0.21404 -0.0234,-0.26517 0.15737,-0.26517 0.2552,0 0.30492,-0.31593 0.0853,-0.54196 -0.11213,-0.11533 -0.0856,-0.13554 0.13864,-0.10536 0.22378,0.0301 0.28478,-0.0159 0.31617,-0.23849 0.0472,-0.33504 0.42542,-0.88874 0.60705,-0.88874 0.0725,0 0.19829,-0.15036 0.27964,-0.33414 0.19302,-0.43603 0.47422,-0.5847 0.84172,-0.44499 0.24409,0.0928 0.28453,0.0779 0.28453,-0.10433 0,-0.11693 -0.0507,-0.24387 -0.1127,-0.28221 -0.0621,-0.0383 -0.0865,-0.11213 -0.0544,-0.16396 0.032,-0.0519 -0.0239,-0.1764 -0.12416,-0.27674 -0.13616,-0.13615 -0.15047,-0.21439 -0.0565,-0.3084 0.094,-0.094 0.12596,-0.0923 0.12596,0.007 0,0.25864 0.28039,0.11879 0.5221,-0.26035 0.30096,-0.47217 0.39336,-1.2324 0.14336,-1.17968 -0.13384,0.0282 -0.12915,-0.003 0.024,-0.15876 0.18105,-0.18429 0.204,-0.17922 0.46532,0.10272 0.18115,0.19547 0.30127,0.25387 0.35232,0.17127 0.0429,-0.0694 -0.0387,-0.21294 -0.18258,-0.32147 -0.22167,-0.1672 -0.23838,-0.22224 -0.11327,-0.37295 0.17453,-0.2103 0.62919,-0.23445 0.71933,-0.0382 0.035,0.0762 0.0341,0.014 -0.002,-0.13863 -0.036,-0.15252 -0.14769,-0.34162 -0.24799,-0.4203 -0.1564,-0.12263 -0.15951,-0.15713 -0.0218,-0.24223 0.0884,-0.0546 0.21283,-0.0654 0.27674,-0.0241 0.14648,0.0947 0.60852,0.12395 0.87068,0.055 0.35716,-0.0939 -0.0174,-0.39758 -0.39671,-0.32171 -0.20769,0.0415 -0.37792,0.007 -0.48466,-0.10042 -0.20953,-0.20955 -0.10616,-0.38472 0.18246,-0.30925 0.12393,0.0324 0.22171,0.003 0.22171,-0.0659 0,-0.11706 -0.21913,-0.17209 -0.52683,-0.13217 -0.24827,0.0323 -0.14595,-0.21625 0.13268,-0.32218 0.20036,-0.0762 0.28893,-0.21322 0.3387,-0.52408 0.0371,-0.23152 0.11386,-0.4958 0.17068,-0.5873 0.0568,-0.0915 0.17895,-0.3348 0.27143,-0.54066 0.15266,-0.33984 0.20042,-0.36785 0.51881,-0.30415 0.41869,0.0838 0.75818,-0.1649 0.75818,-0.55528 0,-0.17157 0.0504,-0.2373 0.1518,-0.19835 0.0911,0.035 0.17663,-0.0367 0.21402,-0.17979 0.0475,-0.18148 0.11681,-0.22073 0.29186,-0.16517 0.12628,0.0401 0.22961,0.0238 0.22961,-0.0364 0,-0.0601 -0.0589,-0.12872 -0.13086,-0.15276 -0.0785,-0.0263 -0.0993,-0.12594 -0.0518,-0.24961 0.0602,-0.15699 0.10983,-0.17519 0.2085,-0.0765 0.0713,0.0713 0.21929,0.12953 0.32909,0.12953 0.11018,0 0.19964,0.0806 0.19964,0.17993 0,0.14506 0.0313,0.15394 0.16166,0.0457 0.13993,-0.11612 0.13247,-0.16551 -0.0554,-0.36723 -0.27299,-0.29303 -0.27429,-0.41885 -0.005,-0.48927 0.37725,-0.0986 0.84594,-1.74387 0.55018,-1.93122 -0.26437,-0.16746 -0.4188,-0.1096 -0.58982,0.22109 -0.097,0.18758 -0.24796,0.31434 -0.36328,0.30502 -0.13295,-0.0103 -0.23167,0.10065 -0.30252,0.3411 -0.0862,0.29272 -0.14868,0.34615 -0.34663,0.29645 -0.19423,-0.0488 -0.26473,0.007 -0.36042,0.28068 -0.0872,0.25028 -0.18835,0.34129 -0.37909,0.34129 -0.19774,0 -0.28555,0.0865 -0.36623,0.36046 -0.0814,0.27651 -0.16021,0.35305 -0.33846,0.32868 -0.17901,-0.0246 -0.25643,0.0518 -0.33736,0.33274 -0.0808,0.28047 -0.16638,0.36503 -0.37121,0.36682 -0.20782,9.8e-4 -0.28723,0.0833 -0.36205,0.37221 -0.0808,0.31196 -0.13719,0.36196 -0.35999,0.31938 -0.2326,-0.0445 -0.27273,4.4e-4 -0.33625,0.37643 -0.0547,0.32413 -0.12405,0.42694 -0.28769,0.42694 -0.41854,0 -0.37165,-0.33567 0.10823,-0.77425 0.25279,-0.23108 0.4596,-0.47581 0.4596,-0.54386 0,-0.0681 0.0689,-0.12369 0.15321,-0.12369 0.0842,0 0.28643,-0.17469 0.44929,-0.38818 0.16284,-0.21351 0.36841,-0.3882 0.4568,-0.3882 0.0884,0 0.16072,-0.0521 0.16072,-0.11573 0,-0.15424 1.16761,-1.32611 1.32129,-1.32611 0.0663,0 0.12053,-0.0673 0.12053,-0.14939 0,-0.1193 0.83489,-0.93002 1.21681,-1.18152 0.0464,-0.0305 0.11926,-0.16776 0.1621,-0.30501 0.0428,-0.13724 0.14763,-0.24954 0.23286,-0.24954 0.0852,0 0.20842,-0.0999 0.27371,-0.22182 0.0921,-0.17207 0.0844,-0.22183 -0.0345,-0.22183 -0.22408,0 -0.85276,0.33203 -0.85276,0.45038 0,0.0558 -0.19965,0.22743 -0.44365,0.38146 -0.244,0.15402 -0.44364,0.33464 -0.44364,0.40134 0,0.12648 -0.42749,0.50472 -0.81852,0.72432 -0.18241,0.10249 -0.25239,0.0928 -0.35625,-0.0494 -0.11362,-0.15536 -0.17084,-0.13124 -0.47246,0.19899 -0.3907,0.42777 -0.37641,0.55978 0.0317,0.29239 0.33238,-0.21778 0.39624,-0.22471 0.39333,-0.0428 -9.9e-4,0.0762 -0.17589,0.28838 -0.38812,0.47138 -0.21224,0.183 -0.56227,0.49493 -0.77784,0.69319 -0.41064,0.37765 -0.60638,0.45105 -0.60638,0.22736 0,-0.17629 -0.26941,0.083 -0.28682,0.27599 -0.007,0.0739 -0.0198,0.22714 -0.029,0.3405 -0.013,0.15906 -0.0769,0.19105 -0.27963,0.14018 -0.31209,-0.0784 -0.87141,0.37466 -0.84041,0.68063 0.0337,0.33246 -9.7e-4,0.39064 -0.15651,0.26167 -0.21151,-0.17554 -0.46856,0.0502 -3.52293,3.09235 -2.68845,2.67783 -3.15178,3.26555 -2.85548,3.62214 0.094,0.11305 0.17705,0.60828 0.21849,1.30246 0.0384,0.64302 0.14158,1.28534 0.24229,1.5082 l 0.17538,0.38818 -0.0599,-0.55454 c -0.0329,-0.305 -0.0529,-0.87896 -0.0442,-1.27547 0.0126,-0.57979 0.0583,-0.75071 0.23349,-0.87308 0.11979,-0.0837 0.21781,-0.23592 0.21781,-0.33828 0,-0.19445 0.20234,-0.4523 0.35492,-0.4523 0.18996,0 0.0748,0.3563 -0.19652,0.60768 -0.24259,0.22483 -0.29473,0.38955 -0.34854,1.10114 -0.0446,0.58953 -0.0222,0.88629 0.0758,1.0044 0.0765,0.0922 0.10772,0.24945 0.0694,0.34946 -0.0384,0.1 -0.0253,0.23791 0.0291,0.30642 0.1048,0.13205 0.21434,0.6138 0.30571,1.3446 0.0305,0.244 0.10949,0.55315 0.17551,0.68701 0.066,0.13383 0.0935,0.44116 0.0611,0.68293 -0.0349,0.25985 -0.007,0.49137 0.0677,0.56627 0.0697,0.0698 0.13905,0.33633 0.15416,0.59254 0.0522,0.88621 0.16317,1.57549 0.27591,1.7143 0.0662,0.0817 0.0833,0.36474 0.041,0.68312 -0.052,0.39198 -0.0327,0.55958 0.069,0.60051 0.23699,0.0954 0.26538,0.0829 0.40444,-0.17691 z m 0.50646,-4.41768 c -0.0413,-0.0668 -0.003,-0.19212 0.0817,-0.27835 0.13258,-0.13259 0.18863,-0.13353 0.3628,-0.007 0.11327,0.0829 0.17045,0.20812 0.12703,0.27838 -0.10019,0.16214 -0.47264,0.16617 -0.57153,0.007 z m 0.50568,-0.9321 c 0,-0.0915 -0.0529,-0.16636 -0.11746,-0.16636 -0.0646,0 -0.0892,-0.0458 -0.0544,-0.10191 0.0358,-0.0579 0.20713,-0.03 0.39589,0.0641 0.35366,0.17643 0.3491,0.37049 -0.009,0.37049 -0.11841,0 -0.21527,-0.0749 -0.21527,-0.16637 z m -0.25776,-1.20917 c -0.0876,-0.22812 0.0388,-0.30107 0.2155,-0.12435 0.1946,0.19462 0.1942,0.27992 -9.8e-4,0.27992 -0.085,0 -0.18136,-0.07 -0.21418,-0.15551 z m 1.77354,-2.13663 c -0.11608,-0.11612 -0.0865,-0.45974 0.0466,-0.54203 0.18568,-0.1148 0.35377,0.12262 0.27115,0.38299 -0.0753,0.23714 -0.18485,0.29199 -0.31778,0.15904 z m 0.45648,-0.65259 c -0.0871,-0.0872 0.0395,-0.6044 0.14797,-0.6044 0.12615,0 0.12835,0.52271 0.003,0.60047 -0.0524,0.0325 -0.12021,0.0342 -0.1505,0.003 z m -3.91882,-0.83531 c -0.049,-0.0792 0.0907,-0.29801 0.35029,-0.5489 0.23743,-0.22941 0.51474,-0.53462 0.6162,-0.67821 0.12581,-0.17802 0.22147,-0.22539 0.30071,-0.14891 0.16614,0.16034 -0.10146,0.65553 -0.37707,0.69783 -0.12047,0.0186 -0.2939,0.19058 -0.38541,0.38244 -0.18313,0.38398 -0.37919,0.49887 -0.50472,0.29575 z m 3.22202,-0.21272 c 0.0378,-0.0609 0.11846,-0.11098 0.17946,-0.11098 0.0609,0 0.08,0.0498 0.0423,0.11098 -0.0378,0.0609 -0.11844,0.11099 -0.17946,0.11099 -0.0609,0 -0.08,-0.0498 -0.0425,-0.11099 z m 0.89203,-0.32507 c -0.0819,-0.13271 0.12661,-0.2642 0.27434,-0.1729 0.12405,0.0765 0.0426,0.27615 -0.1127,0.27615 -0.0538,0 -0.12655,-0.0464 -0.16163,-0.1033 z m 1.11354,-0.30101 c -0.15372,-0.40056 0.0628,-0.53385 0.26217,-0.16137 0.0842,0.15737 0.0735,0.22579 -0.0423,0.27027 -0.0853,0.0327 -0.18424,-0.0163 -0.21978,-0.1088 z m -0.95191,-0.42102 c 0,-0.095 0.0499,-0.17292 0.11087,-0.17292 0.0609,0 0.11086,0.0469 0.11086,0.10433 0,0.0574 -0.0499,0.13521 -0.11086,0.17291 -0.061,0.0376 -0.11087,-0.009 -0.11087,-0.10433 z m -2.83155,-0.2892 c -0.0817,-0.13217 1.70393,-1.98506 1.91654,-1.98866 0.16683,-0.003 0.16834,0.0161 0.0305,0.37862 -0.0638,0.16786 -0.19472,0.2845 -0.31927,0.2845 -0.13,0 -0.26406,0.1278 -0.34894,0.33273 -0.0857,0.20714 -0.21861,0.33273 -0.35185,0.33273 -0.13976,0 -0.2703,0.13468 -0.37621,0.38819 -0.15885,0.38017 -0.40783,0.5031 -0.55074,0.27189 z m 2.72063,-0.38935 c 0,-0.095 0.0507,-0.14157 0.11271,-0.10329 0.0621,0.0383 0.084,0.11613 0.0489,0.17291 -0.095,0.15384 -0.16163,0.12515 -0.16163,-0.0698 z m 0.84718,-0.21528 c -0.0434,-0.11317 0.006,-0.16635 0.1545,-0.16635 0.12013,0 0.21834,0.0747 0.21834,0.16635 0,0.0915 -0.0695,0.16637 -0.15451,0.16637 -0.085,0 -0.18321,-0.075 -0.21833,-0.16637 z m 0.3932,-0.68203 c 0.0236,-0.19814 0.17053,-0.37927 0.45101,-0.55616 0.26911,-0.16974 0.41506,-0.21282 0.41351,-0.1221 -9.7e-4,0.0772 -0.16352,0.21512 -0.36046,0.30661 -0.26631,0.12369 -0.35129,0.23033 -0.33163,0.41591 0.0146,0.13727 -0.0263,0.24957 -0.0906,0.24957 -0.0644,0 -0.10122,-0.13229 -0.0818,-0.29384 z m -1.76788,-0.77801 c -0.1852,-0.0746 0.16145,-0.67717 0.44059,-0.76577 0.1088,-0.0345 0.1981,-0.12183 0.19845,-0.19396 9.7e-4,-0.13667 1.12332,-1.29573 1.25504,-1.29573 0.10042,0 0.0932,0.46567 -0.009,0.62655 -0.0449,0.0701 -0.20595,0.14498 -0.35806,0.16639 -0.20819,0.0293 -0.29061,0.12116 -0.33344,0.37162 -0.0391,0.22907 -0.12881,0.34305 -0.28773,0.36582 -0.13586,0.0194 -0.30594,0.19059 -0.41339,0.41592 -0.18275,0.38319 -0.23176,0.414 -0.49183,0.30916 z m 2.93056,-1.22028 c -0.0406,-0.0407 -0.0739,-0.12555 -0.0739,-0.18857 0,-0.0694 0.0516,-0.0629 0.13125,0.0166 0.0722,0.0722 0.10547,0.15703 0.0739,0.18855 -0.0316,0.0316 -0.0905,0.024 -0.13125,-0.0168 z m 3.69701,-3.9743 c 0,-0.10168 0.0536,-0.16696 0.11923,-0.1451 0.0655,0.0219 0.11922,0.0871 0.11922,0.1451 0,0.058 -0.0536,0.1233 -0.11922,0.14512 -0.0655,0.0219 -0.11923,-0.0435 -0.11923,-0.14512 z m -19.076573,18.97218 c 0,-0.0269 -0.04988,-0.0799 -0.110913,-0.11746 -0.06099,-0.0376 -0.110902,-0.0156 -0.110902,0.049 0,0.0646 0.04988,0.11745 0.110902,0.11745 0.06101,0 0.110913,-0.0219 0.110913,-0.049 z m 10.425573,-0.50563 c 0,-0.0609 -0.022,-0.11098 -0.0489,-0.11098 -0.0269,0 -0.0798,0.0498 -0.11747,0.11098 -0.0378,0.0609 -0.0156,0.11098 0.0489,0.11098 0.0646,0 0.11747,-0.05 0.11747,-0.11098 z m 0.11087,-1.37984 c 0,-0.0879 -0.0464,-0.18853 -0.1033,-0.22363 -0.13187,-0.0815 -0.26447,0.1262 -0.17402,0.27254 0.10203,0.16502 0.27728,0.1341 0.27728,-0.049 z m -13.633574,-0.35174 c 0.147888,-0.15939 0.967619,-0.91992 1.821626,-1.69008 8.118968,-7.32185 13.757458,-12.73199 18.454648,-17.70724 3.0125,-3.19085 4.1156,-4.41569 4.1156,-4.56986 0,-0.0599 -0.0986,-0.19808 -0.21901,-0.30709 -0.18808,-0.17021 -0.26539,-0.17896 -0.54802,-0.062 -0.42616,0.17653 -0.76973,0.0639 -2.19145,-0.71822 -2.7988,-1.53976 -8.56307,-3.56139 -11.71271,-4.10788 -1.15972,-0.2012 -1.82686,-0.48728 -2.39135,-1.0254 -0.22321,-0.21278 -0.57595,-0.42627 -0.78387,-0.47443 -1.746141,-0.4044 -9.833186,-0.40859 -13.818481,-0.007 -7.188032,0.72405 -12.9785,1.95044 -18.632931,3.94634 -0.976011,0.34451 -2.548163,0.89221 -3.493676,1.21711 -7.695965,2.64451 -15.813708,6.72567 -23.367885,11.74812 -1.893544,1.25893 -2.188223,1.51501 -1.928238,1.67569 0.0935,0.0577 2.320732,0.48143 4.666809,0.88768 1.035752,0.17935 3.028655,0.46454 4.325502,0.61897 0.457505,0.0545 1.605425,0.20563 2.550935,0.33587 0.945513,0.1302 1.918751,0.25519 2.162754,0.27767 0.244001,0.0224 0.917783,0.0907 1.497287,0.1515 0.579508,0.061 1.702476,0.16279 2.495483,0.22645 1.939197,0.1557 3.687576,0.31548 5.490061,0.50174 0.823509,0.0852 2.262206,0.23087 3.197089,0.32392 1.950491,0.19415 3.181529,0.34375 4.677543,0.56844 0.579503,0.0871 1.652559,0.23435 2.384569,0.32736 1.688333,0.21455 4.407419,0.65261 6.599166,1.06315 0.976561,0.18292 2.507857,0.5323 3.327306,0.75916 0.457504,0.1266 1.056422,0.28184 1.330926,0.34487 0.716735,0.16458 2.89858,0.91075 3.715493,1.27066 0.183001,0.0806 0.557326,0.22912 0.831825,0.32997 0.274504,0.10088 0.920937,0.39244 1.436522,0.64796 1.26072,0.62479 2.590777,1.90611 3.101434,2.98778 0.194387,0.41175 0.41704,0.74864 0.494796,0.74864 0.07776,0 0.262359,-0.13045 0.410247,-0.28978 z m 14.579844,-1.1632 c 0.0954,-0.30042 -0.13321,-0.55872 -0.28373,-0.32064 -0.15705,0.2484 -0.12898,0.55363 0.051,0.55363 0.0873,0 0.19217,-0.1049 0.23284,-0.23299 z m -4.3845,-0.21066 c 0,-0.0609 -0.0748,-0.11098 -0.16636,-0.11098 -0.0915,0 -0.16637,0.0498 -0.16637,0.11098 0,0.061 0.0749,0.11099 0.16637,0.11099 0.0915,0 0.16636,-0.0498 0.16636,-0.11099 z m -14.972881,-0.77637 c 0,-0.0609 -0.08735,-0.11017 -0.194098,-0.10926 -0.165863,9.8e-4 -0.169904,0.0174 -0.02772,0.10926 0.209306,0.13527 0.221819,0.13527 0.221818,0 z m 15.935931,-0.79715 c -0.0354,-0.0885 -0.0617,-0.0621 -0.067,0.0669 -0.005,0.11692 0.0214,0.18243 0.0582,0.14557 0.0368,-0.0368 0.0408,-0.13257 0.009,-0.21257 z m -19.263243,-0.24724 c -0.487947,-0.17783 -1.407686,-0.32642 -1.290099,-0.20842 0.09495,0.0954 1.094065,0.33015 1.456465,0.34239 0.122746,0.003 0.04842,-0.0557 -0.166366,-0.13397 z m -2.883669,-0.50835 c 0,-0.0609 -0.07485,-0.11098 -0.166366,-0.11098 -0.09149,0 -0.166365,0.0498 -0.166365,0.11098 0,0.0609 0.07485,0.11099 0.166365,0.11099 0.09149,0 0.166366,-0.0498 0.166366,-0.11099 z m -2.227446,-0.26167 c -0.130675,-0.1127 -0.668041,-0.17991 -0.603515,-0.0755 0.03922,0.0635 0.201443,0.11534 0.360511,0.11534 0.159067,0 0.268415,-0.0179 0.243004,-0.0398 z m -4.80575,-0.48661 c -0.04553,-0.0455 -0.540478,-0.11665 -1.099855,-0.15809 -0.559374,-0.0413 -2.090106,-0.17904 -3.401618,-0.30586 -1.311514,-0.12686 -2.958535,-0.27786 -3.660042,-0.33562 -1.433261,-0.11799 -4.692646,-0.24171 -4.436413,-0.16839 0.09149,0.0263 2.61194,0.24665 5.60097,0.48993 2.989037,0.24328 5.634244,0.46062 5.87825,0.48294 0.858396,0.0786 1.200701,0.077 1.118708,-0.005 z m -13.762483,-1.13761 c -0.462375,-0.0895 -3.383551,-0.24081 -2.994581,-0.15516 0.380414,0.0838 2.188752,0.23639 2.828215,0.23875 0.593827,0.003 0.598236,-5e-5 0.166366,-0.0837 z m -3.632312,-0.30086 c -0.167755,-0.0254 -0.442257,-0.0254 -0.610011,0 -0.167749,0.0254 -0.03048,0.0461 0.305006,0.0461 0.335502,0 0.472754,-0.0208 0.305005,-0.0461 z m -1.220017,-0.11098 c -0.167748,-0.0254 -0.442252,-0.0254 -0.610006,0 -0.167749,0.0254 -0.03051,0.0462 0.305006,0.0462 0.335502,0 0.472754,-0.0208 0.305,-0.0462 z m -3.604581,-0.32675 c -0.07625,-0.0308 -0.201029,-0.0308 -0.277275,0 -0.07625,0.0308 -0.01389,0.0559 0.138636,0.0559 0.1525,0 0.214886,-0.0252 0.138639,-0.0559 z m 59.586551,-3.58658 c 0.0378,-0.0609 0.0157,-0.11098 -0.0489,-0.11098 -0.0646,0 -0.11745,0.0498 -0.11745,0.11098 0,0.0609 0.022,0.11098 0.0489,0.11098 0.0268,0 0.0798,-0.05 0.11746,-0.11098 z m 0.72092,-1.67021 c 0,-0.0574 -0.0499,-0.10432 -0.11086,-0.10432 -0.0609,0 -0.11087,0.0778 -0.11087,0.17291 0,0.095 0.0499,0.14205 0.11087,0.10433 0.0609,-0.0377 0.11086,-0.11547 0.11086,-0.17292 z m -0.11259,-0.57571 c -9.7e-4,-0.0762 -0.0508,-0.21351 -0.11086,-0.305 -0.0971,-0.14789 -0.12135,-0.14789 -0.21843,0 -0.15537,0.23665 -0.13919,0.30949 0.0815,0.36717 0.10674,0.0279 0.20658,0.0565 0.22182,0.0636 0.0153,0.007 0.027,-0.0495 0.026,-0.12581 z m 1.34095,-0.003 c -0.0137,-0.13263 -0.16584,-0.10696 -0.21351,0.036 -0.0244,0.0732 0.0155,0.11305 0.0887,0.0887 0.0732,-0.0244 0.12936,-0.0806 0.12478,-0.12475 z m 0.34243,-1.30042 c 0.33621,-0.56857 0.54646,-1.90202 0.26275,-1.66655 -0.0844,0.07 -0.24445,0.11178 -0.35572,0.0928 -0.23182,-0.0395 -0.35338,0.41338 -0.16227,0.60451 0.10214,0.10226 0.0789,0.53791 -0.051,0.95398 -0.0676,0.21654 -0.37726,-0.0553 -0.37726,-0.33108 0,-0.11454 -0.0552,-0.20823 -0.12263,-0.20823 -0.229,0 -0.71364,0.4974 -0.67539,0.69319 0.0396,0.20268 0.35437,0.27657 0.35437,0.0832 0,-0.0609 0.0499,-0.11098 0.11087,-0.11098 0.0609,0 0.11086,0.075 0.11086,0.16636 0,0.0915 0.0582,0.16636 0.12941,0.16636 0.0712,0 0.0979,0.0316 0.0593,0.07 -0.0384,0.0384 -0.0133,0.17576 0.0561,0.305 0.12562,0.23396 0.12668,0.23376 0.24572,-0.0423 0.0658,-0.15248 0.25237,-0.50185 0.41471,-0.77636 z m -98.906216,-0.53557 c 0.03132,-0.0506 -0.01509,-0.36259 -0.103051,-0.6932 -0.23807,-0.89454 -0.211282,-1.67384 0.06984,-2.03123 0.47662,-0.60592 -0.110202,-0.87534 -0.610795,-0.28042 -0.157941,0.1877 -0.315414,0.45381 -0.349929,0.59135 -0.05146,0.20504 0.410546,2.12787 0.582035,2.42242 0.06512,0.1119 0.34096,0.10593 0.411903,-0.009 z M 117.34648,157.4305 c 0,-0.0609 -0.022,-0.11098 -0.0489,-0.11098 -0.0268,0 -0.0798,0.0498 -0.11746,0.11098 -0.0378,0.0609 -0.0157,0.11098 0.0489,0.11098 0.0646,0 0.11746,-0.0498 0.11746,-0.11098 z m 1.1091,-3.8264 c 0,-0.0915 -0.0469,-0.16636 -0.10444,-0.16636 -0.13984,0 -0.24,0.17319 -0.15139,0.26179 0.12489,0.12489 0.25576,0.0761 0.25576,-0.0955 z m -2.75712,-0.60418 c 0.32314,-0.30181 0.55163,-0.58464 0.50775,-0.6285 -0.0438,-0.0438 -0.23364,0.0659 -0.42172,0.24372 -0.18809,0.17793 -0.43764,0.41084 -0.55454,0.51759 -0.1908,0.17419 -0.28715,0.41591 -0.1658,0.41591 0.0258,0 0.31118,-0.24693 0.63431,-0.54872 z m 1.72148,0.18825 c -0.0308,-0.0762 -0.056,-0.014 -0.056,0.13864 0,0.15251 0.0251,0.21491 0.056,0.13865 0.0307,-0.0762 0.0307,-0.20102 0,-0.27729 z m -1.40438,-21.23167 c 0,-0.3411 -0.0793,-0.47987 -0.48184,-0.84304 -0.5789,-0.52233 -1.73969,-0.97474 -2.90092,-1.13067 -0.18302,-0.0246 -0.58229,-0.10031 -0.8873,-0.16843 -0.305,-0.0681 -0.99248,-0.19076 -1.52774,-0.27265 -0.53525,-0.0819 -1.03435,-0.19762 -1.1091,-0.25721 -0.11443,-0.0911 -0.84809,-0.24587 -2.42757,-0.51183 -0.1624,-0.0273 -0.38699,-0.097 -0.4991,-0.15474 -0.1121,-0.0577 -0.2678,-0.0822 -0.34601,-0.0542 -0.0782,0.0279 -0.25398,-0.0223 -0.39061,-0.1119 -0.13663,-0.0895 -0.47191,-0.19832 -0.74508,-0.24179 -0.27318,-0.0435 -0.78167,-0.18051 -1.12997,-0.30453 -0.35802,-0.12754 -0.78538,-0.20321 -0.98317,-0.17418 -0.19243,0.0282 -0.5485,-0.0171 -0.79127,-0.10077 -0.48584,-0.16738 -1.11496,-0.101 -1.31384,0.13863 -0.0927,0.11167 -0.0915,0.25163 0.005,0.54295 0.10729,0.32508 0.18287,0.39249 0.44008,0.39249 0.1708,0 0.37269,-0.0749 0.44862,-0.16638 0.1674,-0.20171 1.00687,-0.22424 1.19892,-0.0322 0.10497,0.10501 0.20654,0.0915 0.46653,-0.0621 0.25239,-0.1491 0.45227,-0.17835 0.83075,-0.12156 0.27411,0.0411 0.49838,0.11904 0.49838,0.17306 0,0.0542 0.0695,0.0984 0.1545,0.0984 0.085,0 0.18539,0.0806 0.22312,0.17886 0.0556,0.14485 0.10004,0.15282 0.2337,0.0419 0.11253,-0.0933 0.20918,-0.10157 0.30369,-0.0256 0.0762,0.0613 0.31333,0.13913 0.52682,0.17308 0.21351,0.0339 0.73756,0.14215 1.16455,0.24042 0.42703,0.0982 1.1008,0.22075 1.49731,0.27214 1.15123,0.14926 2.77275,0.60769 2.77275,0.78394 0,0.17854 0.67653,0.33359 0.91013,0.20858 0.15957,-0.0854 0.25718,-0.0848 0.34397,0.003 0.0667,0.0668 0.30087,0.12118 0.52047,0.12118 0.2196,0 0.44668,0.0438 0.50464,0.0977 0.058,0.0536 0.28004,0.15326 0.49354,0.2214 0.32838,0.10467 0.9466,0.57878 1.66366,1.27552 0.26366,0.25618 0.33272,0.20881 0.33272,-0.22816 z m -3.93955,-6.09895 c -0.12027,-0.18358 -0.25332,-0.26088 -0.38822,-0.2256 -0.11831,0.0309 -0.2318,-0.0155 -0.2679,-0.10961 -0.0344,-0.0899 -0.12505,-0.14107 -0.20126,-0.11385 -0.0762,0.0272 -0.28424,-0.0241 -0.46225,-0.11419 -0.17802,-0.09 -0.50244,-0.17935 -0.72091,-0.19857 -0.80136,-0.0704 -1.40139,-0.20013 -1.6389,-0.35421 -0.13447,-0.0872 -0.45715,-0.14759 -0.72091,-0.13484 -0.26262,0.0133 -0.5773,-0.0133 -0.6993,-0.0572 -0.93924,-0.33952 -1.35726,-0.42689 -2.64727,-0.55332 -0.358,-0.0352 -0.68943,-0.0877 -0.73652,-0.11667 -0.11541,-0.0714 -0.44261,0.44152 -0.44261,0.69375 0,0.11098 0.14163,0.28546 0.31472,0.3877 0.30133,0.17801 1.38183,0.4266 1.84803,0.42519 0.12199,-3.3e-4 0.42146,0.0543 0.66546,0.12131 0.244,0.067 0.54346,0.13646 0.66546,0.15416 0.122,0.0178 0.69596,0.13312 1.27547,0.25653 0.5795,0.12343 1.7415,0.36993 2.58221,0.54781 0.84072,0.17788 1.5644,0.35981 1.60819,0.40431 0.17313,0.17588 0.14272,-0.7438 -0.0335,-1.01272 z m 0.33909,-1.15231 c 0.12167,-0.19686 -0.18363,-0.77076 -0.49594,-0.93226 -0.1618,-0.0837 -1.98895,-0.48227 -4.06033,-0.88578 -2.07137,-0.40349 -4.02983,-0.79019 -4.35212,-0.8593 -0.80898,-0.17349 -0.88574,-0.0683 -0.57401,0.78669 0.25611,0.70237 0.31408,0.75204 0.6611,0.56632 0.20697,-0.11087 0.88092,-2.3e-4 6.43259,1.05552 2.21022,0.4203 2.28957,0.42921 2.38871,0.26881 z m -126.432596,69.45142 c -0.04777,-0.0773 -0.05691,-0.17049 -0.02031,-0.2071 0.09925,-0.0993 0.207487,0.0466 0.153874,0.20756 -0.03759,0.11271 -0.06369,0.11271 -0.133571,-4.3e-4 z m 4.8153925,-2.59954 c 0,-0.0885 0.071908,-0.2206 0.1597824,-0.29354 0.087884,-0.0729 0.1818413,-0.2662 0.2088103,-0.42948 0.026949,-0.1633 0.042418,-0.0478 0.034307,0.25664 -0.01153,0.43208 -0.057309,0.56166 -0.2088112,0.59044 -0.1126038,0.0213 -0.1940898,-0.0308 -0.1940898,-0.12409 z m 5.6564258,-3.07176 c 0,-0.0609 0.052882,-0.11098 0.1174557,-0.11098 0.064598,0 0.086604,0.0498 0.048906,0.11098 -0.037688,0.0609 -0.090561,0.11098 -0.1174568,0.11098 -0.026901,0 -0.048906,-0.0499 -0.048905,-0.11098 z m 1.4418367,-0.9362 c 0,-0.0879 0.049939,-0.19065 0.1109076,-0.22835 0.060994,-0.0376 0.1109075,0.0342 0.1109075,0.15981 0,0.12555 -0.049886,0.22837 -0.1109075,0.22837 -0.061008,0 -0.1109076,-0.0719 -0.1109076,-0.15983 z m 3.1054855,-3.83947 c 0,-0.0646 0.049938,-0.0865 0.1109075,-0.049 0.061008,0.0376 0.1109076,0.0905 0.1109076,0.11745 0,0.0269 -0.049938,0.049 -0.1109076,0.049 -0.060995,0 -0.1109075,-0.0529 -0.1109075,-0.11744 z m 1.4418371,-1.36798 c 0,-0.15761 0.3194261,-0.33942 0.4198647,-0.23898 0.070805,0.0707 -0.1936986,0.39347 -0.3225361,0.39347 -0.053532,0 -0.097333,-0.0694 -0.097333,-0.15449 z m 0.2772756,-1.17643 c -0.1198825,-0.19397 0.057893,-0.35786 0.231693,-0.21363 0.086077,0.0714 0.1564928,0.17368 0.1564928,0.22722 0,0.13369 -0.3037205,0.12302 -0.3881858,-0.0135 z m 3.0130632,-3.62308 c -0.040686,-0.0407 -0.073946,-0.16177 -0.073946,-0.26912 0,-0.10743 -0.08734,-0.21804 -0.1940914,-0.24593 -0.1472711,-0.0385 -0.134402,-0.0538 0.053322,-0.0636 0.1779869,-0.0103 0.2673316,0.0665 0.3183202,0.26957 0.073464,0.29273 0.024882,0.4376 -0.1036254,0.30908 z m 2.2551755,-3.58609 c 0,-0.0609 0.046941,-0.11098 0.1043599,-0.11098 0.057408,0 0.1352089,0.05 0.1729107,0.11098 0.03769,0.0609 -0.0093,0.11098 -0.10436,0.11098 -0.09511,0 -0.1729106,-0.0498 -0.1729106,-0.11098 z"
           id="path1637"
           inkscape:connector-curvature="0" />
      </g>
    </g>
  </g>
</svg>
